%TF.GenerationSoftware,KiCad,Pcbnew,(6.0.10)*%
%TF.CreationDate,2023-04-18T09:59:35+03:00*%
%TF.ProjectId,Console,436f6e73-6f6c-4652-9e6b-696361645f70,rev?*%
%TF.SameCoordinates,Original*%
%TF.FileFunction,Soldermask,Bot*%
%TF.FilePolarity,Negative*%
%FSLAX46Y46*%
G04 Gerber Fmt 4.6, Leading zero omitted, Abs format (unit mm)*
G04 Created by KiCad (PCBNEW (6.0.10)) date 2023-04-18 09:59:35*
%MOMM*%
%LPD*%
G01*
G04 APERTURE LIST*
%ADD10R,2.000000X2.000000*%
%ADD11C,2.000000*%
%ADD12O,1.800000X1.100000*%
%ADD13O,2.200000X1.100000*%
%ADD14C,0.900000*%
%ADD15C,8.600000*%
%ADD16R,1.700000X1.700000*%
%ADD17O,1.700000X1.700000*%
G04 APERTURE END LIST*
D10*
%TO.C,S8*%
X90250000Y-102250000D03*
D11*
X83750000Y-102250000D03*
X90250000Y-97750000D03*
X83750000Y-97750000D03*
%TD*%
D10*
%TO.C,S3*%
X80250000Y-92250000D03*
D11*
X73750000Y-92250000D03*
X80250000Y-87750000D03*
X73750000Y-87750000D03*
%TD*%
D12*
%TO.C,J4*%
X147200000Y-136550000D03*
D13*
X150000000Y-138700000D03*
D12*
X152800000Y-136550000D03*
%TD*%
D14*
%TO.C,H4*%
X54780419Y-136780419D03*
X52500000Y-131275000D03*
X49275000Y-134500000D03*
X54780419Y-132219581D03*
X52500000Y-137725000D03*
X50219581Y-136780419D03*
X50219581Y-132219581D03*
X55725000Y-134500000D03*
D15*
X52500000Y-134500000D03*
%TD*%
D16*
%TO.C,J5*%
X111500000Y-91125000D03*
D17*
X111500000Y-93665000D03*
X111500000Y-96205000D03*
X111500000Y-98745000D03*
X111500000Y-101285000D03*
X111500000Y-103825000D03*
X111500000Y-106365000D03*
X111500000Y-108905000D03*
%TD*%
D10*
%TO.C,S2*%
X226250000Y-112250000D03*
D11*
X219750000Y-112250000D03*
X226250000Y-107750000D03*
X219750000Y-107750000D03*
%TD*%
D16*
%TO.C,J2*%
X188500000Y-91125000D03*
D17*
X188500000Y-93665000D03*
X188500000Y-96205000D03*
X188500000Y-98745000D03*
X188500000Y-101285000D03*
X188500000Y-103825000D03*
X188500000Y-106365000D03*
X188500000Y-108905000D03*
%TD*%
D10*
%TO.C,S7*%
X80250000Y-112250000D03*
D11*
X73750000Y-112250000D03*
X80250000Y-107750000D03*
X73750000Y-107750000D03*
%TD*%
D10*
%TO.C,S1*%
X216250000Y-102250000D03*
D11*
X209750000Y-102250000D03*
X216250000Y-97750000D03*
X209750000Y-97750000D03*
%TD*%
D10*
%TO.C,S4*%
X70250000Y-102250000D03*
D11*
X63750000Y-102250000D03*
X70250000Y-97750000D03*
X63750000Y-97750000D03*
%TD*%
D10*
%TO.C,S6*%
X236250000Y-102250000D03*
D11*
X229750000Y-102250000D03*
X236250000Y-97750000D03*
X229750000Y-97750000D03*
%TD*%
D14*
%TO.C,H1*%
X55725000Y-65500000D03*
X50219581Y-67780419D03*
X54780419Y-67780419D03*
X52500000Y-68725000D03*
X50219581Y-63219581D03*
X49275000Y-65500000D03*
X52500000Y-62275000D03*
X54780419Y-63219581D03*
D15*
X52500000Y-65500000D03*
%TD*%
D14*
%TO.C,H3*%
X247500000Y-137725000D03*
X245219581Y-136780419D03*
X245219581Y-132219581D03*
X249780419Y-132219581D03*
X250725000Y-134500000D03*
X249780419Y-136780419D03*
X244275000Y-134500000D03*
X247500000Y-131275000D03*
D15*
X247500000Y-134500000D03*
%TD*%
D10*
%TO.C,S5*%
X226250000Y-92250000D03*
D11*
X219750000Y-92250000D03*
X226250000Y-87750000D03*
X219750000Y-87750000D03*
%TD*%
D14*
%TO.C,H2*%
X249780419Y-67780419D03*
X247500000Y-62275000D03*
X245219581Y-63219581D03*
X244275000Y-65500000D03*
X247500000Y-68725000D03*
X250725000Y-65500000D03*
X245219581Y-67780419D03*
D15*
X247500000Y-65500000D03*
D14*
X249780419Y-63219581D03*
%TD*%
M02*
