%TF.GenerationSoftware,KiCad,Pcbnew,(6.0.10)*%
%TF.CreationDate,2023-04-18T09:59:35+03:00*%
%TF.ProjectId,Console,436f6e73-6f6c-4652-9e6b-696361645f70,rev?*%
%TF.SameCoordinates,Original*%
%TF.FileFunction,Copper,L2,Bot*%
%TF.FilePolarity,Positive*%
%FSLAX46Y46*%
G04 Gerber Fmt 4.6, Leading zero omitted, Abs format (unit mm)*
G04 Created by KiCad (PCBNEW (6.0.10)) date 2023-04-18 09:59:35*
%MOMM*%
%LPD*%
G01*
G04 APERTURE LIST*
%TA.AperFunction,ComponentPad*%
%ADD10R,2.000000X2.000000*%
%TD*%
%TA.AperFunction,ComponentPad*%
%ADD11C,2.000000*%
%TD*%
%TA.AperFunction,ComponentPad*%
%ADD12O,1.800000X1.100000*%
%TD*%
%TA.AperFunction,ComponentPad*%
%ADD13O,2.200000X1.100000*%
%TD*%
%TA.AperFunction,ComponentPad*%
%ADD14C,0.900000*%
%TD*%
%TA.AperFunction,ComponentPad*%
%ADD15C,8.600000*%
%TD*%
%TA.AperFunction,ComponentPad*%
%ADD16R,1.700000X1.700000*%
%TD*%
%TA.AperFunction,ComponentPad*%
%ADD17O,1.700000X1.700000*%
%TD*%
%TA.AperFunction,ViaPad*%
%ADD18C,0.800000*%
%TD*%
%TA.AperFunction,Conductor*%
%ADD19C,0.300000*%
%TD*%
%TA.AperFunction,Conductor*%
%ADD20C,0.200000*%
%TD*%
G04 APERTURE END LIST*
D10*
%TO.P,S8,1*%
%TO.N,GPIO_RIGHT*%
X90250000Y-102250000D03*
D11*
%TO.P,S8,2*%
X83750000Y-102250000D03*
%TO.P,S8,3*%
%TO.N,+3.3V*%
X90250000Y-97750000D03*
%TO.P,S8,4*%
X83750000Y-97750000D03*
%TD*%
D10*
%TO.P,S3,1*%
%TO.N,GPIO_UP*%
X80250000Y-92250000D03*
D11*
%TO.P,S3,2*%
X73750000Y-92250000D03*
%TO.P,S3,3*%
%TO.N,+3.3V*%
X80250000Y-87750000D03*
%TO.P,S3,4*%
X73750000Y-87750000D03*
%TD*%
D12*
%TO.P,J4,6,Shield*%
%TO.N,GND*%
X147200000Y-136550000D03*
D13*
X150000000Y-138700000D03*
D12*
X152800000Y-136550000D03*
%TD*%
D14*
%TO.P,H4,1,1*%
%TO.N,GND*%
X54780419Y-136780419D03*
X52500000Y-131275000D03*
X49275000Y-134500000D03*
X54780419Y-132219581D03*
X52500000Y-137725000D03*
X50219581Y-136780419D03*
X50219581Y-132219581D03*
X55725000Y-134500000D03*
D15*
X52500000Y-134500000D03*
%TD*%
D16*
%TO.P,J5,1,Pin_1*%
%TO.N,unconnected-(J5-Pad1)*%
X111500000Y-91125000D03*
D17*
%TO.P,J5,2,Pin_2*%
%TO.N,unconnected-(J5-Pad2)*%
X111500000Y-93665000D03*
%TO.P,J5,3,Pin_3*%
%TO.N,unconnected-(J5-Pad3)*%
X111500000Y-96205000D03*
%TO.P,J5,4,Pin_4*%
%TO.N,unconnected-(J5-Pad4)*%
X111500000Y-98745000D03*
%TO.P,J5,5,Pin_5*%
%TO.N,unconnected-(J5-Pad5)*%
X111500000Y-101285000D03*
%TO.P,J5,6,Pin_6*%
%TO.N,unconnected-(J5-Pad6)*%
X111500000Y-103825000D03*
%TO.P,J5,7,Pin_7*%
%TO.N,unconnected-(J5-Pad7)*%
X111500000Y-106365000D03*
%TO.P,J5,8,Pin_8*%
%TO.N,unconnected-(J5-Pad8)*%
X111500000Y-108905000D03*
%TD*%
D10*
%TO.P,S2,1*%
%TO.N,GPIO_X*%
X226250000Y-112250000D03*
D11*
%TO.P,S2,2*%
X219750000Y-112250000D03*
%TO.P,S2,3*%
%TO.N,+3.3V*%
X226250000Y-107750000D03*
%TO.P,S2,4*%
X219750000Y-107750000D03*
%TD*%
D16*
%TO.P,J2,1,Pin_1*%
%TO.N,+3.3V*%
X188500000Y-91125000D03*
D17*
%TO.P,J2,2,Pin_2*%
%TO.N,GND*%
X188500000Y-93665000D03*
%TO.P,J2,3,Pin_3*%
%TO.N,SPI_SCK*%
X188500000Y-96205000D03*
%TO.P,J2,4,Pin_4*%
%TO.N,SPI_MOSI*%
X188500000Y-98745000D03*
%TO.P,J2,5,Pin_5*%
%TO.N,SCR_RST*%
X188500000Y-101285000D03*
%TO.P,J2,6,Pin_6*%
%TO.N,SCR_DC*%
X188500000Y-103825000D03*
%TO.P,J2,7,Pin_7*%
%TO.N,GPIO_CS*%
X188500000Y-106365000D03*
%TO.P,J2,8,Pin_8*%
%TO.N,SCR_BLK*%
X188500000Y-108905000D03*
%TD*%
D10*
%TO.P,S7,1*%
%TO.N,GPIO_DOWN*%
X80250000Y-112250000D03*
D11*
%TO.P,S7,2*%
X73750000Y-112250000D03*
%TO.P,S7,3*%
%TO.N,+3.3V*%
X80250000Y-107750000D03*
%TO.P,S7,4*%
X73750000Y-107750000D03*
%TD*%
D10*
%TO.P,S1,1*%
%TO.N,GPIO_A*%
X216250000Y-102250000D03*
D11*
%TO.P,S1,2*%
X209750000Y-102250000D03*
%TO.P,S1,3*%
%TO.N,+3.3V*%
X216250000Y-97750000D03*
%TO.P,S1,4*%
X209750000Y-97750000D03*
%TD*%
D10*
%TO.P,S4,1*%
%TO.N,GPIO_LEFT*%
X70250000Y-102250000D03*
D11*
%TO.P,S4,2*%
X63750000Y-102250000D03*
%TO.P,S4,3*%
%TO.N,+3.3V*%
X70250000Y-97750000D03*
%TO.P,S4,4*%
X63750000Y-97750000D03*
%TD*%
D10*
%TO.P,S6,1*%
%TO.N,GPIO_Y*%
X236250000Y-102250000D03*
D11*
%TO.P,S6,2*%
X229750000Y-102250000D03*
%TO.P,S6,3*%
%TO.N,+3.3V*%
X236250000Y-97750000D03*
%TO.P,S6,4*%
X229750000Y-97750000D03*
%TD*%
D14*
%TO.P,H1,1,1*%
%TO.N,GND*%
X55725000Y-65500000D03*
X50219581Y-67780419D03*
X54780419Y-67780419D03*
X52500000Y-68725000D03*
X50219581Y-63219581D03*
X49275000Y-65500000D03*
X52500000Y-62275000D03*
X54780419Y-63219581D03*
D15*
X52500000Y-65500000D03*
%TD*%
D14*
%TO.P,H3,1,1*%
%TO.N,GND*%
X247500000Y-137725000D03*
X245219581Y-136780419D03*
X245219581Y-132219581D03*
X249780419Y-132219581D03*
X250725000Y-134500000D03*
X249780419Y-136780419D03*
X244275000Y-134500000D03*
X247500000Y-131275000D03*
D15*
X247500000Y-134500000D03*
%TD*%
D10*
%TO.P,S5,1*%
%TO.N,GPIO_B*%
X226250000Y-92250000D03*
D11*
%TO.P,S5,2*%
X219750000Y-92250000D03*
%TO.P,S5,3*%
%TO.N,+3.3V*%
X226250000Y-87750000D03*
%TO.P,S5,4*%
X219750000Y-87750000D03*
%TD*%
D14*
%TO.P,H2,1,1*%
%TO.N,GND*%
X249780419Y-67780419D03*
X247500000Y-62275000D03*
X245219581Y-63219581D03*
X244275000Y-65500000D03*
X247500000Y-68725000D03*
X250725000Y-65500000D03*
X245219581Y-67780419D03*
D15*
X247500000Y-65500000D03*
D14*
X249780419Y-63219581D03*
%TD*%
D18*
%TO.N,+3.3V*%
X141400000Y-105400000D03*
X150094622Y-68905378D03*
X138400000Y-105300000D03*
X160800000Y-64200000D03*
X156505378Y-102905378D03*
X148500000Y-122800000D03*
X151400000Y-113900000D03*
X154400000Y-121200000D03*
X154700000Y-108200000D03*
X147000000Y-70600498D03*
%TO.N,GND*%
X152900000Y-107800000D03*
X100700000Y-103900000D03*
X143300000Y-94300000D03*
X145900000Y-105800000D03*
X153000000Y-104200500D03*
X145200000Y-101699500D03*
X145419500Y-94900000D03*
%TO.N,NRST*%
X147600000Y-115200000D03*
X157400000Y-101700000D03*
%TO.N,SPI_SCK*%
X150800500Y-73400000D03*
X151284622Y-71715378D03*
X150800500Y-92300000D03*
X153500000Y-92300000D03*
%TO.N,SPI_MOSI*%
X149400500Y-93199000D03*
X150100000Y-70100000D03*
X152200000Y-93500000D03*
X149807104Y-73510316D03*
%TO.N,SCR_DC*%
X159300000Y-102500000D03*
X156700000Y-98000000D03*
%TO.N,GPIO_CS*%
X166400000Y-104700000D03*
X162200000Y-100400000D03*
%TO.N,BOOT0*%
X151500000Y-104200500D03*
X149916470Y-105183530D03*
%TO.N,GPIO_A*%
X191500000Y-100000000D03*
X160000000Y-99800000D03*
%TO.N,GPIO_X*%
X178700000Y-96200000D03*
X225700000Y-118000000D03*
X190900000Y-102100000D03*
X149144622Y-95655378D03*
%TO.N,GPIO_UP*%
X142450500Y-97500000D03*
X144385000Y-98344954D03*
%TO.N,GPIO_LEFT*%
X142005023Y-98605023D03*
X143664977Y-99064977D03*
%TO.N,GPIO_B*%
X210700000Y-94900000D03*
X158800000Y-98600000D03*
%TO.N,GPIO_Y*%
X207700000Y-93800000D03*
X147800000Y-95300000D03*
%TO.N,GPIO_DOWN*%
X142958222Y-99771732D03*
X140890378Y-98730424D03*
%TO.N,GPIO_RIGHT*%
X141500000Y-101500000D03*
X137800000Y-100700000D03*
%TO.N,SPI_MISO*%
X152300000Y-89200000D03*
X150101000Y-90500000D03*
%TD*%
D19*
%TO.N,+3.3V*%
X149494622Y-68905378D02*
X147900000Y-70500000D01*
X147799502Y-70600498D02*
X147000000Y-70600498D01*
X70250000Y-97750000D02*
X70250000Y-91250000D01*
X236250000Y-97750000D02*
X229750000Y-97750000D01*
X138600000Y-105400000D02*
X138500000Y-105400000D01*
X73750000Y-107750000D02*
X73750000Y-101250000D01*
X216250000Y-97750000D02*
X209750000Y-97750000D01*
X156600000Y-105900000D02*
X156600000Y-103000000D01*
X80250000Y-87750000D02*
X83750000Y-91250000D01*
X156600000Y-103000000D02*
X156505378Y-102905378D01*
X73750000Y-101250000D02*
X70250000Y-97750000D01*
X219750000Y-107750000D02*
X226250000Y-107750000D01*
X154800000Y-64200000D02*
X160800000Y-64200000D01*
X219750000Y-101250000D02*
X216250000Y-97750000D01*
X138265000Y-105165000D02*
X138400000Y-105300000D01*
X153200000Y-122400000D02*
X149100000Y-122400000D01*
X229750000Y-91250000D02*
X226250000Y-87750000D01*
X80250000Y-87750000D02*
X73750000Y-87750000D01*
X226250000Y-101250000D02*
X226250000Y-107750000D01*
X73750000Y-107750000D02*
X80250000Y-107750000D01*
X149300000Y-113900000D02*
X151400000Y-113900000D01*
X70250000Y-91250000D02*
X73750000Y-87750000D01*
X147900000Y-70500000D02*
X147799502Y-70600498D01*
X80250000Y-101250000D02*
X80250000Y-107750000D01*
X150094622Y-68905378D02*
X154800000Y-64200000D01*
X63750000Y-97750000D02*
X70250000Y-97750000D01*
X148900000Y-122400000D02*
X148500000Y-122800000D01*
X154400000Y-121200000D02*
X153200000Y-122400000D01*
X90250000Y-97750000D02*
X97665000Y-105165000D01*
X140800000Y-105400000D02*
X149300000Y-113900000D01*
X141400000Y-105400000D02*
X140800000Y-105400000D01*
X83750000Y-97750000D02*
X90250000Y-97750000D01*
X83750000Y-91250000D02*
X83750000Y-97750000D01*
X156600000Y-106300000D02*
X156600000Y-105900000D01*
X216250000Y-97750000D02*
X216250000Y-91250000D01*
X138500000Y-105400000D02*
X138400000Y-105300000D01*
X97665000Y-105165000D02*
X138265000Y-105165000D01*
X216250000Y-91250000D02*
X219750000Y-87750000D01*
X154700000Y-108200000D02*
X156600000Y-106300000D01*
X219750000Y-107750000D02*
X219750000Y-101250000D01*
X226250000Y-87750000D02*
X219750000Y-87750000D01*
X150094622Y-68905378D02*
X149494622Y-68905378D01*
X229750000Y-97750000D02*
X229750000Y-91250000D01*
X140800000Y-105400000D02*
X138600000Y-105400000D01*
X149100000Y-122400000D02*
X148900000Y-122400000D01*
X83750000Y-97750000D02*
X80250000Y-101250000D01*
X229750000Y-97750000D02*
X226250000Y-101250000D01*
%TO.N,GND*%
X137315000Y-100085000D02*
X138700000Y-98700000D01*
X145900000Y-102399500D02*
X145200000Y-101699500D01*
X144000000Y-94900000D02*
X143750000Y-94650000D01*
X145200000Y-101699500D02*
X142799500Y-101699500D01*
X145419500Y-94900000D02*
X144000000Y-94900000D01*
X153000000Y-107700000D02*
X152900000Y-107800000D01*
X100700000Y-103900000D02*
X104515000Y-100085000D01*
X143750000Y-94650000D02*
X143400000Y-94300000D01*
X139800000Y-98700000D02*
X139800000Y-97800000D01*
X139800000Y-97800000D02*
X143300000Y-94300000D01*
X142799500Y-101699500D02*
X139800000Y-98700000D01*
X145900000Y-105800000D02*
X145900000Y-102399500D01*
X143750000Y-94650000D02*
X143600000Y-94500000D01*
X143400000Y-94300000D02*
X143300000Y-94300000D01*
X138700000Y-98700000D02*
X139800000Y-98700000D01*
X104515000Y-100085000D02*
X137315000Y-100085000D01*
X153000000Y-104200500D02*
X153000000Y-107700000D01*
%TO.N,NRST*%
X152200000Y-115200000D02*
X153600000Y-113800000D01*
X157600000Y-109800000D02*
X157600000Y-101900000D01*
X157600000Y-101900000D02*
X157400000Y-101700000D01*
X147600000Y-115200000D02*
X152200000Y-115200000D01*
X153600000Y-113800000D02*
X157600000Y-109800000D01*
D20*
%TO.N,SPI_SCK*%
X150800000Y-72200000D02*
X150800000Y-73100000D01*
X151284622Y-71715378D02*
X150800000Y-72200000D01*
X150800000Y-73100000D02*
X150800000Y-73399500D01*
X150800000Y-73399500D02*
X150800500Y-73400000D01*
X153500000Y-92300000D02*
X150800500Y-92300000D01*
%TO.N,SPI_MOSI*%
X149400500Y-93199000D02*
X151899000Y-93199000D01*
X150100000Y-73217420D02*
X150100000Y-70100000D01*
X151899000Y-93199000D02*
X151900000Y-93200000D01*
X151900000Y-93200000D02*
X152200000Y-93500000D01*
X149807104Y-73510316D02*
X150100000Y-73217420D01*
%TO.N,SCR_DC*%
X158700000Y-100000000D02*
X158700000Y-101900000D01*
X156700000Y-98000000D02*
X158700000Y-100000000D01*
X158700000Y-101900000D02*
X159300000Y-102500000D01*
D19*
%TO.N,GPIO_CS*%
X162200000Y-100500000D02*
X162200000Y-100400000D01*
D20*
X166400000Y-104700000D02*
X162200000Y-100500000D01*
%TO.N,BOOT0*%
X150600500Y-105100000D02*
X150000000Y-105100000D01*
X151500000Y-104200500D02*
X150600500Y-105100000D01*
X150000000Y-105100000D02*
X149916470Y-105183530D01*
%TO.N,GPIO_A*%
X162845000Y-99945000D02*
X191445000Y-99945000D01*
X160500000Y-99300000D02*
X162200000Y-99300000D01*
X216250000Y-102250000D02*
X209750000Y-102250000D01*
X160000000Y-99800000D02*
X160500000Y-99300000D01*
X162200000Y-99300000D02*
X162845000Y-99945000D01*
D19*
X191445000Y-99945000D02*
X191500000Y-100000000D01*
D20*
%TO.N,GPIO_X*%
X202875000Y-102675000D02*
X191475000Y-102675000D01*
X220200000Y-120000000D02*
X202875000Y-102675000D01*
X225700000Y-118000000D02*
X223700000Y-120000000D01*
X191475000Y-102675000D02*
X190900000Y-102100000D01*
X226250000Y-112250000D02*
X219750000Y-112250000D01*
X149144622Y-95655378D02*
X153555378Y-95655378D01*
X223700000Y-120000000D02*
X220200000Y-120000000D01*
X154100000Y-96200000D02*
X178700000Y-96200000D01*
X153555378Y-95655378D02*
X154100000Y-96200000D01*
%TO.N,GPIO_UP*%
X143540046Y-97500000D02*
X142450500Y-97500000D01*
X144385000Y-98344954D02*
X143540046Y-97500000D01*
D19*
X73750000Y-92250000D02*
X80250000Y-92250000D01*
D20*
%TO.N,GPIO_LEFT*%
X142010046Y-98600000D02*
X142005023Y-98605023D01*
D19*
X70250000Y-102250000D02*
X63750000Y-102250000D01*
D20*
X143664977Y-99064977D02*
X143200000Y-98600000D01*
X143200000Y-98600000D02*
X142200000Y-98600000D01*
X142200000Y-98600000D02*
X142010046Y-98600000D01*
%TO.N,GPIO_B*%
X208005000Y-97595000D02*
X159805000Y-97595000D01*
X159805000Y-97595000D02*
X158800000Y-98600000D01*
X210700000Y-94900000D02*
X208005000Y-97595000D01*
X219750000Y-92250000D02*
X226250000Y-92250000D01*
%TO.N,GPIO_Y*%
X229750000Y-102250000D02*
X236250000Y-102250000D01*
X206635000Y-94865000D02*
X148235000Y-94865000D01*
X148235000Y-94865000D02*
X147800000Y-95300000D01*
X207700000Y-93800000D02*
X206635000Y-94865000D01*
D19*
%TO.N,GPIO_DOWN*%
X141931686Y-99771732D02*
X142958222Y-99771732D01*
X140890378Y-98730424D02*
X141931686Y-99771732D01*
X80250000Y-112250000D02*
X73750000Y-112250000D01*
D20*
%TO.N,GPIO_RIGHT*%
X138100000Y-100400000D02*
X137800000Y-100700000D01*
X140400000Y-100400000D02*
X138100000Y-100400000D01*
D19*
X90250000Y-102250000D02*
X83750000Y-102250000D01*
D20*
X141500000Y-101500000D02*
X140400000Y-100400000D01*
%TO.N,SPI_MISO*%
X150300000Y-90300000D02*
X150101000Y-90499000D01*
X150101000Y-90499000D02*
X150101000Y-90500000D01*
X152300000Y-89200000D02*
X151200000Y-90300000D01*
X151200000Y-90300000D02*
X150300000Y-90300000D01*
%TD*%
%TA.AperFunction,Conductor*%
%TO.N,GND*%
G36*
X246748272Y-60528502D02*
G01*
X246794765Y-60582158D01*
X246804869Y-60652432D01*
X246775375Y-60717012D01*
X246715649Y-60755396D01*
X246700838Y-60758790D01*
X246502128Y-60791864D01*
X246496631Y-60793032D01*
X246087547Y-60899209D01*
X246082181Y-60900861D01*
X245684153Y-61042983D01*
X245678965Y-61045100D01*
X245295133Y-61222050D01*
X245290164Y-61224614D01*
X244923581Y-61434984D01*
X244918848Y-61437987D01*
X244572420Y-61680109D01*
X244567979Y-61683517D01*
X244296476Y-61911739D01*
X244288031Y-61924456D01*
X244294139Y-61934929D01*
X244693493Y-62334283D01*
X245219580Y-62860371D01*
X246104878Y-63745668D01*
X249780419Y-67421209D01*
X250665717Y-68306506D01*
X251062145Y-68702934D01*
X251075903Y-68710446D01*
X251085263Y-68703989D01*
X251254244Y-68511303D01*
X251257744Y-68506935D01*
X251507073Y-68165645D01*
X251510168Y-68160987D01*
X251728160Y-67798903D01*
X251730841Y-67793964D01*
X251915779Y-67413946D01*
X251918014Y-67408780D01*
X252068442Y-67013815D01*
X252070201Y-67008496D01*
X252184920Y-66601730D01*
X252186204Y-66596259D01*
X252241670Y-66301301D01*
X252273917Y-66238050D01*
X252335241Y-66202274D01*
X252406172Y-66205332D01*
X252464189Y-66246252D01*
X252490874Y-66312043D01*
X252491500Y-66324587D01*
X252491500Y-133659527D01*
X252471498Y-133727648D01*
X252417842Y-133774141D01*
X252347568Y-133784245D01*
X252282988Y-133754751D01*
X252244604Y-133695025D01*
X252240621Y-133676300D01*
X252237155Y-133650498D01*
X252236162Y-133644976D01*
X252142883Y-133232748D01*
X252141410Y-133227361D01*
X252011847Y-132825025D01*
X252009910Y-132819815D01*
X251845098Y-132430599D01*
X251842683Y-132425536D01*
X251643936Y-132052535D01*
X251641085Y-132047713D01*
X251409974Y-131693865D01*
X251406692Y-131689297D01*
X251145030Y-131357380D01*
X251141382Y-131353155D01*
X251088103Y-131296715D01*
X251074389Y-131288705D01*
X251073517Y-131288742D01*
X251065438Y-131293772D01*
X250665717Y-131693493D01*
X249780419Y-132578790D01*
X249254332Y-133104878D01*
X246104879Y-136254331D01*
X245219581Y-137139628D01*
X244693494Y-137665716D01*
X244296736Y-138062474D01*
X244289122Y-138076418D01*
X244289171Y-138077110D01*
X244294617Y-138085274D01*
X244372268Y-138157812D01*
X244376507Y-138161433D01*
X244709802Y-138421363D01*
X244714359Y-138424602D01*
X245069448Y-138653880D01*
X245074250Y-138656686D01*
X245448316Y-138853491D01*
X245453374Y-138855871D01*
X245843435Y-139018638D01*
X245848690Y-139020561D01*
X246251676Y-139148008D01*
X246257075Y-139149455D01*
X246669799Y-139240576D01*
X246674390Y-139241377D01*
X246738057Y-139272794D01*
X246774631Y-139333645D01*
X246772501Y-139404610D01*
X246732342Y-139463157D01*
X246666905Y-139490699D01*
X246652724Y-139491500D01*
X151534726Y-139491500D01*
X151466605Y-139471498D01*
X151420112Y-139417842D01*
X151410008Y-139347568D01*
X151430269Y-139295039D01*
X151434299Y-139289065D01*
X151527121Y-139117393D01*
X151531871Y-139106093D01*
X151573595Y-138971307D01*
X151573801Y-138957205D01*
X151567045Y-138954000D01*
X148439953Y-138954000D01*
X148426422Y-138957973D01*
X148425302Y-138965768D01*
X148462554Y-139092342D01*
X148467147Y-139103710D01*
X148557566Y-139276666D01*
X148567654Y-139292081D01*
X148566559Y-139292798D01*
X148591073Y-139352174D01*
X148578388Y-139422028D01*
X148529951Y-139473935D01*
X148465780Y-139491500D01*
X53333941Y-139491500D01*
X53265820Y-139471498D01*
X53219327Y-139417842D01*
X53209223Y-139347568D01*
X53238717Y-139282988D01*
X53298443Y-139244604D01*
X53316514Y-139240711D01*
X53374305Y-139232640D01*
X53379792Y-139231623D01*
X53791543Y-139136185D01*
X53796929Y-139134681D01*
X54198567Y-139003018D01*
X54203784Y-139001046D01*
X54592126Y-138834202D01*
X54597169Y-138831764D01*
X54969131Y-138631063D01*
X54973935Y-138628188D01*
X55254565Y-138442795D01*
X148426199Y-138442795D01*
X148432955Y-138446000D01*
X149727885Y-138446000D01*
X149743124Y-138441525D01*
X149744329Y-138440135D01*
X149746000Y-138432452D01*
X149746000Y-138427885D01*
X150254000Y-138427885D01*
X150258475Y-138443124D01*
X150259865Y-138444329D01*
X150267548Y-138446000D01*
X151560047Y-138446000D01*
X151573578Y-138442027D01*
X151574698Y-138434232D01*
X151537446Y-138307658D01*
X151532853Y-138296290D01*
X151442434Y-138123334D01*
X151435718Y-138113072D01*
X151313432Y-137960980D01*
X151304848Y-137952214D01*
X151155344Y-137826764D01*
X151145233Y-137819840D01*
X150974202Y-137725816D01*
X150962938Y-137720988D01*
X150776905Y-137661975D01*
X150764916Y-137659427D01*
X150613053Y-137642393D01*
X150606029Y-137642000D01*
X150272115Y-137642000D01*
X150256876Y-137646475D01*
X150255671Y-137647865D01*
X150254000Y-137655548D01*
X150254000Y-138427885D01*
X149746000Y-138427885D01*
X149746000Y-137660115D01*
X149741525Y-137644876D01*
X149740135Y-137643671D01*
X149732452Y-137642000D01*
X149400876Y-137642000D01*
X149394728Y-137642301D01*
X149249639Y-137656527D01*
X149237604Y-137658910D01*
X149050777Y-137715317D01*
X149039435Y-137719992D01*
X148867121Y-137811612D01*
X148856905Y-137818399D01*
X148705665Y-137941747D01*
X148696961Y-137950391D01*
X148572562Y-138100763D01*
X148565703Y-138110931D01*
X148472879Y-138282607D01*
X148468129Y-138293907D01*
X148426405Y-138428693D01*
X148426199Y-138442795D01*
X55254565Y-138442795D01*
X55326563Y-138395231D01*
X55331126Y-138391916D01*
X55661658Y-138128529D01*
X55665873Y-138124852D01*
X55703823Y-138088649D01*
X55711763Y-138074890D01*
X55711713Y-138073843D01*
X55706822Y-138066032D01*
X55306507Y-137665717D01*
X54421210Y-136780419D01*
X53895122Y-136254332D01*
X52141922Y-134501132D01*
X52864408Y-134501132D01*
X52864539Y-134502965D01*
X52868790Y-134509580D01*
X54254331Y-135895121D01*
X54710000Y-136350791D01*
X54780418Y-136421209D01*
X55665716Y-137306506D01*
X56062142Y-137702932D01*
X56075903Y-137710446D01*
X56085263Y-137703989D01*
X56254244Y-137511303D01*
X56257744Y-137506935D01*
X56507073Y-137165645D01*
X56510168Y-137160987D01*
X56718006Y-136815768D01*
X145825302Y-136815768D01*
X145862554Y-136942342D01*
X145867147Y-136953710D01*
X145957566Y-137126666D01*
X145964282Y-137136928D01*
X146086568Y-137289020D01*
X146095152Y-137297786D01*
X146244656Y-137423236D01*
X146254767Y-137430160D01*
X146425798Y-137524184D01*
X146437062Y-137529012D01*
X146623095Y-137588025D01*
X146635084Y-137590573D01*
X146786947Y-137607607D01*
X146793971Y-137608000D01*
X146927885Y-137608000D01*
X146943124Y-137603525D01*
X146944329Y-137602135D01*
X146946000Y-137594452D01*
X146946000Y-137589885D01*
X147454000Y-137589885D01*
X147458475Y-137605124D01*
X147459865Y-137606329D01*
X147467548Y-137608000D01*
X147599124Y-137608000D01*
X147605272Y-137607699D01*
X147750361Y-137593473D01*
X147762396Y-137591090D01*
X147949223Y-137534683D01*
X147960565Y-137530008D01*
X148132879Y-137438388D01*
X148143095Y-137431601D01*
X148294335Y-137308253D01*
X148303039Y-137299609D01*
X148427438Y-137149237D01*
X148434297Y-137139069D01*
X148527121Y-136967393D01*
X148531871Y-136956093D01*
X148573595Y-136821307D01*
X148573676Y-136815768D01*
X151425302Y-136815768D01*
X151462554Y-136942342D01*
X151467147Y-136953710D01*
X151557566Y-137126666D01*
X151564282Y-137136928D01*
X151686568Y-137289020D01*
X151695152Y-137297786D01*
X151844656Y-137423236D01*
X151854767Y-137430160D01*
X152025798Y-137524184D01*
X152037062Y-137529012D01*
X152223095Y-137588025D01*
X152235084Y-137590573D01*
X152386947Y-137607607D01*
X152393971Y-137608000D01*
X152527885Y-137608000D01*
X152543124Y-137603525D01*
X152544329Y-137602135D01*
X152546000Y-137594452D01*
X152546000Y-137589885D01*
X153054000Y-137589885D01*
X153058475Y-137605124D01*
X153059865Y-137606329D01*
X153067548Y-137608000D01*
X153199124Y-137608000D01*
X153205272Y-137607699D01*
X153350361Y-137593473D01*
X153362396Y-137591090D01*
X153549223Y-137534683D01*
X153560565Y-137530008D01*
X153732879Y-137438388D01*
X153743095Y-137431601D01*
X153894335Y-137308253D01*
X153903039Y-137299609D01*
X154027438Y-137149237D01*
X154034297Y-137139069D01*
X154127121Y-136967393D01*
X154131871Y-136956093D01*
X154173595Y-136821307D01*
X154173801Y-136807205D01*
X154167045Y-136804000D01*
X153072115Y-136804000D01*
X153056876Y-136808475D01*
X153055671Y-136809865D01*
X153054000Y-136817548D01*
X153054000Y-137589885D01*
X152546000Y-137589885D01*
X152546000Y-136822115D01*
X152541525Y-136806876D01*
X152540135Y-136805671D01*
X152532452Y-136804000D01*
X151439953Y-136804000D01*
X151426422Y-136807973D01*
X151425302Y-136815768D01*
X148573676Y-136815768D01*
X148573801Y-136807205D01*
X148567045Y-136804000D01*
X147472115Y-136804000D01*
X147456876Y-136808475D01*
X147455671Y-136809865D01*
X147454000Y-136817548D01*
X147454000Y-137589885D01*
X146946000Y-137589885D01*
X146946000Y-136822115D01*
X146941525Y-136806876D01*
X146940135Y-136805671D01*
X146932452Y-136804000D01*
X145839953Y-136804000D01*
X145826422Y-136807973D01*
X145825302Y-136815768D01*
X56718006Y-136815768D01*
X56728160Y-136798903D01*
X56730841Y-136793964D01*
X56915779Y-136413946D01*
X56918014Y-136408780D01*
X56962189Y-136292795D01*
X145826199Y-136292795D01*
X145832955Y-136296000D01*
X146927885Y-136296000D01*
X146943124Y-136291525D01*
X146944329Y-136290135D01*
X146946000Y-136282452D01*
X146946000Y-136277885D01*
X147454000Y-136277885D01*
X147458475Y-136293124D01*
X147459865Y-136294329D01*
X147467548Y-136296000D01*
X148560047Y-136296000D01*
X148570962Y-136292795D01*
X151426199Y-136292795D01*
X151432955Y-136296000D01*
X152527885Y-136296000D01*
X152543124Y-136291525D01*
X152544329Y-136290135D01*
X152546000Y-136282452D01*
X152546000Y-136277885D01*
X153054000Y-136277885D01*
X153058475Y-136293124D01*
X153059865Y-136294329D01*
X153067548Y-136296000D01*
X154160047Y-136296000D01*
X154173578Y-136292027D01*
X154174698Y-136284232D01*
X154137446Y-136157658D01*
X154132853Y-136146290D01*
X154042434Y-135973334D01*
X154035718Y-135963072D01*
X153913432Y-135810980D01*
X153904848Y-135802214D01*
X153755344Y-135676764D01*
X153745233Y-135669840D01*
X153574202Y-135575816D01*
X153562938Y-135570988D01*
X153376905Y-135511975D01*
X153364916Y-135509427D01*
X153213053Y-135492393D01*
X153206029Y-135492000D01*
X153072115Y-135492000D01*
X153056876Y-135496475D01*
X153055671Y-135497865D01*
X153054000Y-135505548D01*
X153054000Y-136277885D01*
X152546000Y-136277885D01*
X152546000Y-135510115D01*
X152541525Y-135494876D01*
X152540135Y-135493671D01*
X152532452Y-135492000D01*
X152400876Y-135492000D01*
X152394728Y-135492301D01*
X152249639Y-135506527D01*
X152237604Y-135508910D01*
X152050777Y-135565317D01*
X152039435Y-135569992D01*
X151867121Y-135661612D01*
X151856905Y-135668399D01*
X151705665Y-135791747D01*
X151696961Y-135800391D01*
X151572562Y-135950763D01*
X151565703Y-135960931D01*
X151472879Y-136132607D01*
X151468129Y-136143907D01*
X151426405Y-136278693D01*
X151426199Y-136292795D01*
X148570962Y-136292795D01*
X148573578Y-136292027D01*
X148574698Y-136284232D01*
X148537446Y-136157658D01*
X148532853Y-136146290D01*
X148442434Y-135973334D01*
X148435718Y-135963072D01*
X148313432Y-135810980D01*
X148304848Y-135802214D01*
X148155344Y-135676764D01*
X148145233Y-135669840D01*
X147974202Y-135575816D01*
X147962938Y-135570988D01*
X147776905Y-135511975D01*
X147764916Y-135509427D01*
X147613053Y-135492393D01*
X147606029Y-135492000D01*
X147472115Y-135492000D01*
X147456876Y-135496475D01*
X147455671Y-135497865D01*
X147454000Y-135505548D01*
X147454000Y-136277885D01*
X146946000Y-136277885D01*
X146946000Y-135510115D01*
X146941525Y-135494876D01*
X146940135Y-135493671D01*
X146932452Y-135492000D01*
X146800876Y-135492000D01*
X146794728Y-135492301D01*
X146649639Y-135506527D01*
X146637604Y-135508910D01*
X146450777Y-135565317D01*
X146439435Y-135569992D01*
X146267121Y-135661612D01*
X146256905Y-135668399D01*
X146105665Y-135791747D01*
X146096961Y-135800391D01*
X145972562Y-135950763D01*
X145965703Y-135960931D01*
X145872879Y-136132607D01*
X145868129Y-136143907D01*
X145826405Y-136278693D01*
X145826199Y-136292795D01*
X56962189Y-136292795D01*
X57068442Y-136013815D01*
X57070201Y-136008496D01*
X57184920Y-135601730D01*
X57186204Y-135596259D01*
X57264315Y-135180883D01*
X57265102Y-135175346D01*
X57306035Y-134754102D01*
X57306308Y-134749665D01*
X57312788Y-134502233D01*
X57312746Y-134497762D01*
X57302669Y-134271489D01*
X57911227Y-134271489D01*
X57913096Y-134300000D01*
X57924263Y-134470380D01*
X57925684Y-134475976D01*
X57925685Y-134475981D01*
X57971905Y-134657969D01*
X57973326Y-134663564D01*
X57975743Y-134668807D01*
X58012265Y-134748029D01*
X58056772Y-134844573D01*
X58171807Y-135007344D01*
X58314578Y-135146425D01*
X58480304Y-135257160D01*
X58485607Y-135259438D01*
X58485610Y-135259440D01*
X58630232Y-135321574D01*
X58663435Y-135335839D01*
X58735516Y-135352149D01*
X58852201Y-135378553D01*
X58852207Y-135378554D01*
X58857838Y-135379828D01*
X58863609Y-135380055D01*
X58863611Y-135380055D01*
X58924556Y-135382449D01*
X59057001Y-135387653D01*
X59156959Y-135373160D01*
X59248535Y-135359883D01*
X59248540Y-135359882D01*
X59254256Y-135359053D01*
X59259728Y-135357195D01*
X59259730Y-135357195D01*
X59437532Y-135296839D01*
X59437534Y-135296838D01*
X59442996Y-135294984D01*
X59616899Y-135197594D01*
X59770143Y-135070143D01*
X59897594Y-134916899D01*
X59994984Y-134742996D01*
X60059053Y-134554256D01*
X60059882Y-134548540D01*
X60059883Y-134548535D01*
X60071053Y-134471489D01*
X240011227Y-134471489D01*
X240013096Y-134500000D01*
X240024263Y-134670380D01*
X240025684Y-134675976D01*
X240025685Y-134675981D01*
X240044112Y-134748535D01*
X240073326Y-134863564D01*
X240075743Y-134868807D01*
X240112265Y-134948029D01*
X240156772Y-135044573D01*
X240160105Y-135049289D01*
X240266909Y-135200413D01*
X240271807Y-135207344D01*
X240275949Y-135211379D01*
X240322945Y-135257160D01*
X240414578Y-135346425D01*
X240580304Y-135457160D01*
X240585607Y-135459438D01*
X240585610Y-135459440D01*
X240758128Y-135533559D01*
X240763435Y-135535839D01*
X240835516Y-135552149D01*
X240952201Y-135578553D01*
X240952207Y-135578554D01*
X240957838Y-135579828D01*
X240963609Y-135580055D01*
X240963611Y-135580055D01*
X241024556Y-135582449D01*
X241157001Y-135587653D01*
X241256959Y-135573160D01*
X241348535Y-135559883D01*
X241348540Y-135559882D01*
X241354256Y-135559053D01*
X241359728Y-135557195D01*
X241359730Y-135557195D01*
X241537532Y-135496839D01*
X241537534Y-135496838D01*
X241542996Y-135494984D01*
X241716899Y-135397594D01*
X241870143Y-135270143D01*
X241997594Y-135116899D01*
X242094984Y-134942996D01*
X242126794Y-134849289D01*
X242157195Y-134759730D01*
X242157195Y-134759728D01*
X242159053Y-134754256D01*
X242159882Y-134748540D01*
X242159883Y-134748535D01*
X242176918Y-134631039D01*
X242187653Y-134557001D01*
X242189146Y-134500000D01*
X242177828Y-134376825D01*
X242688855Y-134376825D01*
X242696600Y-134799410D01*
X242696950Y-134804976D01*
X242742231Y-135225208D01*
X242743078Y-135230746D01*
X242825535Y-135645286D01*
X242826864Y-135650698D01*
X242945852Y-136056289D01*
X242947658Y-136061564D01*
X243102219Y-136454948D01*
X243104501Y-136460072D01*
X243293416Y-136838150D01*
X243296140Y-136843043D01*
X243517917Y-137202833D01*
X243521068Y-137207469D01*
X243773955Y-137546127D01*
X243777488Y-137550444D01*
X243913222Y-137701988D01*
X243926717Y-137710351D01*
X243936128Y-137704662D01*
X244334283Y-137306507D01*
X245219581Y-136421210D01*
X245289999Y-136350792D01*
X245745668Y-135895122D01*
X247127978Y-134512812D01*
X247135592Y-134498868D01*
X247135461Y-134497035D01*
X247131210Y-134490420D01*
X245745669Y-133104879D01*
X244860372Y-132219581D01*
X244334284Y-131693494D01*
X243935561Y-131294771D01*
X243922253Y-131287504D01*
X243912214Y-131294626D01*
X243668223Y-131587994D01*
X243664828Y-131592467D01*
X243424528Y-131940152D01*
X243421549Y-131944902D01*
X243213106Y-132312575D01*
X243210562Y-132317568D01*
X243035629Y-132702312D01*
X243033538Y-132707511D01*
X242893498Y-133106290D01*
X242891877Y-133111659D01*
X242787840Y-133521303D01*
X242786706Y-133526776D01*
X242719496Y-133944054D01*
X242718851Y-133949632D01*
X242689002Y-134371204D01*
X242688855Y-134376825D01*
X242177828Y-134376825D01*
X242170908Y-134301519D01*
X242160822Y-134265754D01*
X242118373Y-134115244D01*
X242118372Y-134115242D01*
X242116805Y-134109685D01*
X242103746Y-134083202D01*
X242031205Y-133936104D01*
X242028650Y-133930923D01*
X241909393Y-133771219D01*
X241763030Y-133635922D01*
X241758147Y-133632841D01*
X241758143Y-133632838D01*
X241599346Y-133532645D01*
X241599341Y-133532643D01*
X241594462Y-133529564D01*
X241409334Y-133455705D01*
X241213847Y-133416820D01*
X241208072Y-133416744D01*
X241208068Y-133416744D01*
X241108588Y-133415442D01*
X241014547Y-133414211D01*
X241008850Y-133415190D01*
X241008849Y-133415190D01*
X240823805Y-133446987D01*
X240818108Y-133447966D01*
X240631111Y-133516953D01*
X240459816Y-133618862D01*
X240309961Y-133750281D01*
X240186565Y-133906809D01*
X240183876Y-133911920D01*
X240183874Y-133911923D01*
X240133401Y-134007857D01*
X240093760Y-134083202D01*
X240061334Y-134187631D01*
X240047402Y-134232500D01*
X240034654Y-134273554D01*
X240011227Y-134471489D01*
X60071053Y-134471489D01*
X60076918Y-134431039D01*
X60087653Y-134357001D01*
X60089146Y-134300000D01*
X60072169Y-134115244D01*
X60071437Y-134107273D01*
X60071436Y-134107270D01*
X60070908Y-134101519D01*
X60067301Y-134088727D01*
X60018373Y-133915244D01*
X60018372Y-133915242D01*
X60016805Y-133909685D01*
X60013150Y-133902272D01*
X59931205Y-133736104D01*
X59928650Y-133730923D01*
X59901989Y-133695219D01*
X59868594Y-133650499D01*
X59809393Y-133571219D01*
X59663030Y-133435922D01*
X59658147Y-133432841D01*
X59658143Y-133432838D01*
X59499346Y-133332645D01*
X59499341Y-133332643D01*
X59494462Y-133329564D01*
X59309334Y-133255705D01*
X59113847Y-133216820D01*
X59108072Y-133216744D01*
X59108068Y-133216744D01*
X59008588Y-133215442D01*
X58914547Y-133214211D01*
X58908850Y-133215190D01*
X58908849Y-133215190D01*
X58723805Y-133246987D01*
X58718108Y-133247966D01*
X58531111Y-133316953D01*
X58526149Y-133319905D01*
X58367634Y-133414211D01*
X58359816Y-133418862D01*
X58209961Y-133550281D01*
X58086565Y-133706809D01*
X57993760Y-133883202D01*
X57934654Y-134073554D01*
X57911227Y-134271489D01*
X57302669Y-134271489D01*
X57293917Y-134074973D01*
X57293419Y-134069386D01*
X57237155Y-133650499D01*
X57236162Y-133644976D01*
X57142883Y-133232748D01*
X57141410Y-133227361D01*
X57011847Y-132825025D01*
X57009910Y-132819815D01*
X56845098Y-132430599D01*
X56842683Y-132425536D01*
X56643936Y-132052535D01*
X56641085Y-132047713D01*
X56409974Y-131693865D01*
X56406692Y-131689297D01*
X56145030Y-131357380D01*
X56141382Y-131353155D01*
X56088103Y-131296715D01*
X56074389Y-131288705D01*
X56073517Y-131288742D01*
X56065438Y-131293772D01*
X55665717Y-131693493D01*
X54780419Y-132578790D01*
X54254332Y-133104878D01*
X52872022Y-134487188D01*
X52864408Y-134501132D01*
X52141922Y-134501132D01*
X50745669Y-133104879D01*
X49860372Y-132219581D01*
X49334284Y-131693494D01*
X48935561Y-131294771D01*
X48922253Y-131287504D01*
X48912214Y-131294626D01*
X48668223Y-131587994D01*
X48664828Y-131592467D01*
X48424528Y-131940152D01*
X48421549Y-131944902D01*
X48213106Y-132312575D01*
X48210562Y-132317568D01*
X48035629Y-132702312D01*
X48033538Y-132707511D01*
X47893498Y-133106290D01*
X47891877Y-133111659D01*
X47787840Y-133521303D01*
X47786706Y-133526776D01*
X47758897Y-133699433D01*
X47728317Y-133763507D01*
X47667951Y-133800876D01*
X47596964Y-133799676D01*
X47537895Y-133760289D01*
X47509497Y-133695219D01*
X47508500Y-133679397D01*
X47508500Y-130924456D01*
X49288031Y-130924456D01*
X49294139Y-130934929D01*
X49693493Y-131334283D01*
X50219580Y-131860371D01*
X51104878Y-132745668D01*
X52487188Y-134127978D01*
X52501132Y-134135592D01*
X52502965Y-134135461D01*
X52509580Y-134131210D01*
X53895121Y-132745669D01*
X54780419Y-131860372D01*
X55306506Y-131334284D01*
X55702754Y-130938036D01*
X55710169Y-130924456D01*
X244288031Y-130924456D01*
X244294139Y-130934929D01*
X244693493Y-131334283D01*
X245219580Y-131860371D01*
X246104878Y-132745668D01*
X247487188Y-134127978D01*
X247501132Y-134135592D01*
X247502965Y-134135461D01*
X247509580Y-134131210D01*
X248895121Y-132745669D01*
X249780419Y-131860372D01*
X250306506Y-131334284D01*
X250702754Y-130938036D01*
X250710316Y-130924187D01*
X250703987Y-130914962D01*
X250530928Y-130761582D01*
X250526561Y-130758046D01*
X250186600Y-130506948D01*
X250181947Y-130503821D01*
X249820995Y-130283926D01*
X249816094Y-130281232D01*
X249437027Y-130094297D01*
X249431904Y-130092048D01*
X249037707Y-129939545D01*
X249032417Y-129937765D01*
X248626218Y-129820904D01*
X248620794Y-129819602D01*
X248205822Y-129739316D01*
X248200293Y-129738500D01*
X247779828Y-129695420D01*
X247774247Y-129695098D01*
X247351635Y-129689566D01*
X247346024Y-129689742D01*
X246924593Y-129721800D01*
X246919036Y-129722472D01*
X246502128Y-129791864D01*
X246496631Y-129793032D01*
X246087547Y-129899209D01*
X246082181Y-129900861D01*
X245684153Y-130042983D01*
X245678965Y-130045100D01*
X245295133Y-130222050D01*
X245290164Y-130224614D01*
X244923581Y-130434984D01*
X244918848Y-130437987D01*
X244572420Y-130680109D01*
X244567979Y-130683517D01*
X244296476Y-130911739D01*
X244288031Y-130924456D01*
X55710169Y-130924456D01*
X55710316Y-130924187D01*
X55703987Y-130914962D01*
X55530928Y-130761582D01*
X55526561Y-130758046D01*
X55186600Y-130506948D01*
X55181947Y-130503821D01*
X54820995Y-130283926D01*
X54816094Y-130281232D01*
X54437027Y-130094297D01*
X54431904Y-130092048D01*
X54037707Y-129939545D01*
X54032417Y-129937765D01*
X53626218Y-129820904D01*
X53620794Y-129819602D01*
X53205822Y-129739316D01*
X53200293Y-129738500D01*
X52779828Y-129695420D01*
X52774247Y-129695098D01*
X52351635Y-129689566D01*
X52346024Y-129689742D01*
X51924593Y-129721800D01*
X51919036Y-129722472D01*
X51502128Y-129791864D01*
X51496631Y-129793032D01*
X51087547Y-129899209D01*
X51082181Y-129900861D01*
X50684153Y-130042983D01*
X50678965Y-130045100D01*
X50295133Y-130222050D01*
X50290164Y-130224614D01*
X49923581Y-130434984D01*
X49918848Y-130437987D01*
X49572420Y-130680109D01*
X49567979Y-130683517D01*
X49296476Y-130911739D01*
X49288031Y-130924456D01*
X47508500Y-130924456D01*
X47508500Y-122800000D01*
X147586496Y-122800000D01*
X147587186Y-122806565D01*
X147602366Y-122950991D01*
X147606458Y-122989928D01*
X147665473Y-123171556D01*
X147760960Y-123336944D01*
X147888747Y-123478866D01*
X148043248Y-123591118D01*
X148049276Y-123593802D01*
X148049278Y-123593803D01*
X148211681Y-123666109D01*
X148217712Y-123668794D01*
X148311112Y-123688647D01*
X148398056Y-123707128D01*
X148398061Y-123707128D01*
X148404513Y-123708500D01*
X148595487Y-123708500D01*
X148601939Y-123707128D01*
X148601944Y-123707128D01*
X148688888Y-123688647D01*
X148782288Y-123668794D01*
X148788319Y-123666109D01*
X148950722Y-123593803D01*
X148950724Y-123593802D01*
X148956752Y-123591118D01*
X149111253Y-123478866D01*
X149239040Y-123336944D01*
X149334527Y-123171556D01*
X149342973Y-123145562D01*
X149383044Y-123086959D01*
X149448441Y-123059321D01*
X149462805Y-123058500D01*
X153117944Y-123058500D01*
X153129800Y-123059059D01*
X153129803Y-123059059D01*
X153137537Y-123060788D01*
X153208369Y-123058562D01*
X153212327Y-123058500D01*
X153241432Y-123058500D01*
X153245832Y-123057944D01*
X153257664Y-123057012D01*
X153303831Y-123055562D01*
X153324421Y-123049580D01*
X153343782Y-123045570D01*
X153350770Y-123044688D01*
X153357204Y-123043875D01*
X153357205Y-123043875D01*
X153365064Y-123042882D01*
X153372429Y-123039966D01*
X153372433Y-123039965D01*
X153408021Y-123025874D01*
X153419231Y-123022035D01*
X153463600Y-123009145D01*
X153482065Y-122998225D01*
X153499805Y-122989534D01*
X153519756Y-122981635D01*
X153557129Y-122954482D01*
X153567048Y-122947967D01*
X153599977Y-122928493D01*
X153599981Y-122928490D01*
X153606807Y-122924453D01*
X153621971Y-122909289D01*
X153637005Y-122896448D01*
X153647943Y-122888501D01*
X153654357Y-122883841D01*
X153683798Y-122848253D01*
X153691787Y-122839473D01*
X154385854Y-122145405D01*
X154448167Y-122111380D01*
X154474950Y-122108500D01*
X154495487Y-122108500D01*
X154501939Y-122107128D01*
X154501944Y-122107128D01*
X154588888Y-122088647D01*
X154682288Y-122068794D01*
X154688319Y-122066109D01*
X154850722Y-121993803D01*
X154850724Y-121993802D01*
X154856752Y-121991118D01*
X155011253Y-121878866D01*
X155061534Y-121823024D01*
X155134621Y-121741852D01*
X155134622Y-121741851D01*
X155139040Y-121736944D01*
X155234527Y-121571556D01*
X155293542Y-121389928D01*
X155313504Y-121200000D01*
X155293542Y-121010072D01*
X155234527Y-120828444D01*
X155139040Y-120663056D01*
X155075816Y-120592838D01*
X155015675Y-120526045D01*
X155015674Y-120526044D01*
X155011253Y-120521134D01*
X154856752Y-120408882D01*
X154850724Y-120406198D01*
X154850722Y-120406197D01*
X154688319Y-120333891D01*
X154688318Y-120333891D01*
X154682288Y-120331206D01*
X154588887Y-120311353D01*
X154501944Y-120292872D01*
X154501939Y-120292872D01*
X154495487Y-120291500D01*
X154304513Y-120291500D01*
X154298061Y-120292872D01*
X154298056Y-120292872D01*
X154211113Y-120311353D01*
X154117712Y-120331206D01*
X154111682Y-120333891D01*
X154111681Y-120333891D01*
X153949278Y-120406197D01*
X153949276Y-120406198D01*
X153943248Y-120408882D01*
X153788747Y-120521134D01*
X153784326Y-120526044D01*
X153784325Y-120526045D01*
X153724185Y-120592838D01*
X153660960Y-120663056D01*
X153565473Y-120828444D01*
X153506458Y-121010072D01*
X153505768Y-121016635D01*
X153505768Y-121016636D01*
X153493245Y-121135786D01*
X153466232Y-121201442D01*
X153457030Y-121211710D01*
X152964145Y-121704595D01*
X152901833Y-121738621D01*
X152875050Y-121741500D01*
X148982056Y-121741500D01*
X148970200Y-121740941D01*
X148970197Y-121740941D01*
X148962463Y-121739212D01*
X148907446Y-121740941D01*
X148891631Y-121741438D01*
X148887673Y-121741500D01*
X148858568Y-121741500D01*
X148854168Y-121742056D01*
X148842336Y-121742988D01*
X148796169Y-121744438D01*
X148775579Y-121750420D01*
X148756218Y-121754430D01*
X148749230Y-121755312D01*
X148742796Y-121756125D01*
X148742795Y-121756125D01*
X148734936Y-121757118D01*
X148727571Y-121760034D01*
X148727567Y-121760035D01*
X148691982Y-121774124D01*
X148680752Y-121777969D01*
X148636399Y-121790855D01*
X148629575Y-121794891D01*
X148617943Y-121801770D01*
X148600187Y-121810469D01*
X148580244Y-121818365D01*
X148554224Y-121837270D01*
X148542868Y-121845520D01*
X148532949Y-121852035D01*
X148495891Y-121873952D01*
X148431750Y-121891500D01*
X148404513Y-121891500D01*
X148398061Y-121892872D01*
X148398056Y-121892872D01*
X148311113Y-121911353D01*
X148217712Y-121931206D01*
X148211682Y-121933891D01*
X148211681Y-121933891D01*
X148049278Y-122006197D01*
X148049276Y-122006198D01*
X148043248Y-122008882D01*
X147888747Y-122121134D01*
X147760960Y-122263056D01*
X147665473Y-122428444D01*
X147606458Y-122610072D01*
X147586496Y-122800000D01*
X47508500Y-122800000D01*
X47508500Y-112250000D01*
X72236835Y-112250000D01*
X72255465Y-112486711D01*
X72310895Y-112717594D01*
X72312788Y-112722165D01*
X72312789Y-112722167D01*
X72399770Y-112932158D01*
X72401760Y-112936963D01*
X72404346Y-112941183D01*
X72523241Y-113135202D01*
X72523245Y-113135208D01*
X72525824Y-113139416D01*
X72680031Y-113319969D01*
X72860584Y-113474176D01*
X72864792Y-113476755D01*
X72864798Y-113476759D01*
X73058817Y-113595654D01*
X73063037Y-113598240D01*
X73067607Y-113600133D01*
X73067611Y-113600135D01*
X73277833Y-113687211D01*
X73282406Y-113689105D01*
X73330349Y-113700615D01*
X73508476Y-113743380D01*
X73508482Y-113743381D01*
X73513289Y-113744535D01*
X73750000Y-113763165D01*
X73986711Y-113744535D01*
X73991518Y-113743381D01*
X73991524Y-113743380D01*
X74169651Y-113700615D01*
X74217594Y-113689105D01*
X74222167Y-113687211D01*
X74432389Y-113600135D01*
X74432393Y-113600133D01*
X74436963Y-113598240D01*
X74441183Y-113595654D01*
X74635202Y-113476759D01*
X74635208Y-113476755D01*
X74639416Y-113474176D01*
X74819969Y-113319969D01*
X74974176Y-113139416D01*
X74976758Y-113135202D01*
X74976765Y-113135193D01*
X75078814Y-112968665D01*
X75131461Y-112921034D01*
X75186246Y-112908500D01*
X78615500Y-112908500D01*
X78683621Y-112928502D01*
X78730114Y-112982158D01*
X78741500Y-113034500D01*
X78741500Y-113298134D01*
X78748255Y-113360316D01*
X78799385Y-113496705D01*
X78886739Y-113613261D01*
X79003295Y-113700615D01*
X79139684Y-113751745D01*
X79201866Y-113758500D01*
X81298134Y-113758500D01*
X81360316Y-113751745D01*
X81496705Y-113700615D01*
X81613261Y-113613261D01*
X81700615Y-113496705D01*
X81751745Y-113360316D01*
X81758500Y-113298134D01*
X81758500Y-111201866D01*
X81751745Y-111139684D01*
X81700615Y-111003295D01*
X81613261Y-110886739D01*
X81496705Y-110799385D01*
X81360316Y-110748255D01*
X81298134Y-110741500D01*
X79201866Y-110741500D01*
X79139684Y-110748255D01*
X79003295Y-110799385D01*
X78886739Y-110886739D01*
X78799385Y-111003295D01*
X78748255Y-111139684D01*
X78741500Y-111201866D01*
X78741500Y-111465500D01*
X78721498Y-111533621D01*
X78667842Y-111580114D01*
X78615500Y-111591500D01*
X75186246Y-111591500D01*
X75118125Y-111571498D01*
X75078814Y-111531335D01*
X74976765Y-111364807D01*
X74976758Y-111364797D01*
X74974176Y-111360584D01*
X74819969Y-111180031D01*
X74639416Y-111025824D01*
X74635208Y-111023245D01*
X74635202Y-111023241D01*
X74441183Y-110904346D01*
X74436963Y-110901760D01*
X74432393Y-110899867D01*
X74432389Y-110899865D01*
X74222167Y-110812789D01*
X74222165Y-110812788D01*
X74217594Y-110810895D01*
X74137391Y-110791640D01*
X73991524Y-110756620D01*
X73991518Y-110756619D01*
X73986711Y-110755465D01*
X73750000Y-110736835D01*
X73513289Y-110755465D01*
X73508482Y-110756619D01*
X73508476Y-110756620D01*
X73362609Y-110791640D01*
X73282406Y-110810895D01*
X73277835Y-110812788D01*
X73277833Y-110812789D01*
X73067611Y-110899865D01*
X73067607Y-110899867D01*
X73063037Y-110901760D01*
X73058817Y-110904346D01*
X72864798Y-111023241D01*
X72864792Y-111023245D01*
X72860584Y-111025824D01*
X72680031Y-111180031D01*
X72525824Y-111360584D01*
X72523245Y-111364792D01*
X72523241Y-111364798D01*
X72461531Y-111465500D01*
X72401760Y-111563037D01*
X72399867Y-111567607D01*
X72399865Y-111567611D01*
X72312789Y-111777833D01*
X72310895Y-111782406D01*
X72255465Y-112013289D01*
X72236835Y-112250000D01*
X47508500Y-112250000D01*
X47508500Y-102250000D01*
X62236835Y-102250000D01*
X62255465Y-102486711D01*
X62256619Y-102491518D01*
X62256620Y-102491524D01*
X62265401Y-102528099D01*
X62310895Y-102717594D01*
X62312788Y-102722165D01*
X62312789Y-102722167D01*
X62399770Y-102932158D01*
X62401760Y-102936963D01*
X62404346Y-102941183D01*
X62523241Y-103135202D01*
X62523245Y-103135208D01*
X62525824Y-103139416D01*
X62680031Y-103319969D01*
X62860584Y-103474176D01*
X62864792Y-103476755D01*
X62864798Y-103476759D01*
X63008122Y-103564588D01*
X63063037Y-103598240D01*
X63067607Y-103600133D01*
X63067611Y-103600135D01*
X63277833Y-103687211D01*
X63282406Y-103689105D01*
X63330349Y-103700615D01*
X63508476Y-103743380D01*
X63508482Y-103743381D01*
X63513289Y-103744535D01*
X63750000Y-103763165D01*
X63986711Y-103744535D01*
X63991518Y-103743381D01*
X63991524Y-103743380D01*
X64169651Y-103700615D01*
X64217594Y-103689105D01*
X64222167Y-103687211D01*
X64432389Y-103600135D01*
X64432393Y-103600133D01*
X64436963Y-103598240D01*
X64491878Y-103564588D01*
X64635202Y-103476759D01*
X64635208Y-103476755D01*
X64639416Y-103474176D01*
X64819969Y-103319969D01*
X64974176Y-103139416D01*
X64976758Y-103135202D01*
X64976765Y-103135193D01*
X65078814Y-102968665D01*
X65131461Y-102921034D01*
X65186246Y-102908500D01*
X68615500Y-102908500D01*
X68683621Y-102928502D01*
X68730114Y-102982158D01*
X68741500Y-103034500D01*
X68741500Y-103298134D01*
X68748255Y-103360316D01*
X68799385Y-103496705D01*
X68886739Y-103613261D01*
X69003295Y-103700615D01*
X69139684Y-103751745D01*
X69201866Y-103758500D01*
X71298134Y-103758500D01*
X71360316Y-103751745D01*
X71496705Y-103700615D01*
X71613261Y-103613261D01*
X71700615Y-103496705D01*
X71751745Y-103360316D01*
X71758500Y-103298134D01*
X71758500Y-101201866D01*
X71751745Y-101139684D01*
X71700615Y-101003295D01*
X71613261Y-100886739D01*
X71496705Y-100799385D01*
X71360316Y-100748255D01*
X71298134Y-100741500D01*
X69201866Y-100741500D01*
X69139684Y-100748255D01*
X69003295Y-100799385D01*
X68886739Y-100886739D01*
X68799385Y-101003295D01*
X68748255Y-101139684D01*
X68741500Y-101201866D01*
X68741500Y-101465500D01*
X68721498Y-101533621D01*
X68667842Y-101580114D01*
X68615500Y-101591500D01*
X65186246Y-101591500D01*
X65118125Y-101571498D01*
X65078814Y-101531335D01*
X64976765Y-101364807D01*
X64976758Y-101364797D01*
X64974176Y-101360584D01*
X64830473Y-101192330D01*
X64823177Y-101183787D01*
X64819969Y-101180031D01*
X64639416Y-101025824D01*
X64635208Y-101023245D01*
X64635202Y-101023241D01*
X64441183Y-100904346D01*
X64436963Y-100901760D01*
X64432393Y-100899867D01*
X64432389Y-100899865D01*
X64222167Y-100812789D01*
X64222165Y-100812788D01*
X64217594Y-100810895D01*
X64119051Y-100787237D01*
X63991524Y-100756620D01*
X63991518Y-100756619D01*
X63986711Y-100755465D01*
X63750000Y-100736835D01*
X63513289Y-100755465D01*
X63508482Y-100756619D01*
X63508476Y-100756620D01*
X63380949Y-100787237D01*
X63282406Y-100810895D01*
X63277835Y-100812788D01*
X63277833Y-100812789D01*
X63067611Y-100899865D01*
X63067607Y-100899867D01*
X63063037Y-100901760D01*
X63058817Y-100904346D01*
X62864798Y-101023241D01*
X62864792Y-101023245D01*
X62860584Y-101025824D01*
X62680031Y-101180031D01*
X62676823Y-101183787D01*
X62669527Y-101192330D01*
X62525824Y-101360584D01*
X62523245Y-101364792D01*
X62523241Y-101364798D01*
X62426442Y-101522760D01*
X62401760Y-101563037D01*
X62399867Y-101567607D01*
X62399865Y-101567611D01*
X62330643Y-101734729D01*
X62310895Y-101782406D01*
X62301597Y-101821134D01*
X62259405Y-101996878D01*
X62255465Y-102013289D01*
X62236835Y-102250000D01*
X47508500Y-102250000D01*
X47508500Y-97750000D01*
X62236835Y-97750000D01*
X62255465Y-97986711D01*
X62256619Y-97991518D01*
X62256620Y-97991524D01*
X62275864Y-98071680D01*
X62310895Y-98217594D01*
X62312788Y-98222165D01*
X62312789Y-98222167D01*
X62374668Y-98371556D01*
X62401760Y-98436963D01*
X62404346Y-98441183D01*
X62523241Y-98635202D01*
X62523245Y-98635208D01*
X62525824Y-98639416D01*
X62680031Y-98819969D01*
X62860584Y-98974176D01*
X62864792Y-98976755D01*
X62864798Y-98976759D01*
X62956688Y-99033069D01*
X63063037Y-99098240D01*
X63067607Y-99100133D01*
X63067611Y-99100135D01*
X63277833Y-99187211D01*
X63282406Y-99189105D01*
X63362609Y-99208360D01*
X63508476Y-99243380D01*
X63508482Y-99243381D01*
X63513289Y-99244535D01*
X63750000Y-99263165D01*
X63986711Y-99244535D01*
X63991518Y-99243381D01*
X63991524Y-99243380D01*
X64137391Y-99208360D01*
X64217594Y-99189105D01*
X64222167Y-99187211D01*
X64432389Y-99100135D01*
X64432393Y-99100133D01*
X64436963Y-99098240D01*
X64543312Y-99033069D01*
X64635202Y-98976759D01*
X64635208Y-98976755D01*
X64639416Y-98974176D01*
X64819969Y-98819969D01*
X64974176Y-98639416D01*
X64976758Y-98635202D01*
X64976765Y-98635193D01*
X65078814Y-98468665D01*
X65131461Y-98421034D01*
X65186246Y-98408500D01*
X68813754Y-98408500D01*
X68881875Y-98428502D01*
X68921186Y-98468665D01*
X69023235Y-98635193D01*
X69023242Y-98635202D01*
X69025824Y-98639416D01*
X69180031Y-98819969D01*
X69360584Y-98974176D01*
X69364792Y-98976755D01*
X69364798Y-98976759D01*
X69456688Y-99033069D01*
X69563037Y-99098240D01*
X69567607Y-99100133D01*
X69567611Y-99100135D01*
X69777833Y-99187211D01*
X69782406Y-99189105D01*
X69862609Y-99208360D01*
X70008476Y-99243380D01*
X70008482Y-99243381D01*
X70013289Y-99244535D01*
X70250000Y-99263165D01*
X70486711Y-99244535D01*
X70491518Y-99243381D01*
X70491524Y-99243380D01*
X70681440Y-99197785D01*
X70752348Y-99201332D01*
X70799949Y-99231209D01*
X73054595Y-101485854D01*
X73088620Y-101548166D01*
X73091500Y-101574949D01*
X73091500Y-106313754D01*
X73071498Y-106381875D01*
X73031335Y-106421186D01*
X72864807Y-106523235D01*
X72864797Y-106523242D01*
X72860584Y-106525824D01*
X72680031Y-106680031D01*
X72525824Y-106860584D01*
X72523245Y-106864792D01*
X72523241Y-106864798D01*
X72450182Y-106984020D01*
X72401760Y-107063037D01*
X72399867Y-107067607D01*
X72399865Y-107067611D01*
X72312789Y-107277833D01*
X72310895Y-107282406D01*
X72299509Y-107329834D01*
X72262439Y-107484242D01*
X72255465Y-107513289D01*
X72236835Y-107750000D01*
X72255465Y-107986711D01*
X72256619Y-107991518D01*
X72256620Y-107991524D01*
X72291640Y-108137391D01*
X72310895Y-108217594D01*
X72312788Y-108222165D01*
X72312789Y-108222167D01*
X72382278Y-108389928D01*
X72401760Y-108436963D01*
X72404346Y-108441183D01*
X72523241Y-108635202D01*
X72523245Y-108635208D01*
X72525824Y-108639416D01*
X72680031Y-108819969D01*
X72860584Y-108974176D01*
X72864792Y-108976755D01*
X72864798Y-108976759D01*
X73048851Y-109089547D01*
X73063037Y-109098240D01*
X73067607Y-109100133D01*
X73067611Y-109100135D01*
X73277833Y-109187211D01*
X73282406Y-109189105D01*
X73362609Y-109208360D01*
X73508476Y-109243380D01*
X73508482Y-109243381D01*
X73513289Y-109244535D01*
X73750000Y-109263165D01*
X73986711Y-109244535D01*
X73991518Y-109243381D01*
X73991524Y-109243380D01*
X74137391Y-109208360D01*
X74217594Y-109189105D01*
X74222167Y-109187211D01*
X74432389Y-109100135D01*
X74432393Y-109100133D01*
X74436963Y-109098240D01*
X74451149Y-109089547D01*
X74635202Y-108976759D01*
X74635208Y-108976755D01*
X74639416Y-108974176D01*
X74819969Y-108819969D01*
X74974176Y-108639416D01*
X74976758Y-108635202D01*
X74976765Y-108635193D01*
X75078814Y-108468665D01*
X75131461Y-108421034D01*
X75186246Y-108408500D01*
X78813754Y-108408500D01*
X78881875Y-108428502D01*
X78921186Y-108468665D01*
X79023235Y-108635193D01*
X79023242Y-108635202D01*
X79025824Y-108639416D01*
X79180031Y-108819969D01*
X79360584Y-108974176D01*
X79364792Y-108976755D01*
X79364798Y-108976759D01*
X79548851Y-109089547D01*
X79563037Y-109098240D01*
X79567607Y-109100133D01*
X79567611Y-109100135D01*
X79777833Y-109187211D01*
X79782406Y-109189105D01*
X79862609Y-109208360D01*
X80008476Y-109243380D01*
X80008482Y-109243381D01*
X80013289Y-109244535D01*
X80250000Y-109263165D01*
X80486711Y-109244535D01*
X80491518Y-109243381D01*
X80491524Y-109243380D01*
X80637391Y-109208360D01*
X80717594Y-109189105D01*
X80722167Y-109187211D01*
X80932389Y-109100135D01*
X80932393Y-109100133D01*
X80936963Y-109098240D01*
X80951149Y-109089547D01*
X81135202Y-108976759D01*
X81135208Y-108976755D01*
X81139416Y-108974176D01*
X81319969Y-108819969D01*
X81474176Y-108639416D01*
X81476755Y-108635208D01*
X81476759Y-108635202D01*
X81595654Y-108441183D01*
X81598240Y-108436963D01*
X81617723Y-108389928D01*
X81687211Y-108222167D01*
X81687212Y-108222165D01*
X81689105Y-108217594D01*
X81708360Y-108137391D01*
X81743380Y-107991524D01*
X81743381Y-107991518D01*
X81744535Y-107986711D01*
X81763165Y-107750000D01*
X81744535Y-107513289D01*
X81737562Y-107484242D01*
X81700491Y-107329834D01*
X81689105Y-107282406D01*
X81687211Y-107277833D01*
X81600135Y-107067611D01*
X81600133Y-107067607D01*
X81598240Y-107063037D01*
X81549818Y-106984020D01*
X81476759Y-106864798D01*
X81476755Y-106864792D01*
X81474176Y-106860584D01*
X81319969Y-106680031D01*
X81139416Y-106525824D01*
X81135203Y-106523242D01*
X81135193Y-106523235D01*
X80968665Y-106421186D01*
X80921034Y-106368539D01*
X80908500Y-106313754D01*
X80908500Y-102250000D01*
X82236835Y-102250000D01*
X82255465Y-102486711D01*
X82256619Y-102491518D01*
X82256620Y-102491524D01*
X82265401Y-102528099D01*
X82310895Y-102717594D01*
X82312788Y-102722165D01*
X82312789Y-102722167D01*
X82399770Y-102932158D01*
X82401760Y-102936963D01*
X82404346Y-102941183D01*
X82523241Y-103135202D01*
X82523245Y-103135208D01*
X82525824Y-103139416D01*
X82680031Y-103319969D01*
X82860584Y-103474176D01*
X82864792Y-103476755D01*
X82864798Y-103476759D01*
X83008122Y-103564588D01*
X83063037Y-103598240D01*
X83067607Y-103600133D01*
X83067611Y-103600135D01*
X83277833Y-103687211D01*
X83282406Y-103689105D01*
X83330349Y-103700615D01*
X83508476Y-103743380D01*
X83508482Y-103743381D01*
X83513289Y-103744535D01*
X83750000Y-103763165D01*
X83986711Y-103744535D01*
X83991518Y-103743381D01*
X83991524Y-103743380D01*
X84169651Y-103700615D01*
X84217594Y-103689105D01*
X84222167Y-103687211D01*
X84432389Y-103600135D01*
X84432393Y-103600133D01*
X84436963Y-103598240D01*
X84491878Y-103564588D01*
X84635202Y-103476759D01*
X84635208Y-103476755D01*
X84639416Y-103474176D01*
X84819969Y-103319969D01*
X84974176Y-103139416D01*
X84976758Y-103135202D01*
X84976765Y-103135193D01*
X85078814Y-102968665D01*
X85131461Y-102921034D01*
X85186246Y-102908500D01*
X88615500Y-102908500D01*
X88683621Y-102928502D01*
X88730114Y-102982158D01*
X88741500Y-103034500D01*
X88741500Y-103298134D01*
X88748255Y-103360316D01*
X88799385Y-103496705D01*
X88886739Y-103613261D01*
X89003295Y-103700615D01*
X89139684Y-103751745D01*
X89201866Y-103758500D01*
X91298134Y-103758500D01*
X91360316Y-103751745D01*
X91496705Y-103700615D01*
X91613261Y-103613261D01*
X91700615Y-103496705D01*
X91751745Y-103360316D01*
X91758500Y-103298134D01*
X91758500Y-101201866D01*
X91751745Y-101139684D01*
X91700615Y-101003295D01*
X91613261Y-100886739D01*
X91496705Y-100799385D01*
X91360316Y-100748255D01*
X91298134Y-100741500D01*
X89201866Y-100741500D01*
X89139684Y-100748255D01*
X89003295Y-100799385D01*
X88886739Y-100886739D01*
X88799385Y-101003295D01*
X88748255Y-101139684D01*
X88741500Y-101201866D01*
X88741500Y-101465500D01*
X88721498Y-101533621D01*
X88667842Y-101580114D01*
X88615500Y-101591500D01*
X85186246Y-101591500D01*
X85118125Y-101571498D01*
X85078814Y-101531335D01*
X84976765Y-101364807D01*
X84976758Y-101364797D01*
X84974176Y-101360584D01*
X84830473Y-101192330D01*
X84823177Y-101183787D01*
X84819969Y-101180031D01*
X84639416Y-101025824D01*
X84635208Y-101023245D01*
X84635202Y-101023241D01*
X84441183Y-100904346D01*
X84436963Y-100901760D01*
X84432393Y-100899867D01*
X84432389Y-100899865D01*
X84222167Y-100812789D01*
X84222165Y-100812788D01*
X84217594Y-100810895D01*
X84119051Y-100787237D01*
X83991524Y-100756620D01*
X83991518Y-100756619D01*
X83986711Y-100755465D01*
X83750000Y-100736835D01*
X83513289Y-100755465D01*
X83508482Y-100756619D01*
X83508476Y-100756620D01*
X83380949Y-100787237D01*
X83282406Y-100810895D01*
X83277835Y-100812788D01*
X83277833Y-100812789D01*
X83067611Y-100899865D01*
X83067607Y-100899867D01*
X83063037Y-100901760D01*
X83058817Y-100904346D01*
X82864798Y-101023241D01*
X82864792Y-101023245D01*
X82860584Y-101025824D01*
X82680031Y-101180031D01*
X82676823Y-101183787D01*
X82669527Y-101192330D01*
X82525824Y-101360584D01*
X82523245Y-101364792D01*
X82523241Y-101364798D01*
X82426442Y-101522760D01*
X82401760Y-101563037D01*
X82399867Y-101567607D01*
X82399865Y-101567611D01*
X82330643Y-101734729D01*
X82310895Y-101782406D01*
X82301597Y-101821134D01*
X82259405Y-101996878D01*
X82255465Y-102013289D01*
X82236835Y-102250000D01*
X80908500Y-102250000D01*
X80908500Y-101574950D01*
X80928502Y-101506829D01*
X80945405Y-101485855D01*
X83200051Y-99231209D01*
X83262363Y-99197183D01*
X83318560Y-99197785D01*
X83508476Y-99243380D01*
X83508482Y-99243381D01*
X83513289Y-99244535D01*
X83750000Y-99263165D01*
X83986711Y-99244535D01*
X83991518Y-99243381D01*
X83991524Y-99243380D01*
X84137391Y-99208360D01*
X84217594Y-99189105D01*
X84222167Y-99187211D01*
X84432389Y-99100135D01*
X84432393Y-99100133D01*
X84436963Y-99098240D01*
X84543312Y-99033069D01*
X84635202Y-98976759D01*
X84635208Y-98976755D01*
X84639416Y-98974176D01*
X84819969Y-98819969D01*
X84974176Y-98639416D01*
X84976758Y-98635202D01*
X84976765Y-98635193D01*
X85078814Y-98468665D01*
X85131461Y-98421034D01*
X85186246Y-98408500D01*
X88813754Y-98408500D01*
X88881875Y-98428502D01*
X88921186Y-98468665D01*
X89023235Y-98635193D01*
X89023242Y-98635202D01*
X89025824Y-98639416D01*
X89180031Y-98819969D01*
X89360584Y-98974176D01*
X89364792Y-98976755D01*
X89364798Y-98976759D01*
X89456688Y-99033069D01*
X89563037Y-99098240D01*
X89567607Y-99100133D01*
X89567611Y-99100135D01*
X89777833Y-99187211D01*
X89782406Y-99189105D01*
X89862609Y-99208360D01*
X90008476Y-99243380D01*
X90008482Y-99243381D01*
X90013289Y-99244535D01*
X90250000Y-99263165D01*
X90486711Y-99244535D01*
X90491518Y-99243381D01*
X90491524Y-99243380D01*
X90681440Y-99197785D01*
X90752348Y-99201332D01*
X90799949Y-99231209D01*
X97141345Y-105572605D01*
X97149335Y-105581385D01*
X97153584Y-105588080D01*
X97159362Y-105593506D01*
X97159363Y-105593507D01*
X97205257Y-105636604D01*
X97208099Y-105639359D01*
X97228667Y-105659927D01*
X97232170Y-105662644D01*
X97241195Y-105670352D01*
X97274867Y-105701972D01*
X97281818Y-105705793D01*
X97281819Y-105705794D01*
X97293658Y-105712303D01*
X97310182Y-105723157D01*
X97320271Y-105730982D01*
X97327132Y-105736304D01*
X97334404Y-105739451D01*
X97334406Y-105739452D01*
X97369535Y-105754654D01*
X97380195Y-105759876D01*
X97390016Y-105765275D01*
X97420663Y-105782124D01*
X97441441Y-105787459D01*
X97460131Y-105793858D01*
X97479824Y-105802380D01*
X97523596Y-105809313D01*
X97525448Y-105809606D01*
X97537071Y-105812013D01*
X97565072Y-105819202D01*
X97581812Y-105823500D01*
X97603259Y-105823500D01*
X97622969Y-105825051D01*
X97644152Y-105828406D01*
X97690141Y-105824059D01*
X97701996Y-105823500D01*
X110074626Y-105823500D01*
X110142747Y-105843502D01*
X110189240Y-105897158D01*
X110199344Y-105967432D01*
X110196045Y-105983164D01*
X110160989Y-106109570D01*
X110137251Y-106331695D01*
X110137548Y-106336848D01*
X110137548Y-106336851D01*
X110143011Y-106431590D01*
X110150110Y-106554715D01*
X110151247Y-106559761D01*
X110151248Y-106559767D01*
X110171119Y-106647939D01*
X110199222Y-106772639D01*
X110283266Y-106979616D01*
X110399987Y-107170088D01*
X110546250Y-107338938D01*
X110718126Y-107481632D01*
X110764064Y-107508476D01*
X110791445Y-107524476D01*
X110840169Y-107576114D01*
X110853240Y-107645897D01*
X110826509Y-107711669D01*
X110786055Y-107745027D01*
X110773607Y-107751507D01*
X110769474Y-107754610D01*
X110769471Y-107754612D01*
X110599100Y-107882530D01*
X110594965Y-107885635D01*
X110591393Y-107889373D01*
X110482050Y-108003794D01*
X110440629Y-108047138D01*
X110314743Y-108231680D01*
X110299003Y-108265590D01*
X110223382Y-108428502D01*
X110220688Y-108434305D01*
X110160989Y-108649570D01*
X110137251Y-108871695D01*
X110137548Y-108876848D01*
X110137548Y-108876851D01*
X110149812Y-109089547D01*
X110150110Y-109094715D01*
X110151247Y-109099761D01*
X110151248Y-109099767D01*
X110170955Y-109187211D01*
X110199222Y-109312639D01*
X110283266Y-109519616D01*
X110399987Y-109710088D01*
X110546250Y-109878938D01*
X110718126Y-110021632D01*
X110911000Y-110134338D01*
X110915825Y-110136180D01*
X110915826Y-110136181D01*
X110936653Y-110144134D01*
X111119692Y-110214030D01*
X111124760Y-110215061D01*
X111124763Y-110215062D01*
X111212131Y-110232837D01*
X111338597Y-110258567D01*
X111343772Y-110258757D01*
X111343774Y-110258757D01*
X111556673Y-110266564D01*
X111556677Y-110266564D01*
X111561837Y-110266753D01*
X111566957Y-110266097D01*
X111566959Y-110266097D01*
X111778288Y-110239025D01*
X111778289Y-110239025D01*
X111783416Y-110238368D01*
X111831947Y-110223808D01*
X111992429Y-110175661D01*
X111992434Y-110175659D01*
X111997384Y-110174174D01*
X112197994Y-110075896D01*
X112379860Y-109946173D01*
X112443066Y-109883188D01*
X112474538Y-109851825D01*
X112538096Y-109788489D01*
X112597594Y-109705689D01*
X112665435Y-109611277D01*
X112668453Y-109607077D01*
X112767430Y-109406811D01*
X112811191Y-109262777D01*
X112830865Y-109198023D01*
X112830865Y-109198021D01*
X112832370Y-109193069D01*
X112861529Y-108971590D01*
X112863156Y-108905000D01*
X112844852Y-108682361D01*
X112790431Y-108465702D01*
X112701354Y-108260840D01*
X112580014Y-108073277D01*
X112429670Y-107908051D01*
X112425619Y-107904852D01*
X112425615Y-107904848D01*
X112258414Y-107772800D01*
X112258410Y-107772798D01*
X112254359Y-107769598D01*
X112213053Y-107746796D01*
X112163084Y-107696364D01*
X112148312Y-107626921D01*
X112173428Y-107560516D01*
X112200780Y-107533909D01*
X112244603Y-107502650D01*
X112379860Y-107406173D01*
X112538096Y-107248489D01*
X112597594Y-107165689D01*
X112665435Y-107071277D01*
X112668453Y-107067077D01*
X112672536Y-107058817D01*
X112765136Y-106871453D01*
X112765137Y-106871451D01*
X112767430Y-106866811D01*
X112832370Y-106653069D01*
X112861529Y-106431590D01*
X112863156Y-106365000D01*
X112844852Y-106142361D01*
X112836616Y-106109570D01*
X112804119Y-105980195D01*
X112806923Y-105909254D01*
X112847636Y-105851091D01*
X112913331Y-105824172D01*
X112926323Y-105823500D01*
X137592757Y-105823500D01*
X137660878Y-105843502D01*
X137686392Y-105865189D01*
X137788747Y-105978866D01*
X137855328Y-106027240D01*
X137937904Y-106087235D01*
X137943248Y-106091118D01*
X137949276Y-106093802D01*
X137949278Y-106093803D01*
X138047069Y-106137342D01*
X138117712Y-106168794D01*
X138211113Y-106188647D01*
X138298056Y-106207128D01*
X138298061Y-106207128D01*
X138304513Y-106208500D01*
X138495487Y-106208500D01*
X138501939Y-106207128D01*
X138501944Y-106207128D01*
X138588887Y-106188647D01*
X138682288Y-106168794D01*
X138752931Y-106137342D01*
X138850722Y-106093803D01*
X138850724Y-106093802D01*
X138856752Y-106091118D01*
X138862091Y-106087239D01*
X138862098Y-106087235D01*
X138868528Y-106082563D01*
X138942587Y-106058500D01*
X140475050Y-106058500D01*
X140543171Y-106078502D01*
X140564145Y-106095405D01*
X148776341Y-114307600D01*
X148784331Y-114316381D01*
X148784339Y-114316390D01*
X148788584Y-114323080D01*
X148794359Y-114328503D01*
X148799416Y-114334616D01*
X148796871Y-114336722D01*
X148825156Y-114384862D01*
X148822319Y-114455801D01*
X148781579Y-114513946D01*
X148715871Y-114540834D01*
X148702938Y-114541500D01*
X148280224Y-114541500D01*
X148212103Y-114521498D01*
X148206163Y-114517436D01*
X148205909Y-114517251D01*
X148116207Y-114452079D01*
X148062094Y-114412763D01*
X148062093Y-114412762D01*
X148056752Y-114408882D01*
X148050724Y-114406198D01*
X148050722Y-114406197D01*
X147888319Y-114333891D01*
X147888318Y-114333891D01*
X147882288Y-114331206D01*
X147788888Y-114311353D01*
X147701944Y-114292872D01*
X147701939Y-114292872D01*
X147695487Y-114291500D01*
X147504513Y-114291500D01*
X147498061Y-114292872D01*
X147498056Y-114292872D01*
X147411112Y-114311353D01*
X147317712Y-114331206D01*
X147311682Y-114333891D01*
X147311681Y-114333891D01*
X147149278Y-114406197D01*
X147149276Y-114406198D01*
X147143248Y-114408882D01*
X147137907Y-114412762D01*
X147137906Y-114412763D01*
X147087843Y-114449136D01*
X146988747Y-114521134D01*
X146860960Y-114663056D01*
X146765473Y-114828444D01*
X146706458Y-115010072D01*
X146686496Y-115200000D01*
X146706458Y-115389928D01*
X146765473Y-115571556D01*
X146860960Y-115736944D01*
X146865378Y-115741851D01*
X146865379Y-115741852D01*
X146984325Y-115873955D01*
X146988747Y-115878866D01*
X147143248Y-115991118D01*
X147149276Y-115993802D01*
X147149278Y-115993803D01*
X147311681Y-116066109D01*
X147317712Y-116068794D01*
X147411112Y-116088647D01*
X147498056Y-116107128D01*
X147498061Y-116107128D01*
X147504513Y-116108500D01*
X147695487Y-116108500D01*
X147701939Y-116107128D01*
X147701944Y-116107128D01*
X147788888Y-116088647D01*
X147882288Y-116068794D01*
X147888319Y-116066109D01*
X148050722Y-115993803D01*
X148050724Y-115993802D01*
X148056752Y-115991118D01*
X148206163Y-115882564D01*
X148273031Y-115858706D01*
X148280224Y-115858500D01*
X152117944Y-115858500D01*
X152129800Y-115859059D01*
X152129803Y-115859059D01*
X152137537Y-115860788D01*
X152208369Y-115858562D01*
X152212327Y-115858500D01*
X152241432Y-115858500D01*
X152245832Y-115857944D01*
X152257664Y-115857012D01*
X152303831Y-115855562D01*
X152324421Y-115849580D01*
X152343782Y-115845570D01*
X152350770Y-115844688D01*
X152357204Y-115843875D01*
X152357205Y-115843875D01*
X152365064Y-115842882D01*
X152372429Y-115839966D01*
X152372433Y-115839965D01*
X152408021Y-115825874D01*
X152419231Y-115822035D01*
X152463600Y-115809145D01*
X152482065Y-115798225D01*
X152499805Y-115789534D01*
X152519756Y-115781635D01*
X152557129Y-115754482D01*
X152567048Y-115747967D01*
X152599977Y-115728493D01*
X152599981Y-115728490D01*
X152606807Y-115724453D01*
X152621971Y-115709289D01*
X152637005Y-115696448D01*
X152647943Y-115688501D01*
X152654357Y-115683841D01*
X152683803Y-115648247D01*
X152691792Y-115639468D01*
X154094927Y-114236333D01*
X158007600Y-110323659D01*
X158016381Y-110315669D01*
X158016390Y-110315661D01*
X158023080Y-110311416D01*
X158071621Y-110259725D01*
X158074375Y-110256884D01*
X158094926Y-110236333D01*
X158097638Y-110232837D01*
X158105349Y-110223808D01*
X158131544Y-110195913D01*
X158136972Y-110190133D01*
X158144928Y-110175661D01*
X158147301Y-110171345D01*
X158158158Y-110154816D01*
X158166444Y-110144134D01*
X158171304Y-110137869D01*
X158189659Y-110095455D01*
X158194873Y-110084812D01*
X158213304Y-110051286D01*
X158213304Y-110051285D01*
X158217124Y-110044337D01*
X158219095Y-110036660D01*
X158219097Y-110036655D01*
X158222455Y-110023574D01*
X158228861Y-110004862D01*
X158234233Y-109992448D01*
X158237380Y-109985177D01*
X158244608Y-109939541D01*
X158247012Y-109927930D01*
X158258500Y-109883188D01*
X158258500Y-109861742D01*
X158260051Y-109842032D01*
X158262166Y-109828678D01*
X158263406Y-109820849D01*
X158259059Y-109774860D01*
X158258500Y-109763005D01*
X158258500Y-102983306D01*
X158278502Y-102915185D01*
X158332158Y-102868692D01*
X158402432Y-102858588D01*
X158467012Y-102888082D01*
X158493619Y-102920306D01*
X158560960Y-103036944D01*
X158565378Y-103041851D01*
X158565379Y-103041852D01*
X158647886Y-103133485D01*
X158688747Y-103178866D01*
X158843248Y-103291118D01*
X158849276Y-103293802D01*
X158849278Y-103293803D01*
X158981025Y-103352460D01*
X159017712Y-103368794D01*
X159111113Y-103388647D01*
X159198056Y-103407128D01*
X159198061Y-103407128D01*
X159204513Y-103408500D01*
X159395487Y-103408500D01*
X159401939Y-103407128D01*
X159401944Y-103407128D01*
X159488888Y-103388647D01*
X159582288Y-103368794D01*
X159618975Y-103352460D01*
X159750722Y-103293803D01*
X159750724Y-103293802D01*
X159756752Y-103291118D01*
X159911253Y-103178866D01*
X159952114Y-103133485D01*
X160034621Y-103041852D01*
X160034622Y-103041851D01*
X160039040Y-103036944D01*
X160134527Y-102871556D01*
X160193542Y-102689928D01*
X160206320Y-102568357D01*
X160212814Y-102506565D01*
X160213504Y-102500000D01*
X160196056Y-102333987D01*
X160194232Y-102316635D01*
X160194232Y-102316633D01*
X160193542Y-102310072D01*
X160134527Y-102128444D01*
X160109631Y-102085322D01*
X160055333Y-101991277D01*
X160039040Y-101963056D01*
X159997243Y-101916635D01*
X159915675Y-101826045D01*
X159915674Y-101826044D01*
X159911253Y-101821134D01*
X159756752Y-101708882D01*
X159750724Y-101706198D01*
X159750722Y-101706197D01*
X159588319Y-101633891D01*
X159588318Y-101633891D01*
X159582288Y-101631206D01*
X159445828Y-101602200D01*
X159408303Y-101594224D01*
X159345829Y-101560495D01*
X159311508Y-101498346D01*
X159308500Y-101470977D01*
X159308500Y-100667852D01*
X159328502Y-100599731D01*
X159382158Y-100553238D01*
X159452432Y-100543134D01*
X159508559Y-100565915D01*
X159543248Y-100591118D01*
X159549276Y-100593802D01*
X159549278Y-100593803D01*
X159696379Y-100659296D01*
X159717712Y-100668794D01*
X159783365Y-100682749D01*
X159898056Y-100707128D01*
X159898061Y-100707128D01*
X159904513Y-100708500D01*
X160095487Y-100708500D01*
X160101939Y-100707128D01*
X160101944Y-100707128D01*
X160216635Y-100682749D01*
X160282288Y-100668794D01*
X160303621Y-100659296D01*
X160450722Y-100593803D01*
X160450724Y-100593802D01*
X160456752Y-100591118D01*
X160473371Y-100579044D01*
X160522796Y-100543134D01*
X160611253Y-100478866D01*
X160633376Y-100454296D01*
X160734621Y-100341852D01*
X160734622Y-100341851D01*
X160739040Y-100336944D01*
X160823920Y-100189928D01*
X160831223Y-100177279D01*
X160831224Y-100177278D01*
X160834527Y-100171556D01*
X160891711Y-99995563D01*
X160931785Y-99936958D01*
X160997182Y-99909321D01*
X161011544Y-99908500D01*
X161231021Y-99908500D01*
X161299142Y-99928502D01*
X161345635Y-99982158D01*
X161355739Y-100052432D01*
X161350854Y-100073436D01*
X161306458Y-100210072D01*
X161305768Y-100216633D01*
X161305768Y-100216635D01*
X161290307Y-100363742D01*
X161286496Y-100400000D01*
X161287186Y-100406565D01*
X161304732Y-100573502D01*
X161306458Y-100589928D01*
X161365473Y-100771556D01*
X161368776Y-100777278D01*
X161368777Y-100777279D01*
X161387519Y-100809740D01*
X161460960Y-100936944D01*
X161465378Y-100941851D01*
X161465379Y-100941852D01*
X161583542Y-101073085D01*
X161588747Y-101078866D01*
X161681381Y-101146169D01*
X161723573Y-101176823D01*
X161743248Y-101191118D01*
X161749276Y-101193802D01*
X161749278Y-101193803D01*
X161890887Y-101256851D01*
X161917712Y-101268794D01*
X162009786Y-101288365D01*
X162098057Y-101307128D01*
X162098060Y-101307128D01*
X162104513Y-101308500D01*
X162108722Y-101308500D01*
X162173557Y-101335173D01*
X162183828Y-101344377D01*
X165450281Y-104610830D01*
X165484307Y-104673142D01*
X165486841Y-104696716D01*
X165486496Y-104700000D01*
X165487186Y-104706565D01*
X165504235Y-104868774D01*
X165506458Y-104889928D01*
X165565473Y-105071556D01*
X165568776Y-105077278D01*
X165568777Y-105077279D01*
X165594388Y-105121638D01*
X165660960Y-105236944D01*
X165665378Y-105241851D01*
X165665379Y-105241852D01*
X165784325Y-105373955D01*
X165788747Y-105378866D01*
X165943248Y-105491118D01*
X165949276Y-105493802D01*
X165949278Y-105493803D01*
X166099777Y-105560809D01*
X166117712Y-105568794D01*
X166186263Y-105583365D01*
X166298056Y-105607128D01*
X166298061Y-105607128D01*
X166304513Y-105608500D01*
X166495487Y-105608500D01*
X166501939Y-105607128D01*
X166501944Y-105607128D01*
X166613737Y-105583365D01*
X166682288Y-105568794D01*
X166700223Y-105560809D01*
X166850722Y-105493803D01*
X166850724Y-105493802D01*
X166856752Y-105491118D01*
X167011253Y-105378866D01*
X167015675Y-105373955D01*
X167134621Y-105241852D01*
X167134622Y-105241851D01*
X167139040Y-105236944D01*
X167205612Y-105121638D01*
X167231223Y-105077279D01*
X167231224Y-105077278D01*
X167234527Y-105071556D01*
X167293542Y-104889928D01*
X167295766Y-104868774D01*
X167312814Y-104706565D01*
X167313504Y-104700000D01*
X167299396Y-104565771D01*
X167294232Y-104516635D01*
X167294232Y-104516633D01*
X167293542Y-104510072D01*
X167234527Y-104328444D01*
X167204481Y-104276402D01*
X167176302Y-104227596D01*
X167139040Y-104163056D01*
X167089413Y-104107939D01*
X167015675Y-104026045D01*
X167015674Y-104026044D01*
X167011253Y-104021134D01*
X166856752Y-103908882D01*
X166850724Y-103906198D01*
X166850722Y-103906197D01*
X166688319Y-103833891D01*
X166688318Y-103833891D01*
X166682288Y-103831206D01*
X166588888Y-103811353D01*
X166501944Y-103792872D01*
X166501939Y-103792872D01*
X166495487Y-103791500D01*
X166404238Y-103791500D01*
X166336117Y-103771498D01*
X166315143Y-103754595D01*
X163329144Y-100768595D01*
X163295118Y-100706283D01*
X163300183Y-100635467D01*
X163342730Y-100578632D01*
X163409250Y-100553821D01*
X163418239Y-100553500D01*
X187144349Y-100553500D01*
X187212470Y-100573502D01*
X187258963Y-100627158D01*
X187269067Y-100697432D01*
X187258637Y-100732550D01*
X187225114Y-100804771D01*
X187220688Y-100814305D01*
X187160989Y-101029570D01*
X187137251Y-101251695D01*
X187137548Y-101256848D01*
X187137548Y-101256851D01*
X187143529Y-101360584D01*
X187150110Y-101474715D01*
X187151247Y-101479761D01*
X187151248Y-101479767D01*
X187170019Y-101563056D01*
X187199222Y-101692639D01*
X187283266Y-101899616D01*
X187293695Y-101916635D01*
X187385534Y-102066502D01*
X187399987Y-102090088D01*
X187546250Y-102258938D01*
X187718126Y-102401632D01*
X187788595Y-102442811D01*
X187791445Y-102444476D01*
X187840169Y-102496114D01*
X187853240Y-102565897D01*
X187826509Y-102631669D01*
X187786055Y-102665027D01*
X187773607Y-102671507D01*
X187769474Y-102674610D01*
X187769471Y-102674612D01*
X187630618Y-102778866D01*
X187594965Y-102805635D01*
X187440629Y-102967138D01*
X187314743Y-103151680D01*
X187287819Y-103209684D01*
X187229932Y-103334391D01*
X187220688Y-103354305D01*
X187160989Y-103569570D01*
X187137251Y-103791695D01*
X187137548Y-103796848D01*
X187137548Y-103796851D01*
X187149509Y-104004294D01*
X187150110Y-104014715D01*
X187151247Y-104019761D01*
X187151248Y-104019767D01*
X187152663Y-104026045D01*
X187199222Y-104232639D01*
X187283266Y-104439616D01*
X187315901Y-104492872D01*
X187392121Y-104617251D01*
X187399987Y-104630088D01*
X187546250Y-104798938D01*
X187718126Y-104941632D01*
X187788595Y-104982811D01*
X187791445Y-104984476D01*
X187840169Y-105036114D01*
X187853240Y-105105897D01*
X187826509Y-105171669D01*
X187786055Y-105205027D01*
X187773607Y-105211507D01*
X187769474Y-105214610D01*
X187769471Y-105214612D01*
X187745247Y-105232800D01*
X187594965Y-105345635D01*
X187440629Y-105507138D01*
X187437715Y-105511410D01*
X187437714Y-105511411D01*
X187355779Y-105631524D01*
X187314743Y-105691680D01*
X187272326Y-105783059D01*
X187234203Y-105865190D01*
X187220688Y-105894305D01*
X187160989Y-106109570D01*
X187137251Y-106331695D01*
X187137548Y-106336848D01*
X187137548Y-106336851D01*
X187143011Y-106431590D01*
X187150110Y-106554715D01*
X187151247Y-106559761D01*
X187151248Y-106559767D01*
X187171119Y-106647939D01*
X187199222Y-106772639D01*
X187283266Y-106979616D01*
X187399987Y-107170088D01*
X187546250Y-107338938D01*
X187718126Y-107481632D01*
X187764064Y-107508476D01*
X187791445Y-107524476D01*
X187840169Y-107576114D01*
X187853240Y-107645897D01*
X187826509Y-107711669D01*
X187786055Y-107745027D01*
X187773607Y-107751507D01*
X187769474Y-107754610D01*
X187769471Y-107754612D01*
X187599100Y-107882530D01*
X187594965Y-107885635D01*
X187591393Y-107889373D01*
X187482050Y-108003794D01*
X187440629Y-108047138D01*
X187314743Y-108231680D01*
X187299003Y-108265590D01*
X187223382Y-108428502D01*
X187220688Y-108434305D01*
X187160989Y-108649570D01*
X187137251Y-108871695D01*
X187137548Y-108876848D01*
X187137548Y-108876851D01*
X187149812Y-109089547D01*
X187150110Y-109094715D01*
X187151247Y-109099761D01*
X187151248Y-109099767D01*
X187170955Y-109187211D01*
X187199222Y-109312639D01*
X187283266Y-109519616D01*
X187399987Y-109710088D01*
X187546250Y-109878938D01*
X187718126Y-110021632D01*
X187911000Y-110134338D01*
X187915825Y-110136180D01*
X187915826Y-110136181D01*
X187936653Y-110144134D01*
X188119692Y-110214030D01*
X188124760Y-110215061D01*
X188124763Y-110215062D01*
X188212131Y-110232837D01*
X188338597Y-110258567D01*
X188343772Y-110258757D01*
X188343774Y-110258757D01*
X188556673Y-110266564D01*
X188556677Y-110266564D01*
X188561837Y-110266753D01*
X188566957Y-110266097D01*
X188566959Y-110266097D01*
X188778288Y-110239025D01*
X188778289Y-110239025D01*
X188783416Y-110238368D01*
X188831947Y-110223808D01*
X188992429Y-110175661D01*
X188992434Y-110175659D01*
X188997384Y-110174174D01*
X189197994Y-110075896D01*
X189379860Y-109946173D01*
X189443066Y-109883188D01*
X189474538Y-109851825D01*
X189538096Y-109788489D01*
X189597594Y-109705689D01*
X189665435Y-109611277D01*
X189668453Y-109607077D01*
X189767430Y-109406811D01*
X189811191Y-109262777D01*
X189830865Y-109198023D01*
X189830865Y-109198021D01*
X189832370Y-109193069D01*
X189861529Y-108971590D01*
X189863156Y-108905000D01*
X189844852Y-108682361D01*
X189790431Y-108465702D01*
X189701354Y-108260840D01*
X189580014Y-108073277D01*
X189429670Y-107908051D01*
X189425619Y-107904852D01*
X189425615Y-107904848D01*
X189258414Y-107772800D01*
X189258410Y-107772798D01*
X189254359Y-107769598D01*
X189213053Y-107746796D01*
X189163084Y-107696364D01*
X189148312Y-107626921D01*
X189173428Y-107560516D01*
X189200780Y-107533909D01*
X189244603Y-107502650D01*
X189379860Y-107406173D01*
X189538096Y-107248489D01*
X189597594Y-107165689D01*
X189665435Y-107071277D01*
X189668453Y-107067077D01*
X189672536Y-107058817D01*
X189765136Y-106871453D01*
X189765137Y-106871451D01*
X189767430Y-106866811D01*
X189832370Y-106653069D01*
X189861529Y-106431590D01*
X189863156Y-106365000D01*
X189844852Y-106142361D01*
X189790431Y-105925702D01*
X189701354Y-105720840D01*
X189628678Y-105608500D01*
X189582822Y-105537617D01*
X189582820Y-105537614D01*
X189580014Y-105533277D01*
X189429670Y-105368051D01*
X189425619Y-105364852D01*
X189425615Y-105364848D01*
X189258414Y-105232800D01*
X189258410Y-105232798D01*
X189254359Y-105229598D01*
X189213053Y-105206796D01*
X189163084Y-105156364D01*
X189148312Y-105086921D01*
X189173428Y-105020516D01*
X189200780Y-104993909D01*
X189244603Y-104962650D01*
X189379860Y-104866173D01*
X189538096Y-104708489D01*
X189544333Y-104699810D01*
X189665435Y-104531277D01*
X189668453Y-104527077D01*
X189675528Y-104512763D01*
X189765136Y-104331453D01*
X189765137Y-104331451D01*
X189767430Y-104326811D01*
X189807801Y-104193935D01*
X189830865Y-104118023D01*
X189830865Y-104118021D01*
X189832370Y-104113069D01*
X189861529Y-103891590D01*
X189862939Y-103833891D01*
X189863074Y-103828365D01*
X189863074Y-103828361D01*
X189863156Y-103825000D01*
X189844852Y-103602361D01*
X189790431Y-103385702D01*
X189701354Y-103180840D01*
X189611439Y-103041852D01*
X189582822Y-102997617D01*
X189582820Y-102997614D01*
X189580014Y-102993277D01*
X189429670Y-102828051D01*
X189425619Y-102824852D01*
X189425615Y-102824848D01*
X189258414Y-102692800D01*
X189258410Y-102692798D01*
X189254359Y-102689598D01*
X189213053Y-102666796D01*
X189163084Y-102616364D01*
X189148312Y-102546921D01*
X189173428Y-102480516D01*
X189200780Y-102453909D01*
X189264441Y-102408500D01*
X189379860Y-102326173D01*
X189389432Y-102316635D01*
X189523786Y-102182749D01*
X189538096Y-102168489D01*
X189570984Y-102122721D01*
X189587311Y-102100000D01*
X189986496Y-102100000D01*
X189987186Y-102106565D01*
X190003983Y-102266375D01*
X190006458Y-102289928D01*
X190065473Y-102471556D01*
X190068776Y-102477278D01*
X190068777Y-102477279D01*
X190081895Y-102500000D01*
X190160960Y-102636944D01*
X190165378Y-102641851D01*
X190165379Y-102641852D01*
X190237556Y-102722013D01*
X190288747Y-102778866D01*
X190387843Y-102850864D01*
X190425884Y-102878502D01*
X190443248Y-102891118D01*
X190449276Y-102893802D01*
X190449278Y-102893803D01*
X190546218Y-102936963D01*
X190617712Y-102968794D01*
X190691603Y-102984500D01*
X190798056Y-103007128D01*
X190798061Y-103007128D01*
X190804513Y-103008500D01*
X190895761Y-103008500D01*
X190963882Y-103028502D01*
X190984856Y-103045405D01*
X191010685Y-103071234D01*
X191021552Y-103083625D01*
X191041013Y-103108987D01*
X191047563Y-103114013D01*
X191072921Y-103133471D01*
X191072937Y-103133485D01*
X191122305Y-103171366D01*
X191168124Y-103206524D01*
X191316149Y-103267838D01*
X191324336Y-103268916D01*
X191324337Y-103268916D01*
X191335542Y-103270391D01*
X191366738Y-103274498D01*
X191435115Y-103283500D01*
X191435118Y-103283500D01*
X191435126Y-103283501D01*
X191466811Y-103287672D01*
X191475000Y-103288750D01*
X191506693Y-103284578D01*
X191523136Y-103283500D01*
X202570761Y-103283500D01*
X202638882Y-103303502D01*
X202659856Y-103320405D01*
X219735681Y-120396229D01*
X219746548Y-120408620D01*
X219760984Y-120427434D01*
X219760987Y-120427437D01*
X219766013Y-120433987D01*
X219772563Y-120439013D01*
X219772567Y-120439017D01*
X219797927Y-120458476D01*
X219797929Y-120458477D01*
X219886572Y-120526496D01*
X219893124Y-120531524D01*
X219900750Y-120534683D01*
X219900752Y-120534684D01*
X219967137Y-120562181D01*
X220041149Y-120592838D01*
X220049336Y-120593916D01*
X220049337Y-120593916D01*
X220060542Y-120595391D01*
X220091738Y-120599498D01*
X220160115Y-120608500D01*
X220160118Y-120608500D01*
X220160126Y-120608501D01*
X220191811Y-120612672D01*
X220200000Y-120613750D01*
X220231693Y-120609578D01*
X220248136Y-120608500D01*
X223651864Y-120608500D01*
X223668307Y-120609578D01*
X223700000Y-120613750D01*
X223708189Y-120612672D01*
X223739874Y-120608501D01*
X223739884Y-120608500D01*
X223739885Y-120608500D01*
X223739901Y-120608498D01*
X223839457Y-120595391D01*
X223850664Y-120593916D01*
X223850666Y-120593915D01*
X223858851Y-120592838D01*
X224006876Y-120531524D01*
X224014017Y-120526045D01*
X224102072Y-120458477D01*
X224102075Y-120458474D01*
X224133987Y-120433987D01*
X224139017Y-120427432D01*
X224153452Y-120408621D01*
X224164319Y-120396230D01*
X225615144Y-118945405D01*
X225677456Y-118911379D01*
X225704239Y-118908500D01*
X225795487Y-118908500D01*
X225801939Y-118907128D01*
X225801944Y-118907128D01*
X225888888Y-118888647D01*
X225982288Y-118868794D01*
X225988319Y-118866109D01*
X226150722Y-118793803D01*
X226150724Y-118793802D01*
X226156752Y-118791118D01*
X226311253Y-118678866D01*
X226439040Y-118536944D01*
X226534527Y-118371556D01*
X226593542Y-118189928D01*
X226613504Y-118000000D01*
X226593542Y-117810072D01*
X226534527Y-117628444D01*
X226439040Y-117463056D01*
X226311253Y-117321134D01*
X226156752Y-117208882D01*
X226150724Y-117206198D01*
X226150722Y-117206197D01*
X225988319Y-117133891D01*
X225988318Y-117133891D01*
X225982288Y-117131206D01*
X225888888Y-117111353D01*
X225801944Y-117092872D01*
X225801939Y-117092872D01*
X225795487Y-117091500D01*
X225604513Y-117091500D01*
X225598061Y-117092872D01*
X225598056Y-117092872D01*
X225511112Y-117111353D01*
X225417712Y-117131206D01*
X225411682Y-117133891D01*
X225411681Y-117133891D01*
X225249278Y-117206197D01*
X225249276Y-117206198D01*
X225243248Y-117208882D01*
X225088747Y-117321134D01*
X224960960Y-117463056D01*
X224865473Y-117628444D01*
X224806458Y-117810072D01*
X224786496Y-118000000D01*
X224786684Y-118001786D01*
X224767184Y-118068196D01*
X224750281Y-118089170D01*
X223484856Y-119354595D01*
X223422544Y-119388621D01*
X223395761Y-119391500D01*
X220504238Y-119391500D01*
X220436117Y-119371498D01*
X220415143Y-119354595D01*
X213310548Y-112250000D01*
X218236835Y-112250000D01*
X218255465Y-112486711D01*
X218310895Y-112717594D01*
X218312788Y-112722165D01*
X218312789Y-112722167D01*
X218399770Y-112932158D01*
X218401760Y-112936963D01*
X218404346Y-112941183D01*
X218523241Y-113135202D01*
X218523245Y-113135208D01*
X218525824Y-113139416D01*
X218680031Y-113319969D01*
X218860584Y-113474176D01*
X218864792Y-113476755D01*
X218864798Y-113476759D01*
X219058817Y-113595654D01*
X219063037Y-113598240D01*
X219067607Y-113600133D01*
X219067611Y-113600135D01*
X219277833Y-113687211D01*
X219282406Y-113689105D01*
X219330349Y-113700615D01*
X219508476Y-113743380D01*
X219508482Y-113743381D01*
X219513289Y-113744535D01*
X219750000Y-113763165D01*
X219986711Y-113744535D01*
X219991518Y-113743381D01*
X219991524Y-113743380D01*
X220169651Y-113700615D01*
X220217594Y-113689105D01*
X220222167Y-113687211D01*
X220432389Y-113600135D01*
X220432393Y-113600133D01*
X220436963Y-113598240D01*
X220441183Y-113595654D01*
X220635202Y-113476759D01*
X220635208Y-113476755D01*
X220639416Y-113474176D01*
X220819969Y-113319969D01*
X220974176Y-113139416D01*
X220976755Y-113135208D01*
X220976759Y-113135202D01*
X221095654Y-112941183D01*
X221098240Y-112936963D01*
X221100135Y-112932389D01*
X221102381Y-112927980D01*
X221104390Y-112929004D01*
X221143060Y-112881008D01*
X221214931Y-112858500D01*
X224615500Y-112858500D01*
X224683621Y-112878502D01*
X224730114Y-112932158D01*
X224741500Y-112984500D01*
X224741500Y-113298134D01*
X224748255Y-113360316D01*
X224799385Y-113496705D01*
X224886739Y-113613261D01*
X225003295Y-113700615D01*
X225139684Y-113751745D01*
X225201866Y-113758500D01*
X227298134Y-113758500D01*
X227360316Y-113751745D01*
X227496705Y-113700615D01*
X227613261Y-113613261D01*
X227700615Y-113496705D01*
X227751745Y-113360316D01*
X227758500Y-113298134D01*
X227758500Y-111201866D01*
X227751745Y-111139684D01*
X227700615Y-111003295D01*
X227613261Y-110886739D01*
X227496705Y-110799385D01*
X227360316Y-110748255D01*
X227298134Y-110741500D01*
X225201866Y-110741500D01*
X225139684Y-110748255D01*
X225003295Y-110799385D01*
X224886739Y-110886739D01*
X224799385Y-111003295D01*
X224748255Y-111139684D01*
X224741500Y-111201866D01*
X224741500Y-111515500D01*
X224721498Y-111583621D01*
X224667842Y-111630114D01*
X224615500Y-111641500D01*
X221214931Y-111641500D01*
X221146810Y-111621498D01*
X221104543Y-111570918D01*
X221102381Y-111572020D01*
X221100135Y-111567611D01*
X221098240Y-111563037D01*
X221038469Y-111465500D01*
X220976759Y-111364798D01*
X220976755Y-111364792D01*
X220974176Y-111360584D01*
X220819969Y-111180031D01*
X220639416Y-111025824D01*
X220635208Y-111023245D01*
X220635202Y-111023241D01*
X220441183Y-110904346D01*
X220436963Y-110901760D01*
X220432393Y-110899867D01*
X220432389Y-110899865D01*
X220222167Y-110812789D01*
X220222165Y-110812788D01*
X220217594Y-110810895D01*
X220137391Y-110791640D01*
X219991524Y-110756620D01*
X219991518Y-110756619D01*
X219986711Y-110755465D01*
X219750000Y-110736835D01*
X219513289Y-110755465D01*
X219508482Y-110756619D01*
X219508476Y-110756620D01*
X219362609Y-110791640D01*
X219282406Y-110810895D01*
X219277835Y-110812788D01*
X219277833Y-110812789D01*
X219067611Y-110899865D01*
X219067607Y-110899867D01*
X219063037Y-110901760D01*
X219058817Y-110904346D01*
X218864798Y-111023241D01*
X218864792Y-111023245D01*
X218860584Y-111025824D01*
X218680031Y-111180031D01*
X218525824Y-111360584D01*
X218523245Y-111364792D01*
X218523241Y-111364798D01*
X218461531Y-111465500D01*
X218401760Y-111563037D01*
X218399867Y-111567607D01*
X218399865Y-111567611D01*
X218312789Y-111777833D01*
X218310895Y-111782406D01*
X218255465Y-112013289D01*
X218236835Y-112250000D01*
X213310548Y-112250000D01*
X203339315Y-102278766D01*
X203328448Y-102266375D01*
X203315883Y-102250000D01*
X208236835Y-102250000D01*
X208255465Y-102486711D01*
X208256619Y-102491518D01*
X208256620Y-102491524D01*
X208265401Y-102528099D01*
X208310895Y-102717594D01*
X208312788Y-102722165D01*
X208312789Y-102722167D01*
X208399770Y-102932158D01*
X208401760Y-102936963D01*
X208404346Y-102941183D01*
X208523241Y-103135202D01*
X208523245Y-103135208D01*
X208525824Y-103139416D01*
X208680031Y-103319969D01*
X208860584Y-103474176D01*
X208864792Y-103476755D01*
X208864798Y-103476759D01*
X209008122Y-103564588D01*
X209063037Y-103598240D01*
X209067607Y-103600133D01*
X209067611Y-103600135D01*
X209277833Y-103687211D01*
X209282406Y-103689105D01*
X209330349Y-103700615D01*
X209508476Y-103743380D01*
X209508482Y-103743381D01*
X209513289Y-103744535D01*
X209750000Y-103763165D01*
X209986711Y-103744535D01*
X209991518Y-103743381D01*
X209991524Y-103743380D01*
X210169651Y-103700615D01*
X210217594Y-103689105D01*
X210222167Y-103687211D01*
X210432389Y-103600135D01*
X210432393Y-103600133D01*
X210436963Y-103598240D01*
X210491878Y-103564588D01*
X210635202Y-103476759D01*
X210635208Y-103476755D01*
X210639416Y-103474176D01*
X210819969Y-103319969D01*
X210974176Y-103139416D01*
X210976755Y-103135208D01*
X210976759Y-103135202D01*
X211095654Y-102941183D01*
X211098240Y-102936963D01*
X211100135Y-102932389D01*
X211102381Y-102927980D01*
X211104390Y-102929004D01*
X211143060Y-102881008D01*
X211214931Y-102858500D01*
X214615500Y-102858500D01*
X214683621Y-102878502D01*
X214730114Y-102932158D01*
X214741500Y-102984500D01*
X214741500Y-103298134D01*
X214748255Y-103360316D01*
X214799385Y-103496705D01*
X214886739Y-103613261D01*
X215003295Y-103700615D01*
X215139684Y-103751745D01*
X215201866Y-103758500D01*
X217298134Y-103758500D01*
X217360316Y-103751745D01*
X217496705Y-103700615D01*
X217613261Y-103613261D01*
X217700615Y-103496705D01*
X217751745Y-103360316D01*
X217758500Y-103298134D01*
X217758500Y-101201866D01*
X217751745Y-101139684D01*
X217700615Y-101003295D01*
X217613261Y-100886739D01*
X217496705Y-100799385D01*
X217360316Y-100748255D01*
X217298134Y-100741500D01*
X215201866Y-100741500D01*
X215139684Y-100748255D01*
X215003295Y-100799385D01*
X214886739Y-100886739D01*
X214799385Y-101003295D01*
X214748255Y-101139684D01*
X214741500Y-101201866D01*
X214741500Y-101515500D01*
X214721498Y-101583621D01*
X214667842Y-101630114D01*
X214615500Y-101641500D01*
X211214931Y-101641500D01*
X211146810Y-101621498D01*
X211104543Y-101570918D01*
X211102381Y-101572020D01*
X211100135Y-101567611D01*
X211098240Y-101563037D01*
X211073558Y-101522760D01*
X210976759Y-101364798D01*
X210976755Y-101364792D01*
X210974176Y-101360584D01*
X210830473Y-101192330D01*
X210823177Y-101183787D01*
X210819969Y-101180031D01*
X210639416Y-101025824D01*
X210635208Y-101023245D01*
X210635202Y-101023241D01*
X210441183Y-100904346D01*
X210436963Y-100901760D01*
X210432393Y-100899867D01*
X210432389Y-100899865D01*
X210222167Y-100812789D01*
X210222165Y-100812788D01*
X210217594Y-100810895D01*
X210119051Y-100787237D01*
X209991524Y-100756620D01*
X209991518Y-100756619D01*
X209986711Y-100755465D01*
X209750000Y-100736835D01*
X209513289Y-100755465D01*
X209508482Y-100756619D01*
X209508476Y-100756620D01*
X209380949Y-100787237D01*
X209282406Y-100810895D01*
X209277835Y-100812788D01*
X209277833Y-100812789D01*
X209067611Y-100899865D01*
X209067607Y-100899867D01*
X209063037Y-100901760D01*
X209058817Y-100904346D01*
X208864798Y-101023241D01*
X208864792Y-101023245D01*
X208860584Y-101025824D01*
X208680031Y-101180031D01*
X208676823Y-101183787D01*
X208669527Y-101192330D01*
X208525824Y-101360584D01*
X208523245Y-101364792D01*
X208523241Y-101364798D01*
X208426442Y-101522760D01*
X208401760Y-101563037D01*
X208399867Y-101567607D01*
X208399865Y-101567611D01*
X208330643Y-101734729D01*
X208310895Y-101782406D01*
X208301597Y-101821134D01*
X208259405Y-101996878D01*
X208255465Y-102013289D01*
X208236835Y-102250000D01*
X203315883Y-102250000D01*
X203314013Y-102247563D01*
X203308987Y-102241013D01*
X203277075Y-102216526D01*
X203277072Y-102216523D01*
X203221597Y-102173955D01*
X203188429Y-102148504D01*
X203188427Y-102148503D01*
X203181876Y-102143476D01*
X203033851Y-102082162D01*
X203025664Y-102081084D01*
X203025663Y-102081084D01*
X203014458Y-102079609D01*
X202983262Y-102075502D01*
X202914885Y-102066500D01*
X202914882Y-102066500D01*
X202914874Y-102066499D01*
X202883189Y-102062328D01*
X202875000Y-102061250D01*
X202843307Y-102065422D01*
X202826864Y-102066500D01*
X191923434Y-102066500D01*
X191855313Y-102046498D01*
X191808820Y-101992842D01*
X191798124Y-101953670D01*
X191794232Y-101916635D01*
X191794232Y-101916633D01*
X191793542Y-101910072D01*
X191734527Y-101728444D01*
X191639040Y-101563056D01*
X191602758Y-101522760D01*
X191515675Y-101426045D01*
X191515674Y-101426044D01*
X191511253Y-101421134D01*
X191410923Y-101348240D01*
X191362094Y-101312763D01*
X191362093Y-101312762D01*
X191356752Y-101308882D01*
X191350724Y-101306198D01*
X191350722Y-101306197D01*
X191188319Y-101233891D01*
X191188318Y-101233891D01*
X191182288Y-101231206D01*
X191088888Y-101211353D01*
X191001944Y-101192872D01*
X191001939Y-101192872D01*
X190995487Y-101191500D01*
X190804513Y-101191500D01*
X190798061Y-101192872D01*
X190798056Y-101192872D01*
X190711112Y-101211353D01*
X190617712Y-101231206D01*
X190611682Y-101233891D01*
X190611681Y-101233891D01*
X190449278Y-101306197D01*
X190449276Y-101306198D01*
X190443248Y-101308882D01*
X190437907Y-101312762D01*
X190437906Y-101312763D01*
X190389077Y-101348240D01*
X190288747Y-101421134D01*
X190284326Y-101426044D01*
X190284325Y-101426045D01*
X190197243Y-101522760D01*
X190160960Y-101563056D01*
X190065473Y-101728444D01*
X190006458Y-101910072D01*
X190005768Y-101916633D01*
X190005768Y-101916635D01*
X189992119Y-102046498D01*
X189986496Y-102100000D01*
X189587311Y-102100000D01*
X189665435Y-101991277D01*
X189668453Y-101987077D01*
X189703268Y-101916635D01*
X189765136Y-101791453D01*
X189765137Y-101791451D01*
X189767430Y-101786811D01*
X189832370Y-101573069D01*
X189861529Y-101351590D01*
X189862095Y-101328444D01*
X189863074Y-101288365D01*
X189863074Y-101288361D01*
X189863156Y-101285000D01*
X189844852Y-101062361D01*
X189790431Y-100845702D01*
X189786901Y-100837582D01*
X189751697Y-100756620D01*
X189740010Y-100729742D01*
X189731189Y-100659296D01*
X189761856Y-100595264D01*
X189822272Y-100557976D01*
X189855559Y-100553500D01*
X190719769Y-100553500D01*
X190787890Y-100573502D01*
X190813404Y-100595189D01*
X190832480Y-100616375D01*
X190877261Y-100666109D01*
X190888747Y-100678866D01*
X191043248Y-100791118D01*
X191049276Y-100793802D01*
X191049278Y-100793803D01*
X191211681Y-100866109D01*
X191217712Y-100868794D01*
X191284306Y-100882949D01*
X191398056Y-100907128D01*
X191398061Y-100907128D01*
X191404513Y-100908500D01*
X191595487Y-100908500D01*
X191601939Y-100907128D01*
X191601944Y-100907128D01*
X191715694Y-100882949D01*
X191782288Y-100868794D01*
X191788319Y-100866109D01*
X191950722Y-100793803D01*
X191950724Y-100793802D01*
X191956752Y-100791118D01*
X192111253Y-100678866D01*
X192121170Y-100667852D01*
X192234621Y-100541852D01*
X192234622Y-100541851D01*
X192239040Y-100536944D01*
X192320036Y-100396655D01*
X192331223Y-100377279D01*
X192331224Y-100377278D01*
X192334527Y-100371556D01*
X192393542Y-100189928D01*
X192394872Y-100177279D01*
X192412814Y-100006565D01*
X192413504Y-100000000D01*
X192405989Y-99928502D01*
X192394232Y-99816635D01*
X192394232Y-99816633D01*
X192393542Y-99810072D01*
X192334527Y-99628444D01*
X192315908Y-99596194D01*
X192242341Y-99468774D01*
X192239040Y-99463056D01*
X192224653Y-99447077D01*
X192115675Y-99326045D01*
X192115674Y-99326044D01*
X192111253Y-99321134D01*
X191965341Y-99215122D01*
X191962094Y-99212763D01*
X191962093Y-99212762D01*
X191956752Y-99208882D01*
X191950724Y-99206198D01*
X191950722Y-99206197D01*
X191788319Y-99133891D01*
X191788318Y-99133891D01*
X191782288Y-99131206D01*
X191671716Y-99107703D01*
X191601944Y-99092872D01*
X191601939Y-99092872D01*
X191595487Y-99091500D01*
X191404513Y-99091500D01*
X191398061Y-99092872D01*
X191398056Y-99092872D01*
X191328284Y-99107703D01*
X191217712Y-99131206D01*
X191211682Y-99133891D01*
X191211681Y-99133891D01*
X191049278Y-99206197D01*
X191049276Y-99206198D01*
X191043248Y-99208882D01*
X191037907Y-99212762D01*
X191037906Y-99212763D01*
X190900719Y-99312436D01*
X190833852Y-99336294D01*
X190826658Y-99336500D01*
X189910149Y-99336500D01*
X189842028Y-99316498D01*
X189795535Y-99262842D01*
X189785431Y-99192568D01*
X189789591Y-99173871D01*
X189830865Y-99038023D01*
X189830865Y-99038021D01*
X189832370Y-99033069D01*
X189861529Y-98811590D01*
X189862058Y-98789928D01*
X189863074Y-98748365D01*
X189863074Y-98748361D01*
X189863156Y-98745000D01*
X189844852Y-98522361D01*
X189836616Y-98489570D01*
X189804119Y-98360195D01*
X189806923Y-98289254D01*
X189847636Y-98231091D01*
X189913331Y-98204172D01*
X189926323Y-98203500D01*
X207956864Y-98203500D01*
X207973307Y-98204578D01*
X208005000Y-98208750D01*
X208013189Y-98207672D01*
X208044874Y-98203501D01*
X208044884Y-98203500D01*
X208044885Y-98203500D01*
X208147975Y-98189928D01*
X208163851Y-98187838D01*
X208171483Y-98184677D01*
X208177961Y-98182941D01*
X208248938Y-98184631D01*
X208307733Y-98224426D01*
X208326981Y-98256430D01*
X208374668Y-98371556D01*
X208401760Y-98436963D01*
X208404346Y-98441183D01*
X208523241Y-98635202D01*
X208523245Y-98635208D01*
X208525824Y-98639416D01*
X208680031Y-98819969D01*
X208860584Y-98974176D01*
X208864792Y-98976755D01*
X208864798Y-98976759D01*
X208956688Y-99033069D01*
X209063037Y-99098240D01*
X209067607Y-99100133D01*
X209067611Y-99100135D01*
X209277833Y-99187211D01*
X209282406Y-99189105D01*
X209362609Y-99208360D01*
X209508476Y-99243380D01*
X209508482Y-99243381D01*
X209513289Y-99244535D01*
X209750000Y-99263165D01*
X209986711Y-99244535D01*
X209991518Y-99243381D01*
X209991524Y-99243380D01*
X210137391Y-99208360D01*
X210217594Y-99189105D01*
X210222167Y-99187211D01*
X210432389Y-99100135D01*
X210432393Y-99100133D01*
X210436963Y-99098240D01*
X210543312Y-99033069D01*
X210635202Y-98976759D01*
X210635208Y-98976755D01*
X210639416Y-98974176D01*
X210819969Y-98819969D01*
X210974176Y-98639416D01*
X210976758Y-98635202D01*
X210976765Y-98635193D01*
X211078814Y-98468665D01*
X211131461Y-98421034D01*
X211186246Y-98408500D01*
X214813754Y-98408500D01*
X214881875Y-98428502D01*
X214921186Y-98468665D01*
X215023235Y-98635193D01*
X215023242Y-98635202D01*
X215025824Y-98639416D01*
X215180031Y-98819969D01*
X215360584Y-98974176D01*
X215364792Y-98976755D01*
X215364798Y-98976759D01*
X215456688Y-99033069D01*
X215563037Y-99098240D01*
X215567607Y-99100133D01*
X215567611Y-99100135D01*
X215777833Y-99187211D01*
X215782406Y-99189105D01*
X215862609Y-99208360D01*
X216008476Y-99243380D01*
X216008482Y-99243381D01*
X216013289Y-99244535D01*
X216250000Y-99263165D01*
X216486711Y-99244535D01*
X216491518Y-99243381D01*
X216491524Y-99243380D01*
X216681440Y-99197785D01*
X216752348Y-99201332D01*
X216799949Y-99231209D01*
X219054595Y-101485854D01*
X219088620Y-101548166D01*
X219091500Y-101574949D01*
X219091500Y-106313754D01*
X219071498Y-106381875D01*
X219031335Y-106421186D01*
X218864807Y-106523235D01*
X218864797Y-106523242D01*
X218860584Y-106525824D01*
X218680031Y-106680031D01*
X218525824Y-106860584D01*
X218523245Y-106864792D01*
X218523241Y-106864798D01*
X218450182Y-106984020D01*
X218401760Y-107063037D01*
X218399867Y-107067607D01*
X218399865Y-107067611D01*
X218312789Y-107277833D01*
X218310895Y-107282406D01*
X218299509Y-107329834D01*
X218262439Y-107484242D01*
X218255465Y-107513289D01*
X218236835Y-107750000D01*
X218255465Y-107986711D01*
X218256619Y-107991518D01*
X218256620Y-107991524D01*
X218291640Y-108137391D01*
X218310895Y-108217594D01*
X218312788Y-108222165D01*
X218312789Y-108222167D01*
X218382278Y-108389928D01*
X218401760Y-108436963D01*
X218404346Y-108441183D01*
X218523241Y-108635202D01*
X218523245Y-108635208D01*
X218525824Y-108639416D01*
X218680031Y-108819969D01*
X218860584Y-108974176D01*
X218864792Y-108976755D01*
X218864798Y-108976759D01*
X219048851Y-109089547D01*
X219063037Y-109098240D01*
X219067607Y-109100133D01*
X219067611Y-109100135D01*
X219277833Y-109187211D01*
X219282406Y-109189105D01*
X219362609Y-109208360D01*
X219508476Y-109243380D01*
X219508482Y-109243381D01*
X219513289Y-109244535D01*
X219750000Y-109263165D01*
X219986711Y-109244535D01*
X219991518Y-109243381D01*
X219991524Y-109243380D01*
X220137391Y-109208360D01*
X220217594Y-109189105D01*
X220222167Y-109187211D01*
X220432389Y-109100135D01*
X220432393Y-109100133D01*
X220436963Y-109098240D01*
X220451149Y-109089547D01*
X220635202Y-108976759D01*
X220635208Y-108976755D01*
X220639416Y-108974176D01*
X220819969Y-108819969D01*
X220974176Y-108639416D01*
X220976758Y-108635202D01*
X220976765Y-108635193D01*
X221078814Y-108468665D01*
X221131461Y-108421034D01*
X221186246Y-108408500D01*
X224813754Y-108408500D01*
X224881875Y-108428502D01*
X224921186Y-108468665D01*
X225023235Y-108635193D01*
X225023242Y-108635202D01*
X225025824Y-108639416D01*
X225180031Y-108819969D01*
X225360584Y-108974176D01*
X225364792Y-108976755D01*
X225364798Y-108976759D01*
X225548851Y-109089547D01*
X225563037Y-109098240D01*
X225567607Y-109100133D01*
X225567611Y-109100135D01*
X225777833Y-109187211D01*
X225782406Y-109189105D01*
X225862609Y-109208360D01*
X226008476Y-109243380D01*
X226008482Y-109243381D01*
X226013289Y-109244535D01*
X226250000Y-109263165D01*
X226486711Y-109244535D01*
X226491518Y-109243381D01*
X226491524Y-109243380D01*
X226637391Y-109208360D01*
X226717594Y-109189105D01*
X226722167Y-109187211D01*
X226932389Y-109100135D01*
X226932393Y-109100133D01*
X226936963Y-109098240D01*
X226951149Y-109089547D01*
X227135202Y-108976759D01*
X227135208Y-108976755D01*
X227139416Y-108974176D01*
X227319969Y-108819969D01*
X227474176Y-108639416D01*
X227476755Y-108635208D01*
X227476759Y-108635202D01*
X227595654Y-108441183D01*
X227598240Y-108436963D01*
X227617723Y-108389928D01*
X227687211Y-108222167D01*
X227687212Y-108222165D01*
X227689105Y-108217594D01*
X227708360Y-108137391D01*
X227743380Y-107991524D01*
X227743381Y-107991518D01*
X227744535Y-107986711D01*
X227763165Y-107750000D01*
X227744535Y-107513289D01*
X227737562Y-107484242D01*
X227700491Y-107329834D01*
X227689105Y-107282406D01*
X227687211Y-107277833D01*
X227600135Y-107067611D01*
X227600133Y-107067607D01*
X227598240Y-107063037D01*
X227549818Y-106984020D01*
X227476759Y-106864798D01*
X227476755Y-106864792D01*
X227474176Y-106860584D01*
X227319969Y-106680031D01*
X227139416Y-106525824D01*
X227135203Y-106523242D01*
X227135193Y-106523235D01*
X226968665Y-106421186D01*
X226921034Y-106368539D01*
X226908500Y-106313754D01*
X226908500Y-102250000D01*
X228236835Y-102250000D01*
X228255465Y-102486711D01*
X228256619Y-102491518D01*
X228256620Y-102491524D01*
X228265401Y-102528099D01*
X228310895Y-102717594D01*
X228312788Y-102722165D01*
X228312789Y-102722167D01*
X228399770Y-102932158D01*
X228401760Y-102936963D01*
X228404346Y-102941183D01*
X228523241Y-103135202D01*
X228523245Y-103135208D01*
X228525824Y-103139416D01*
X228680031Y-103319969D01*
X228860584Y-103474176D01*
X228864792Y-103476755D01*
X228864798Y-103476759D01*
X229008122Y-103564588D01*
X229063037Y-103598240D01*
X229067607Y-103600133D01*
X229067611Y-103600135D01*
X229277833Y-103687211D01*
X229282406Y-103689105D01*
X229330349Y-103700615D01*
X229508476Y-103743380D01*
X229508482Y-103743381D01*
X229513289Y-103744535D01*
X229750000Y-103763165D01*
X229986711Y-103744535D01*
X229991518Y-103743381D01*
X229991524Y-103743380D01*
X230169651Y-103700615D01*
X230217594Y-103689105D01*
X230222167Y-103687211D01*
X230432389Y-103600135D01*
X230432393Y-103600133D01*
X230436963Y-103598240D01*
X230491878Y-103564588D01*
X230635202Y-103476759D01*
X230635208Y-103476755D01*
X230639416Y-103474176D01*
X230819969Y-103319969D01*
X230974176Y-103139416D01*
X230976755Y-103135208D01*
X230976759Y-103135202D01*
X231095654Y-102941183D01*
X231098240Y-102936963D01*
X231100135Y-102932389D01*
X231102381Y-102927980D01*
X231104390Y-102929004D01*
X231143060Y-102881008D01*
X231214931Y-102858500D01*
X234615500Y-102858500D01*
X234683621Y-102878502D01*
X234730114Y-102932158D01*
X234741500Y-102984500D01*
X234741500Y-103298134D01*
X234748255Y-103360316D01*
X234799385Y-103496705D01*
X234886739Y-103613261D01*
X235003295Y-103700615D01*
X235139684Y-103751745D01*
X235201866Y-103758500D01*
X237298134Y-103758500D01*
X237360316Y-103751745D01*
X237496705Y-103700615D01*
X237613261Y-103613261D01*
X237700615Y-103496705D01*
X237751745Y-103360316D01*
X237758500Y-103298134D01*
X237758500Y-101201866D01*
X237751745Y-101139684D01*
X237700615Y-101003295D01*
X237613261Y-100886739D01*
X237496705Y-100799385D01*
X237360316Y-100748255D01*
X237298134Y-100741500D01*
X235201866Y-100741500D01*
X235139684Y-100748255D01*
X235003295Y-100799385D01*
X234886739Y-100886739D01*
X234799385Y-101003295D01*
X234748255Y-101139684D01*
X234741500Y-101201866D01*
X234741500Y-101515500D01*
X234721498Y-101583621D01*
X234667842Y-101630114D01*
X234615500Y-101641500D01*
X231214931Y-101641500D01*
X231146810Y-101621498D01*
X231104543Y-101570918D01*
X231102381Y-101572020D01*
X231100135Y-101567611D01*
X231098240Y-101563037D01*
X231073558Y-101522760D01*
X230976759Y-101364798D01*
X230976755Y-101364792D01*
X230974176Y-101360584D01*
X230830473Y-101192330D01*
X230823177Y-101183787D01*
X230819969Y-101180031D01*
X230639416Y-101025824D01*
X230635208Y-101023245D01*
X230635202Y-101023241D01*
X230441183Y-100904346D01*
X230436963Y-100901760D01*
X230432393Y-100899867D01*
X230432389Y-100899865D01*
X230222167Y-100812789D01*
X230222165Y-100812788D01*
X230217594Y-100810895D01*
X230119051Y-100787237D01*
X229991524Y-100756620D01*
X229991518Y-100756619D01*
X229986711Y-100755465D01*
X229750000Y-100736835D01*
X229513289Y-100755465D01*
X229508482Y-100756619D01*
X229508476Y-100756620D01*
X229380949Y-100787237D01*
X229282406Y-100810895D01*
X229277835Y-100812788D01*
X229277833Y-100812789D01*
X229067611Y-100899865D01*
X229067607Y-100899867D01*
X229063037Y-100901760D01*
X229058817Y-100904346D01*
X228864798Y-101023241D01*
X228864792Y-101023245D01*
X228860584Y-101025824D01*
X228680031Y-101180031D01*
X228676823Y-101183787D01*
X228669527Y-101192330D01*
X228525824Y-101360584D01*
X228523245Y-101364792D01*
X228523241Y-101364798D01*
X228426442Y-101522760D01*
X228401760Y-101563037D01*
X228399867Y-101567607D01*
X228399865Y-101567611D01*
X228330643Y-101734729D01*
X228310895Y-101782406D01*
X228301597Y-101821134D01*
X228259405Y-101996878D01*
X228255465Y-102013289D01*
X228236835Y-102250000D01*
X226908500Y-102250000D01*
X226908500Y-101574950D01*
X226928502Y-101506829D01*
X226945405Y-101485855D01*
X229200051Y-99231209D01*
X229262363Y-99197183D01*
X229318560Y-99197785D01*
X229508476Y-99243380D01*
X229508482Y-99243381D01*
X229513289Y-99244535D01*
X229750000Y-99263165D01*
X229986711Y-99244535D01*
X229991518Y-99243381D01*
X229991524Y-99243380D01*
X230137391Y-99208360D01*
X230217594Y-99189105D01*
X230222167Y-99187211D01*
X230432389Y-99100135D01*
X230432393Y-99100133D01*
X230436963Y-99098240D01*
X230543312Y-99033069D01*
X230635202Y-98976759D01*
X230635208Y-98976755D01*
X230639416Y-98974176D01*
X230819969Y-98819969D01*
X230974176Y-98639416D01*
X230976758Y-98635202D01*
X230976765Y-98635193D01*
X231078814Y-98468665D01*
X231131461Y-98421034D01*
X231186246Y-98408500D01*
X234813754Y-98408500D01*
X234881875Y-98428502D01*
X234921186Y-98468665D01*
X235023235Y-98635193D01*
X235023242Y-98635202D01*
X235025824Y-98639416D01*
X235180031Y-98819969D01*
X235360584Y-98974176D01*
X235364792Y-98976755D01*
X235364798Y-98976759D01*
X235456688Y-99033069D01*
X235563037Y-99098240D01*
X235567607Y-99100133D01*
X235567611Y-99100135D01*
X235777833Y-99187211D01*
X235782406Y-99189105D01*
X235862609Y-99208360D01*
X236008476Y-99243380D01*
X236008482Y-99243381D01*
X236013289Y-99244535D01*
X236250000Y-99263165D01*
X236486711Y-99244535D01*
X236491518Y-99243381D01*
X236491524Y-99243380D01*
X236637391Y-99208360D01*
X236717594Y-99189105D01*
X236722167Y-99187211D01*
X236932389Y-99100135D01*
X236932393Y-99100133D01*
X236936963Y-99098240D01*
X237043312Y-99033069D01*
X237135202Y-98976759D01*
X237135208Y-98976755D01*
X237139416Y-98974176D01*
X237319969Y-98819969D01*
X237474176Y-98639416D01*
X237476755Y-98635208D01*
X237476759Y-98635202D01*
X237595654Y-98441183D01*
X237598240Y-98436963D01*
X237625333Y-98371556D01*
X237687211Y-98222167D01*
X237687212Y-98222165D01*
X237689105Y-98217594D01*
X237724136Y-98071680D01*
X237743380Y-97991524D01*
X237743381Y-97991518D01*
X237744535Y-97986711D01*
X237763165Y-97750000D01*
X237744535Y-97513289D01*
X237739769Y-97493435D01*
X237697729Y-97318327D01*
X237689105Y-97282406D01*
X237658651Y-97208882D01*
X237600135Y-97067611D01*
X237600133Y-97067607D01*
X237598240Y-97063037D01*
X237543374Y-96973504D01*
X237476759Y-96864798D01*
X237476755Y-96864792D01*
X237474176Y-96860584D01*
X237319969Y-96680031D01*
X237139416Y-96525824D01*
X237135208Y-96523245D01*
X237135202Y-96523241D01*
X236941183Y-96404346D01*
X236936963Y-96401760D01*
X236932393Y-96399867D01*
X236932389Y-96399865D01*
X236722167Y-96312789D01*
X236722165Y-96312788D01*
X236717594Y-96310895D01*
X236637391Y-96291640D01*
X236491524Y-96256620D01*
X236491518Y-96256619D01*
X236486711Y-96255465D01*
X236250000Y-96236835D01*
X236013289Y-96255465D01*
X236008482Y-96256619D01*
X236008476Y-96256620D01*
X235862609Y-96291640D01*
X235782406Y-96310895D01*
X235777835Y-96312788D01*
X235777833Y-96312789D01*
X235567611Y-96399865D01*
X235567607Y-96399867D01*
X235563037Y-96401760D01*
X235558817Y-96404346D01*
X235364798Y-96523241D01*
X235364792Y-96523245D01*
X235360584Y-96525824D01*
X235180031Y-96680031D01*
X235025824Y-96860584D01*
X235023242Y-96864797D01*
X235023235Y-96864807D01*
X234921186Y-97031335D01*
X234868539Y-97078966D01*
X234813754Y-97091500D01*
X231186246Y-97091500D01*
X231118125Y-97071498D01*
X231078814Y-97031335D01*
X230976765Y-96864807D01*
X230976758Y-96864797D01*
X230974176Y-96860584D01*
X230819969Y-96680031D01*
X230639416Y-96525824D01*
X230635201Y-96523241D01*
X230635193Y-96523235D01*
X230468665Y-96421186D01*
X230421034Y-96368539D01*
X230408500Y-96313754D01*
X230408500Y-91332056D01*
X230409059Y-91320200D01*
X230409059Y-91320197D01*
X230410788Y-91312463D01*
X230408562Y-91241631D01*
X230408500Y-91237673D01*
X230408500Y-91208568D01*
X230407944Y-91204168D01*
X230407012Y-91192330D01*
X230406211Y-91166812D01*
X230405562Y-91146169D01*
X230399580Y-91125579D01*
X230395570Y-91106216D01*
X230393875Y-91092796D01*
X230393875Y-91092795D01*
X230392882Y-91084936D01*
X230389966Y-91077571D01*
X230389965Y-91077567D01*
X230375876Y-91041982D01*
X230372031Y-91030753D01*
X230361356Y-90994010D01*
X230359145Y-90986399D01*
X230348230Y-90967943D01*
X230339531Y-90950187D01*
X230339182Y-90949307D01*
X230331635Y-90930244D01*
X230306161Y-90895182D01*
X230304480Y-90892868D01*
X230297965Y-90882949D01*
X230278492Y-90850023D01*
X230278489Y-90850019D01*
X230274452Y-90843193D01*
X230259291Y-90828032D01*
X230246449Y-90812997D01*
X230244083Y-90809740D01*
X230233841Y-90795643D01*
X230198241Y-90766192D01*
X230189462Y-90758203D01*
X227731209Y-88299949D01*
X227697183Y-88237637D01*
X227697785Y-88181440D01*
X227743380Y-87991524D01*
X227743381Y-87991518D01*
X227744535Y-87986711D01*
X227763165Y-87750000D01*
X227744535Y-87513289D01*
X227689105Y-87282406D01*
X227598240Y-87063037D01*
X227578813Y-87031335D01*
X227476759Y-86864798D01*
X227476755Y-86864792D01*
X227474176Y-86860584D01*
X227319969Y-86680031D01*
X227139416Y-86525824D01*
X227135208Y-86523245D01*
X227135202Y-86523241D01*
X226941183Y-86404346D01*
X226936963Y-86401760D01*
X226932393Y-86399867D01*
X226932389Y-86399865D01*
X226722167Y-86312789D01*
X226722165Y-86312788D01*
X226717594Y-86310895D01*
X226637391Y-86291640D01*
X226491524Y-86256620D01*
X226491518Y-86256619D01*
X226486711Y-86255465D01*
X226250000Y-86236835D01*
X226013289Y-86255465D01*
X226008482Y-86256619D01*
X226008476Y-86256620D01*
X225862609Y-86291640D01*
X225782406Y-86310895D01*
X225777835Y-86312788D01*
X225777833Y-86312789D01*
X225567611Y-86399865D01*
X225567607Y-86399867D01*
X225563037Y-86401760D01*
X225558817Y-86404346D01*
X225364798Y-86523241D01*
X225364792Y-86523245D01*
X225360584Y-86525824D01*
X225180031Y-86680031D01*
X225025824Y-86860584D01*
X225023242Y-86864797D01*
X225023235Y-86864807D01*
X224921186Y-87031335D01*
X224868539Y-87078966D01*
X224813754Y-87091500D01*
X221186246Y-87091500D01*
X221118125Y-87071498D01*
X221078814Y-87031335D01*
X220976765Y-86864807D01*
X220976758Y-86864797D01*
X220974176Y-86860584D01*
X220819969Y-86680031D01*
X220639416Y-86525824D01*
X220635208Y-86523245D01*
X220635202Y-86523241D01*
X220441183Y-86404346D01*
X220436963Y-86401760D01*
X220432393Y-86399867D01*
X220432389Y-86399865D01*
X220222167Y-86312789D01*
X220222165Y-86312788D01*
X220217594Y-86310895D01*
X220137391Y-86291640D01*
X219991524Y-86256620D01*
X219991518Y-86256619D01*
X219986711Y-86255465D01*
X219750000Y-86236835D01*
X219513289Y-86255465D01*
X219508482Y-86256619D01*
X219508476Y-86256620D01*
X219362609Y-86291640D01*
X219282406Y-86310895D01*
X219277835Y-86312788D01*
X219277833Y-86312789D01*
X219067611Y-86399865D01*
X219067607Y-86399867D01*
X219063037Y-86401760D01*
X219058817Y-86404346D01*
X218864798Y-86523241D01*
X218864792Y-86523245D01*
X218860584Y-86525824D01*
X218680031Y-86680031D01*
X218525824Y-86860584D01*
X218523245Y-86864792D01*
X218523241Y-86864798D01*
X218421187Y-87031335D01*
X218401760Y-87063037D01*
X218310895Y-87282406D01*
X218255465Y-87513289D01*
X218236835Y-87750000D01*
X218255465Y-87986711D01*
X218256619Y-87991518D01*
X218256620Y-87991524D01*
X218302215Y-88181440D01*
X218298668Y-88252348D01*
X218268791Y-88299949D01*
X215842395Y-90726345D01*
X215833615Y-90734335D01*
X215833613Y-90734337D01*
X215826920Y-90738584D01*
X215821494Y-90744362D01*
X215821493Y-90744363D01*
X215778396Y-90790257D01*
X215775641Y-90793099D01*
X215755073Y-90813667D01*
X215752356Y-90817170D01*
X215744648Y-90826195D01*
X215713028Y-90859867D01*
X215709207Y-90866818D01*
X215709206Y-90866819D01*
X215702697Y-90878658D01*
X215691843Y-90895182D01*
X215684018Y-90905271D01*
X215678696Y-90912132D01*
X215675549Y-90919404D01*
X215675548Y-90919406D01*
X215660346Y-90954535D01*
X215655124Y-90965195D01*
X215632876Y-91005663D01*
X215627541Y-91026441D01*
X215621142Y-91045131D01*
X215612620Y-91064824D01*
X215611380Y-91072655D01*
X215605394Y-91110448D01*
X215602987Y-91122071D01*
X215591500Y-91166812D01*
X215591500Y-91188258D01*
X215589949Y-91207968D01*
X215587834Y-91221322D01*
X215586594Y-91229152D01*
X215587400Y-91237673D01*
X215590941Y-91275138D01*
X215591500Y-91286996D01*
X215591500Y-96313754D01*
X215571498Y-96381875D01*
X215531335Y-96421186D01*
X215364807Y-96523235D01*
X215364799Y-96523241D01*
X215360584Y-96525824D01*
X215180031Y-96680031D01*
X215025824Y-96860584D01*
X215023242Y-96864797D01*
X215023235Y-96864807D01*
X214921186Y-97031335D01*
X214868539Y-97078966D01*
X214813754Y-97091500D01*
X211186246Y-97091500D01*
X211118125Y-97071498D01*
X211078814Y-97031335D01*
X210976765Y-96864807D01*
X210976758Y-96864797D01*
X210974176Y-96860584D01*
X210819969Y-96680031D01*
X210639416Y-96525824D01*
X210635208Y-96523245D01*
X210635202Y-96523241D01*
X210441183Y-96404346D01*
X210436963Y-96401760D01*
X210432393Y-96399867D01*
X210432389Y-96399865D01*
X210343771Y-96363159D01*
X210288490Y-96318611D01*
X210266069Y-96251248D01*
X210283627Y-96182456D01*
X210302894Y-96157655D01*
X210615144Y-95845405D01*
X210677456Y-95811379D01*
X210704239Y-95808500D01*
X210795487Y-95808500D01*
X210801939Y-95807128D01*
X210801944Y-95807128D01*
X210888888Y-95788647D01*
X210982288Y-95768794D01*
X211059752Y-95734305D01*
X211150722Y-95693803D01*
X211150724Y-95693802D01*
X211156752Y-95691118D01*
X211311253Y-95578866D01*
X211349512Y-95536375D01*
X211434621Y-95441852D01*
X211434622Y-95441851D01*
X211439040Y-95436944D01*
X211534527Y-95271556D01*
X211593542Y-95089928D01*
X211613504Y-94900000D01*
X211609354Y-94860516D01*
X211594232Y-94716635D01*
X211594232Y-94716633D01*
X211593542Y-94710072D01*
X211534527Y-94528444D01*
X211439040Y-94363056D01*
X211363911Y-94279616D01*
X211315675Y-94226045D01*
X211315674Y-94226044D01*
X211311253Y-94221134D01*
X211156752Y-94108882D01*
X211150724Y-94106198D01*
X211150722Y-94106197D01*
X210988319Y-94033891D01*
X210988318Y-94033891D01*
X210982288Y-94031206D01*
X210888887Y-94011353D01*
X210801944Y-93992872D01*
X210801939Y-93992872D01*
X210795487Y-93991500D01*
X210604513Y-93991500D01*
X210598061Y-93992872D01*
X210598056Y-93992872D01*
X210511113Y-94011353D01*
X210417712Y-94031206D01*
X210411682Y-94033891D01*
X210411681Y-94033891D01*
X210249278Y-94106197D01*
X210249276Y-94106198D01*
X210243248Y-94108882D01*
X210088747Y-94221134D01*
X210084326Y-94226044D01*
X210084325Y-94226045D01*
X210036090Y-94279616D01*
X209960960Y-94363056D01*
X209865473Y-94528444D01*
X209806458Y-94710072D01*
X209805768Y-94716633D01*
X209805768Y-94716635D01*
X209790646Y-94860516D01*
X209786496Y-94900000D01*
X209786684Y-94901786D01*
X209767184Y-94968196D01*
X209750281Y-94989170D01*
X207789856Y-96949595D01*
X207727544Y-96983621D01*
X207700761Y-96986500D01*
X189832021Y-96986500D01*
X189763900Y-96966498D01*
X189717407Y-96912842D01*
X189707303Y-96842568D01*
X189719064Y-96804673D01*
X189765136Y-96711453D01*
X189765137Y-96711451D01*
X189767430Y-96706811D01*
X189832370Y-96493069D01*
X189861529Y-96271590D01*
X189861611Y-96268240D01*
X189863074Y-96208365D01*
X189863074Y-96208361D01*
X189863156Y-96205000D01*
X189844852Y-95982361D01*
X189790431Y-95765702D01*
X189740010Y-95649742D01*
X189731189Y-95579296D01*
X189761856Y-95515264D01*
X189822272Y-95477976D01*
X189855559Y-95473500D01*
X206586864Y-95473500D01*
X206603307Y-95474578D01*
X206635000Y-95478750D01*
X206643189Y-95477672D01*
X206674874Y-95473501D01*
X206674884Y-95473500D01*
X206674885Y-95473500D01*
X206774457Y-95460391D01*
X206785664Y-95458916D01*
X206785666Y-95458915D01*
X206793851Y-95457838D01*
X206941876Y-95396524D01*
X207037072Y-95323477D01*
X207037075Y-95323474D01*
X207068987Y-95298987D01*
X207074017Y-95292432D01*
X207088452Y-95273621D01*
X207099319Y-95261230D01*
X207615144Y-94745405D01*
X207677456Y-94711379D01*
X207704239Y-94708500D01*
X207795487Y-94708500D01*
X207801939Y-94707128D01*
X207801944Y-94707128D01*
X207888888Y-94688647D01*
X207982288Y-94668794D01*
X208049346Y-94638938D01*
X208150722Y-94593803D01*
X208150724Y-94593802D01*
X208156752Y-94591118D01*
X208311253Y-94478866D01*
X208390311Y-94391063D01*
X208434621Y-94341852D01*
X208434622Y-94341851D01*
X208439040Y-94336944D01*
X208528011Y-94182842D01*
X208531223Y-94177279D01*
X208531224Y-94177278D01*
X208534527Y-94171556D01*
X208593542Y-93989928D01*
X208608297Y-93849547D01*
X208612814Y-93806565D01*
X208613504Y-93800000D01*
X208607715Y-93744923D01*
X208594232Y-93616635D01*
X208594232Y-93616633D01*
X208593542Y-93610072D01*
X208534527Y-93428444D01*
X208439040Y-93263056D01*
X208405407Y-93225702D01*
X208315675Y-93126045D01*
X208315674Y-93126044D01*
X208311253Y-93121134D01*
X208180057Y-93025814D01*
X208162094Y-93012763D01*
X208162093Y-93012762D01*
X208156752Y-93008882D01*
X208150724Y-93006198D01*
X208150722Y-93006197D01*
X207988319Y-92933891D01*
X207988318Y-92933891D01*
X207982288Y-92931206D01*
X207888888Y-92911353D01*
X207801944Y-92892872D01*
X207801939Y-92892872D01*
X207795487Y-92891500D01*
X207604513Y-92891500D01*
X207598061Y-92892872D01*
X207598056Y-92892872D01*
X207511113Y-92911353D01*
X207417712Y-92931206D01*
X207411682Y-92933891D01*
X207411681Y-92933891D01*
X207249278Y-93006197D01*
X207249276Y-93006198D01*
X207243248Y-93008882D01*
X207237907Y-93012762D01*
X207237906Y-93012763D01*
X207219943Y-93025814D01*
X207088747Y-93121134D01*
X207084326Y-93126044D01*
X207084325Y-93126045D01*
X206994594Y-93225702D01*
X206960960Y-93263056D01*
X206865473Y-93428444D01*
X206806458Y-93610072D01*
X206805768Y-93616633D01*
X206805768Y-93616635D01*
X206792285Y-93744923D01*
X206786496Y-93800000D01*
X206786684Y-93801786D01*
X206767184Y-93868196D01*
X206750281Y-93889170D01*
X206419856Y-94219595D01*
X206357544Y-94253621D01*
X206330761Y-94256500D01*
X189909627Y-94256500D01*
X189841506Y-94236498D01*
X189795013Y-94182842D01*
X189784909Y-94112568D01*
X189789068Y-94093872D01*
X189830379Y-93957903D01*
X189832555Y-93947837D01*
X189833986Y-93936962D01*
X189831775Y-93922778D01*
X189818617Y-93919000D01*
X187183225Y-93919000D01*
X187169694Y-93922973D01*
X187168257Y-93932966D01*
X187198565Y-94067446D01*
X187201645Y-94077275D01*
X187204008Y-94083096D01*
X187211104Y-94153737D01*
X187178882Y-94217001D01*
X187117572Y-94252801D01*
X187087265Y-94256500D01*
X153024351Y-94256500D01*
X152956230Y-94236498D01*
X152909737Y-94182842D01*
X152899633Y-94112568D01*
X152930713Y-94046192D01*
X152939040Y-94036944D01*
X153028642Y-93881749D01*
X153031223Y-93877279D01*
X153031224Y-93877278D01*
X153034527Y-93871556D01*
X153093542Y-93689928D01*
X153095809Y-93668365D01*
X153112814Y-93506565D01*
X153113504Y-93500000D01*
X153093644Y-93311043D01*
X153106416Y-93241205D01*
X153154918Y-93189358D01*
X153223751Y-93171964D01*
X153245147Y-93174625D01*
X153311500Y-93188729D01*
X153398056Y-93207128D01*
X153398061Y-93207128D01*
X153404513Y-93208500D01*
X153595487Y-93208500D01*
X153601939Y-93207128D01*
X153601944Y-93207128D01*
X153688888Y-93188647D01*
X153782288Y-93168794D01*
X153788319Y-93166109D01*
X153950722Y-93093803D01*
X153950724Y-93093802D01*
X153956752Y-93091118D01*
X154111253Y-92978866D01*
X154239040Y-92836944D01*
X154334527Y-92671556D01*
X154393542Y-92489928D01*
X154395686Y-92469535D01*
X154412814Y-92306565D01*
X154413504Y-92300000D01*
X154393542Y-92110072D01*
X154365294Y-92023134D01*
X187141500Y-92023134D01*
X187148255Y-92085316D01*
X187199385Y-92221705D01*
X187286739Y-92338261D01*
X187403295Y-92425615D01*
X187411704Y-92428767D01*
X187411705Y-92428768D01*
X187520960Y-92469726D01*
X187577725Y-92512367D01*
X187602425Y-92578929D01*
X187587218Y-92648278D01*
X187567825Y-92674759D01*
X187444590Y-92803717D01*
X187438104Y-92811727D01*
X187318098Y-92987649D01*
X187313000Y-92996623D01*
X187223338Y-93189783D01*
X187219775Y-93199470D01*
X187164389Y-93399183D01*
X187165912Y-93407607D01*
X187178292Y-93411000D01*
X189818344Y-93411000D01*
X189831875Y-93407027D01*
X189833180Y-93397947D01*
X189791214Y-93230875D01*
X189787894Y-93221124D01*
X189702972Y-93025814D01*
X189698105Y-93016739D01*
X189582426Y-92837926D01*
X189576136Y-92829757D01*
X189432293Y-92671677D01*
X189401241Y-92607831D01*
X189409635Y-92537333D01*
X189454812Y-92482564D01*
X189481256Y-92468895D01*
X189588297Y-92428767D01*
X189596705Y-92425615D01*
X189713261Y-92338261D01*
X189800615Y-92221705D01*
X189851745Y-92085316D01*
X189858500Y-92023134D01*
X189858500Y-90226866D01*
X189851745Y-90164684D01*
X189800615Y-90028295D01*
X189713261Y-89911739D01*
X189596705Y-89824385D01*
X189460316Y-89773255D01*
X189398134Y-89766500D01*
X187601866Y-89766500D01*
X187539684Y-89773255D01*
X187403295Y-89824385D01*
X187286739Y-89911739D01*
X187199385Y-90028295D01*
X187148255Y-90164684D01*
X187141500Y-90226866D01*
X187141500Y-92023134D01*
X154365294Y-92023134D01*
X154334527Y-91928444D01*
X154239040Y-91763056D01*
X154111253Y-91621134D01*
X153987656Y-91531335D01*
X153962094Y-91512763D01*
X153962093Y-91512762D01*
X153956752Y-91508882D01*
X153950724Y-91506198D01*
X153950722Y-91506197D01*
X153788319Y-91433891D01*
X153788318Y-91433891D01*
X153782288Y-91431206D01*
X153688887Y-91411353D01*
X153601944Y-91392872D01*
X153601939Y-91392872D01*
X153595487Y-91391500D01*
X153404513Y-91391500D01*
X153398061Y-91392872D01*
X153398056Y-91392872D01*
X153311113Y-91411353D01*
X153217712Y-91431206D01*
X153211682Y-91433891D01*
X153211681Y-91433891D01*
X153049278Y-91506197D01*
X153049276Y-91506198D01*
X153043248Y-91508882D01*
X153037907Y-91512762D01*
X153037906Y-91512763D01*
X152910329Y-91605454D01*
X152888747Y-91621134D01*
X152884334Y-91626036D01*
X152884332Y-91626037D01*
X152862926Y-91649811D01*
X152802480Y-91687050D01*
X152769290Y-91691500D01*
X151531210Y-91691500D01*
X151463089Y-91671498D01*
X151437574Y-91649811D01*
X151416168Y-91626037D01*
X151416166Y-91626036D01*
X151411753Y-91621134D01*
X151390171Y-91605454D01*
X151262594Y-91512763D01*
X151262593Y-91512762D01*
X151257252Y-91508882D01*
X151251224Y-91506198D01*
X151251222Y-91506197D01*
X151088819Y-91433891D01*
X151088818Y-91433891D01*
X151082788Y-91431206D01*
X150989387Y-91411353D01*
X150902444Y-91392872D01*
X150902439Y-91392872D01*
X150895987Y-91391500D01*
X150803308Y-91391500D01*
X150735187Y-91371498D01*
X150688694Y-91317842D01*
X150678590Y-91247568D01*
X150708084Y-91182988D01*
X150711816Y-91179183D01*
X150712253Y-91178866D01*
X150840040Y-91036944D01*
X150877824Y-90971500D01*
X150929206Y-90922507D01*
X150986943Y-90908500D01*
X151151864Y-90908500D01*
X151168307Y-90909578D01*
X151200000Y-90913750D01*
X151208189Y-90912672D01*
X151239874Y-90908501D01*
X151239884Y-90908500D01*
X151239885Y-90908500D01*
X151339457Y-90895391D01*
X151341045Y-90895182D01*
X151350664Y-90893916D01*
X151350666Y-90893915D01*
X151358851Y-90892838D01*
X151506876Y-90831524D01*
X151519463Y-90821866D01*
X151602072Y-90758477D01*
X151602075Y-90758474D01*
X151627437Y-90739013D01*
X151633987Y-90733987D01*
X151653447Y-90708627D01*
X151664312Y-90696237D01*
X152215143Y-90145405D01*
X152277456Y-90111380D01*
X152304239Y-90108500D01*
X152395487Y-90108500D01*
X152401939Y-90107128D01*
X152401944Y-90107128D01*
X152488887Y-90088647D01*
X152582288Y-90068794D01*
X152689391Y-90021109D01*
X152750722Y-89993803D01*
X152750724Y-89993802D01*
X152756752Y-89991118D01*
X152911253Y-89878866D01*
X153003848Y-89776029D01*
X153034621Y-89741852D01*
X153034622Y-89741851D01*
X153039040Y-89736944D01*
X153134527Y-89571556D01*
X153193542Y-89389928D01*
X153208783Y-89244923D01*
X153212814Y-89206565D01*
X153213504Y-89200000D01*
X153193542Y-89010072D01*
X153134527Y-88828444D01*
X153127466Y-88816213D01*
X153042341Y-88668774D01*
X153039040Y-88663056D01*
X153017755Y-88639416D01*
X152915675Y-88526045D01*
X152915674Y-88526044D01*
X152911253Y-88521134D01*
X152756752Y-88408882D01*
X152750724Y-88406198D01*
X152750722Y-88406197D01*
X152588319Y-88333891D01*
X152588318Y-88333891D01*
X152582288Y-88331206D01*
X152488887Y-88311353D01*
X152401944Y-88292872D01*
X152401939Y-88292872D01*
X152395487Y-88291500D01*
X152204513Y-88291500D01*
X152198061Y-88292872D01*
X152198056Y-88292872D01*
X152111112Y-88311353D01*
X152017712Y-88331206D01*
X152011682Y-88333891D01*
X152011681Y-88333891D01*
X151849278Y-88406197D01*
X151849276Y-88406198D01*
X151843248Y-88408882D01*
X151688747Y-88521134D01*
X151684326Y-88526044D01*
X151684325Y-88526045D01*
X151582246Y-88639416D01*
X151560960Y-88663056D01*
X151557659Y-88668774D01*
X151472535Y-88816213D01*
X151465473Y-88828444D01*
X151406458Y-89010072D01*
X151386496Y-89200000D01*
X151386684Y-89201786D01*
X151367184Y-89268196D01*
X151350281Y-89289170D01*
X150984856Y-89654595D01*
X150922544Y-89688621D01*
X150895761Y-89691500D01*
X150545494Y-89691500D01*
X150494245Y-89680607D01*
X150389319Y-89633891D01*
X150389318Y-89633891D01*
X150383288Y-89631206D01*
X150289887Y-89611353D01*
X150202944Y-89592872D01*
X150202939Y-89592872D01*
X150196487Y-89591500D01*
X150005513Y-89591500D01*
X149999061Y-89592872D01*
X149999056Y-89592872D01*
X149912112Y-89611353D01*
X149818712Y-89631206D01*
X149812682Y-89633891D01*
X149812681Y-89633891D01*
X149650278Y-89706197D01*
X149650276Y-89706198D01*
X149644248Y-89708882D01*
X149489747Y-89821134D01*
X149361960Y-89963056D01*
X149266473Y-90128444D01*
X149207458Y-90310072D01*
X149187496Y-90500000D01*
X149207458Y-90689928D01*
X149266473Y-90871556D01*
X149269776Y-90877278D01*
X149269777Y-90877279D01*
X149280234Y-90895391D01*
X149361960Y-91036944D01*
X149366378Y-91041851D01*
X149366379Y-91041852D01*
X149485325Y-91173955D01*
X149489747Y-91178866D01*
X149570688Y-91237673D01*
X149638575Y-91286996D01*
X149644248Y-91291118D01*
X149650276Y-91293802D01*
X149650278Y-91293803D01*
X149809757Y-91364807D01*
X149818712Y-91368794D01*
X149912113Y-91388647D01*
X149999056Y-91407128D01*
X149999061Y-91407128D01*
X150005513Y-91408500D01*
X150098192Y-91408500D01*
X150166313Y-91428502D01*
X150212806Y-91482158D01*
X150222910Y-91552432D01*
X150193416Y-91617012D01*
X150189684Y-91620817D01*
X150189247Y-91621134D01*
X150061460Y-91763056D01*
X149965973Y-91928444D01*
X149906958Y-92110072D01*
X149906269Y-92116631D01*
X149906268Y-92116634D01*
X149892962Y-92243236D01*
X149865949Y-92308892D01*
X149807727Y-92349522D01*
X149736782Y-92352225D01*
X149716404Y-92345172D01*
X149688823Y-92332892D01*
X149688815Y-92332889D01*
X149682788Y-92330206D01*
X149582514Y-92308892D01*
X149502444Y-92291872D01*
X149502439Y-92291872D01*
X149495987Y-92290500D01*
X149305013Y-92290500D01*
X149298561Y-92291872D01*
X149298556Y-92291872D01*
X149218486Y-92308892D01*
X149118212Y-92330206D01*
X149112182Y-92332891D01*
X149112181Y-92332891D01*
X148949778Y-92405197D01*
X148949776Y-92405198D01*
X148943748Y-92407882D01*
X148789247Y-92520134D01*
X148784826Y-92525044D01*
X148784825Y-92525045D01*
X148676246Y-92645635D01*
X148661460Y-92662056D01*
X148565973Y-92827444D01*
X148506958Y-93009072D01*
X148506268Y-93015633D01*
X148506268Y-93015635D01*
X148495588Y-93117251D01*
X148486996Y-93199000D01*
X148506958Y-93388928D01*
X148565973Y-93570556D01*
X148569276Y-93576278D01*
X148569277Y-93576279D01*
X148598308Y-93626562D01*
X148661460Y-93735944D01*
X148665878Y-93740851D01*
X148665879Y-93740852D01*
X148777906Y-93865271D01*
X148789247Y-93877866D01*
X148943748Y-93990118D01*
X148949776Y-93992802D01*
X148949778Y-93992803D01*
X149000517Y-94015393D01*
X149054612Y-94061373D01*
X149075262Y-94129300D01*
X149055910Y-94197608D01*
X149002699Y-94244610D01*
X148949268Y-94256500D01*
X148283136Y-94256500D01*
X148266693Y-94255422D01*
X148235000Y-94251250D01*
X148226811Y-94252328D01*
X148195126Y-94256499D01*
X148195117Y-94256500D01*
X148195115Y-94256500D01*
X148195109Y-94256501D01*
X148195107Y-94256501D01*
X148095543Y-94269609D01*
X148084336Y-94271084D01*
X148084334Y-94271085D01*
X148076149Y-94272162D01*
X147928124Y-94333476D01*
X147886437Y-94365464D01*
X147820219Y-94391063D01*
X147809735Y-94391500D01*
X147704513Y-94391500D01*
X147698061Y-94392872D01*
X147698056Y-94392872D01*
X147611113Y-94411353D01*
X147517712Y-94431206D01*
X147511682Y-94433891D01*
X147511681Y-94433891D01*
X147349278Y-94506197D01*
X147349276Y-94506198D01*
X147343248Y-94508882D01*
X147337907Y-94512762D01*
X147337906Y-94512763D01*
X147288734Y-94548489D01*
X147188747Y-94621134D01*
X147184326Y-94626044D01*
X147184325Y-94626045D01*
X147102758Y-94716635D01*
X147060960Y-94763056D01*
X146965473Y-94928444D01*
X146906458Y-95110072D01*
X146905768Y-95116633D01*
X146905768Y-95116635D01*
X146888884Y-95277279D01*
X146886496Y-95300000D01*
X146887186Y-95306565D01*
X146904845Y-95474578D01*
X146906458Y-95489928D01*
X146965473Y-95671556D01*
X147060960Y-95836944D01*
X147188747Y-95978866D01*
X147343248Y-96091118D01*
X147349276Y-96093802D01*
X147349278Y-96093803D01*
X147492008Y-96157350D01*
X147517712Y-96168794D01*
X147601515Y-96186607D01*
X147698056Y-96207128D01*
X147698061Y-96207128D01*
X147704513Y-96208500D01*
X147895487Y-96208500D01*
X147901939Y-96207128D01*
X147901944Y-96207128D01*
X147998485Y-96186607D01*
X148082288Y-96168794D01*
X148225025Y-96105244D01*
X148295390Y-96095810D01*
X148359687Y-96125916D01*
X148385390Y-96157349D01*
X148405582Y-96192322D01*
X148410000Y-96197229D01*
X148410001Y-96197230D01*
X148512345Y-96310895D01*
X148533369Y-96334244D01*
X148687870Y-96446496D01*
X148693898Y-96449180D01*
X148693900Y-96449181D01*
X148792475Y-96493069D01*
X148862334Y-96524172D01*
X148955734Y-96544025D01*
X149042678Y-96562506D01*
X149042683Y-96562506D01*
X149049135Y-96563878D01*
X149240109Y-96563878D01*
X149246561Y-96562506D01*
X149246566Y-96562506D01*
X149333510Y-96544025D01*
X149426910Y-96524172D01*
X149496769Y-96493069D01*
X149595344Y-96449181D01*
X149595346Y-96449180D01*
X149601374Y-96446496D01*
X149755875Y-96334244D01*
X149781696Y-96305567D01*
X149842142Y-96268328D01*
X149875332Y-96263878D01*
X153251139Y-96263878D01*
X153319260Y-96283880D01*
X153340234Y-96300783D01*
X153635685Y-96596234D01*
X153646552Y-96608625D01*
X153666013Y-96633987D01*
X153672563Y-96639013D01*
X153697921Y-96658471D01*
X153697937Y-96658485D01*
X153726017Y-96680031D01*
X153793124Y-96731524D01*
X153941149Y-96792838D01*
X153949336Y-96793916D01*
X153949337Y-96793916D01*
X153960542Y-96795391D01*
X153991738Y-96799498D01*
X154060115Y-96808500D01*
X154060118Y-96808500D01*
X154060126Y-96808501D01*
X154091811Y-96812672D01*
X154100000Y-96813750D01*
X154131693Y-96809578D01*
X154148136Y-96808500D01*
X159480245Y-96808500D01*
X159548366Y-96828502D01*
X159594859Y-96882158D01*
X159604963Y-96952432D01*
X159575469Y-97017012D01*
X159528465Y-97050908D01*
X159498124Y-97063476D01*
X159459815Y-97092872D01*
X159402937Y-97136515D01*
X159402921Y-97136529D01*
X159377566Y-97155984D01*
X159377563Y-97155987D01*
X159371013Y-97161013D01*
X159365983Y-97167568D01*
X159351548Y-97186379D01*
X159340681Y-97198770D01*
X158884856Y-97654595D01*
X158822544Y-97688621D01*
X158795761Y-97691500D01*
X158704513Y-97691500D01*
X158698061Y-97692872D01*
X158698056Y-97692872D01*
X158611113Y-97711353D01*
X158517712Y-97731206D01*
X158511682Y-97733891D01*
X158511681Y-97733891D01*
X158349278Y-97806197D01*
X158349276Y-97806198D01*
X158343248Y-97808882D01*
X158188747Y-97921134D01*
X158184326Y-97926044D01*
X158184325Y-97926045D01*
X158125368Y-97991524D01*
X158060960Y-98063056D01*
X157982979Y-98198123D01*
X157931598Y-98247115D01*
X157861884Y-98260551D01*
X157795973Y-98234165D01*
X157784766Y-98224217D01*
X157649719Y-98089170D01*
X157615693Y-98026858D01*
X157613159Y-98003284D01*
X157613504Y-98000000D01*
X157593542Y-97810072D01*
X157534527Y-97628444D01*
X157439040Y-97463056D01*
X157415088Y-97436454D01*
X157315675Y-97326045D01*
X157315674Y-97326044D01*
X157311253Y-97321134D01*
X157156752Y-97208882D01*
X157150724Y-97206198D01*
X157150722Y-97206197D01*
X156988319Y-97133891D01*
X156988318Y-97133891D01*
X156982288Y-97131206D01*
X156888888Y-97111353D01*
X156801944Y-97092872D01*
X156801939Y-97092872D01*
X156795487Y-97091500D01*
X156604513Y-97091500D01*
X156598061Y-97092872D01*
X156598056Y-97092872D01*
X156511112Y-97111353D01*
X156417712Y-97131206D01*
X156411682Y-97133891D01*
X156411681Y-97133891D01*
X156249278Y-97206197D01*
X156249276Y-97206198D01*
X156243248Y-97208882D01*
X156088747Y-97321134D01*
X156084326Y-97326044D01*
X156084325Y-97326045D01*
X155984913Y-97436454D01*
X155960960Y-97463056D01*
X155865473Y-97628444D01*
X155806458Y-97810072D01*
X155786496Y-98000000D01*
X155787186Y-98006565D01*
X155805724Y-98182941D01*
X155806458Y-98189928D01*
X155865473Y-98371556D01*
X155960960Y-98536944D01*
X155965378Y-98541851D01*
X155965379Y-98541852D01*
X155974589Y-98552081D01*
X156088747Y-98678866D01*
X156159710Y-98730424D01*
X156219005Y-98773504D01*
X156243248Y-98791118D01*
X156249276Y-98793802D01*
X156249278Y-98793803D01*
X156411681Y-98866109D01*
X156417712Y-98868794D01*
X156511112Y-98888647D01*
X156598056Y-98907128D01*
X156598061Y-98907128D01*
X156604513Y-98908500D01*
X156695761Y-98908500D01*
X156763882Y-98928502D01*
X156784856Y-98945405D01*
X158054595Y-100215144D01*
X158088621Y-100277456D01*
X158091500Y-100304239D01*
X158091500Y-100832148D01*
X158071498Y-100900269D01*
X158017842Y-100946762D01*
X157947568Y-100956866D01*
X157891441Y-100934085D01*
X157856752Y-100908882D01*
X157850724Y-100906198D01*
X157850722Y-100906197D01*
X157688319Y-100833891D01*
X157688318Y-100833891D01*
X157682288Y-100831206D01*
X157581299Y-100809740D01*
X157501944Y-100792872D01*
X157501939Y-100792872D01*
X157495487Y-100791500D01*
X157304513Y-100791500D01*
X157298061Y-100792872D01*
X157298056Y-100792872D01*
X157218701Y-100809740D01*
X157117712Y-100831206D01*
X157111682Y-100833891D01*
X157111681Y-100833891D01*
X156949278Y-100906197D01*
X156949276Y-100906198D01*
X156943248Y-100908882D01*
X156937907Y-100912762D01*
X156937906Y-100912763D01*
X156904624Y-100936944D01*
X156788747Y-101021134D01*
X156784326Y-101026044D01*
X156784325Y-101026045D01*
X156674931Y-101147540D01*
X156660960Y-101163056D01*
X156565473Y-101328444D01*
X156506458Y-101510072D01*
X156505768Y-101516633D01*
X156505768Y-101516635D01*
X156488244Y-101683365D01*
X156486496Y-101700000D01*
X156487186Y-101706565D01*
X156503484Y-101861634D01*
X156490712Y-101931472D01*
X156442210Y-101983319D01*
X156404371Y-101998051D01*
X156355327Y-102008476D01*
X156223090Y-102036584D01*
X156217060Y-102039269D01*
X156217059Y-102039269D01*
X156054656Y-102111575D01*
X156054654Y-102111576D01*
X156048626Y-102114260D01*
X155894125Y-102226512D01*
X155889704Y-102231422D01*
X155889703Y-102231423D01*
X155801691Y-102329171D01*
X155766338Y-102368434D01*
X155670851Y-102533822D01*
X155611836Y-102715450D01*
X155591874Y-102905378D01*
X155592564Y-102911943D01*
X155601569Y-102997617D01*
X155611836Y-103095306D01*
X155670851Y-103276934D01*
X155674154Y-103282656D01*
X155674155Y-103282657D01*
X155680590Y-103293803D01*
X155766338Y-103442322D01*
X155770756Y-103447229D01*
X155770757Y-103447230D01*
X155876427Y-103564588D01*
X155894125Y-103584244D01*
X155899472Y-103588129D01*
X155899811Y-103588434D01*
X155937050Y-103648880D01*
X155941500Y-103682070D01*
X155941500Y-105975050D01*
X155921498Y-106043171D01*
X155904595Y-106064145D01*
X154714145Y-107254595D01*
X154651833Y-107288621D01*
X154625050Y-107291500D01*
X154604513Y-107291500D01*
X154598061Y-107292872D01*
X154598056Y-107292872D01*
X154511112Y-107311353D01*
X154417712Y-107331206D01*
X154411682Y-107333891D01*
X154411681Y-107333891D01*
X154249278Y-107406197D01*
X154249276Y-107406198D01*
X154243248Y-107408882D01*
X154088747Y-107521134D01*
X153960960Y-107663056D01*
X153865473Y-107828444D01*
X153806458Y-108010072D01*
X153786496Y-108200000D01*
X153806458Y-108389928D01*
X153865473Y-108571556D01*
X153960960Y-108736944D01*
X154088747Y-108878866D01*
X154129349Y-108908365D01*
X154223485Y-108976759D01*
X154243248Y-108991118D01*
X154249276Y-108993802D01*
X154249278Y-108993803D01*
X154411681Y-109066109D01*
X154417712Y-109068794D01*
X154511112Y-109088647D01*
X154598056Y-109107128D01*
X154598061Y-109107128D01*
X154604513Y-109108500D01*
X154795487Y-109108500D01*
X154801939Y-109107128D01*
X154801944Y-109107128D01*
X154888887Y-109088647D01*
X154982288Y-109068794D01*
X154988319Y-109066109D01*
X155150722Y-108993803D01*
X155150724Y-108993802D01*
X155156752Y-108991118D01*
X155176516Y-108976759D01*
X155270651Y-108908365D01*
X155311253Y-108878866D01*
X155439040Y-108736944D01*
X155534527Y-108571556D01*
X155579123Y-108434305D01*
X155591502Y-108396207D01*
X155591502Y-108396205D01*
X155593542Y-108389928D01*
X155606755Y-108264213D01*
X155633768Y-108198558D01*
X155642970Y-108188290D01*
X156726405Y-107104855D01*
X156788717Y-107070829D01*
X156859532Y-107075894D01*
X156916368Y-107118441D01*
X156941179Y-107184961D01*
X156941500Y-107193950D01*
X156941500Y-109475051D01*
X156921498Y-109543172D01*
X156904595Y-109564146D01*
X153193193Y-113275547D01*
X152524571Y-113944169D01*
X152462259Y-113978195D01*
X152391443Y-113973130D01*
X152334608Y-113930583D01*
X152310166Y-113868244D01*
X152294232Y-113716635D01*
X152294232Y-113716633D01*
X152293542Y-113710072D01*
X152234527Y-113528444D01*
X152216203Y-113496705D01*
X152142341Y-113368774D01*
X152139040Y-113363056D01*
X152129500Y-113352460D01*
X152015675Y-113226045D01*
X152015674Y-113226044D01*
X152011253Y-113221134D01*
X151856752Y-113108882D01*
X151850724Y-113106198D01*
X151850722Y-113106197D01*
X151688319Y-113033891D01*
X151688318Y-113033891D01*
X151682288Y-113031206D01*
X151588887Y-113011353D01*
X151501944Y-112992872D01*
X151501939Y-112992872D01*
X151495487Y-112991500D01*
X151304513Y-112991500D01*
X151298061Y-112992872D01*
X151298056Y-112992872D01*
X151211113Y-113011353D01*
X151117712Y-113031206D01*
X151111682Y-113033891D01*
X151111681Y-113033891D01*
X150949278Y-113106197D01*
X150949276Y-113106198D01*
X150943248Y-113108882D01*
X150794092Y-113217251D01*
X150793837Y-113217436D01*
X150726969Y-113241294D01*
X150719776Y-113241500D01*
X149624949Y-113241500D01*
X149556828Y-113221498D01*
X149535854Y-113204595D01*
X142254662Y-105923402D01*
X142220636Y-105861090D01*
X142225701Y-105790275D01*
X142228650Y-105783059D01*
X142231226Y-105777274D01*
X142234527Y-105771556D01*
X142252228Y-105717080D01*
X142279000Y-105634684D01*
X142293542Y-105589928D01*
X142296046Y-105566109D01*
X142312814Y-105406565D01*
X142313504Y-105400000D01*
X142296882Y-105241852D01*
X142294232Y-105216635D01*
X142294232Y-105216633D01*
X142293542Y-105210072D01*
X142284918Y-105183530D01*
X149002966Y-105183530D01*
X149003656Y-105190095D01*
X149020397Y-105349373D01*
X149022928Y-105373458D01*
X149081943Y-105555086D01*
X149085246Y-105560808D01*
X149085247Y-105560809D01*
X149112782Y-105608500D01*
X149177430Y-105720474D01*
X149181848Y-105725381D01*
X149181849Y-105725382D01*
X149274612Y-105828406D01*
X149305217Y-105862396D01*
X149459718Y-105974648D01*
X149465746Y-105977332D01*
X149465748Y-105977333D01*
X149577842Y-106027240D01*
X149634182Y-106052324D01*
X149727583Y-106072177D01*
X149814526Y-106090658D01*
X149814531Y-106090658D01*
X149820983Y-106092030D01*
X150011957Y-106092030D01*
X150018409Y-106090658D01*
X150018414Y-106090658D01*
X150105357Y-106072177D01*
X150198758Y-106052324D01*
X150255098Y-106027240D01*
X150367192Y-105977333D01*
X150367194Y-105977332D01*
X150373222Y-105974648D01*
X150527723Y-105862396D01*
X150638674Y-105739173D01*
X150699116Y-105701935D01*
X150715862Y-105698563D01*
X150724986Y-105697362D01*
X150739958Y-105695391D01*
X150751164Y-105693916D01*
X150751166Y-105693915D01*
X150759351Y-105692838D01*
X150907376Y-105631524D01*
X150937382Y-105608500D01*
X151002572Y-105558477D01*
X151002575Y-105558474D01*
X151027937Y-105539013D01*
X151034487Y-105533987D01*
X151053958Y-105508613D01*
X151064816Y-105496233D01*
X151415144Y-105145905D01*
X151477456Y-105111879D01*
X151504239Y-105109000D01*
X151595487Y-105109000D01*
X151601939Y-105107628D01*
X151601944Y-105107628D01*
X151699360Y-105086921D01*
X151782288Y-105069294D01*
X151859923Y-105034729D01*
X151950722Y-104994303D01*
X151950724Y-104994302D01*
X151956752Y-104991618D01*
X152111253Y-104879366D01*
X152177086Y-104806251D01*
X152234621Y-104742352D01*
X152234622Y-104742351D01*
X152239040Y-104737444D01*
X152312141Y-104610830D01*
X152331223Y-104577779D01*
X152331224Y-104577778D01*
X152334527Y-104572056D01*
X152393542Y-104390428D01*
X152399741Y-104331453D01*
X152412814Y-104207065D01*
X152413504Y-104200500D01*
X152409053Y-104158148D01*
X152394232Y-104017135D01*
X152394232Y-104017133D01*
X152393542Y-104010572D01*
X152334527Y-103828944D01*
X152330314Y-103821646D01*
X152291601Y-103754595D01*
X152239040Y-103663556D01*
X152163205Y-103579332D01*
X152115675Y-103526545D01*
X152115674Y-103526544D01*
X152111253Y-103521634D01*
X151956752Y-103409382D01*
X151950724Y-103406698D01*
X151950722Y-103406697D01*
X151788319Y-103334391D01*
X151788318Y-103334391D01*
X151782288Y-103331706D01*
X151688887Y-103311853D01*
X151601944Y-103293372D01*
X151601939Y-103293372D01*
X151595487Y-103292000D01*
X151404513Y-103292000D01*
X151398061Y-103293372D01*
X151398056Y-103293372D01*
X151311113Y-103311853D01*
X151217712Y-103331706D01*
X151211682Y-103334391D01*
X151211681Y-103334391D01*
X151049278Y-103406697D01*
X151049276Y-103406698D01*
X151043248Y-103409382D01*
X150888747Y-103521634D01*
X150884326Y-103526544D01*
X150884325Y-103526545D01*
X150836796Y-103579332D01*
X150760960Y-103663556D01*
X150708399Y-103754595D01*
X150669687Y-103821646D01*
X150665473Y-103828944D01*
X150606458Y-104010572D01*
X150605768Y-104017133D01*
X150605768Y-104017135D01*
X150590947Y-104158148D01*
X150586496Y-104200500D01*
X150586684Y-104202286D01*
X150567184Y-104268696D01*
X150550281Y-104289670D01*
X150485878Y-104354073D01*
X150423566Y-104388099D01*
X150352751Y-104383034D01*
X150345546Y-104380090D01*
X150216693Y-104322721D01*
X150204789Y-104317421D01*
X150204788Y-104317421D01*
X150198758Y-104314736D01*
X150105357Y-104294883D01*
X150018414Y-104276402D01*
X150018409Y-104276402D01*
X150011957Y-104275030D01*
X149820983Y-104275030D01*
X149814531Y-104276402D01*
X149814526Y-104276402D01*
X149727583Y-104294883D01*
X149634182Y-104314736D01*
X149628152Y-104317421D01*
X149628151Y-104317421D01*
X149465748Y-104389727D01*
X149465746Y-104389728D01*
X149459718Y-104392412D01*
X149454377Y-104396292D01*
X149454376Y-104396293D01*
X149416675Y-104423685D01*
X149305217Y-104504664D01*
X149300796Y-104509574D01*
X149300795Y-104509575D01*
X149281255Y-104531277D01*
X149177430Y-104646586D01*
X149081943Y-104811974D01*
X149022928Y-104993602D01*
X149022238Y-105000163D01*
X149022238Y-105000165D01*
X149010867Y-105108357D01*
X149002966Y-105183530D01*
X142284918Y-105183530D01*
X142234527Y-105028444D01*
X142213266Y-104991618D01*
X142158179Y-104896206D01*
X142139040Y-104863056D01*
X142011253Y-104721134D01*
X141891310Y-104633990D01*
X141862094Y-104612763D01*
X141862093Y-104612762D01*
X141856752Y-104608882D01*
X141850724Y-104606198D01*
X141850722Y-104606197D01*
X141688319Y-104533891D01*
X141688318Y-104533891D01*
X141682288Y-104531206D01*
X141580523Y-104509575D01*
X141501944Y-104492872D01*
X141501939Y-104492872D01*
X141495487Y-104491500D01*
X141304513Y-104491500D01*
X141298061Y-104492872D01*
X141298056Y-104492872D01*
X141219477Y-104509575D01*
X141117712Y-104531206D01*
X141111682Y-104533891D01*
X141111681Y-104533891D01*
X140949278Y-104606197D01*
X140949276Y-104606198D01*
X140943248Y-104608882D01*
X140937907Y-104612762D01*
X140937906Y-104612763D01*
X140908690Y-104633990D01*
X140794092Y-104717251D01*
X140793837Y-104717436D01*
X140726969Y-104741294D01*
X140719776Y-104741500D01*
X139175729Y-104741500D01*
X139107608Y-104721498D01*
X139082093Y-104699810D01*
X139015675Y-104626045D01*
X139015674Y-104626044D01*
X139011253Y-104621134D01*
X138856752Y-104508882D01*
X138850724Y-104506198D01*
X138850722Y-104506197D01*
X138688319Y-104433891D01*
X138688318Y-104433891D01*
X138682288Y-104431206D01*
X138588887Y-104411353D01*
X138501944Y-104392872D01*
X138501939Y-104392872D01*
X138495487Y-104391500D01*
X138304513Y-104391500D01*
X138298061Y-104392872D01*
X138298056Y-104392872D01*
X138211113Y-104411353D01*
X138117712Y-104431206D01*
X138111682Y-104433891D01*
X138111681Y-104433891D01*
X137973064Y-104495607D01*
X137921815Y-104506500D01*
X112881233Y-104506500D01*
X112813112Y-104486498D01*
X112766619Y-104432842D01*
X112756515Y-104362568D01*
X112764082Y-104334114D01*
X112765136Y-104331453D01*
X112767430Y-104326811D01*
X112782746Y-104276402D01*
X112830865Y-104118023D01*
X112830865Y-104118021D01*
X112832370Y-104113069D01*
X112861529Y-103891590D01*
X112862939Y-103833891D01*
X112863074Y-103828365D01*
X112863074Y-103828361D01*
X112863156Y-103825000D01*
X112844852Y-103602361D01*
X112790431Y-103385702D01*
X112701354Y-103180840D01*
X112611439Y-103041852D01*
X112582822Y-102997617D01*
X112582820Y-102997614D01*
X112580014Y-102993277D01*
X112429670Y-102828051D01*
X112425619Y-102824852D01*
X112425615Y-102824848D01*
X112258414Y-102692800D01*
X112258410Y-102692798D01*
X112254359Y-102689598D01*
X112213053Y-102666796D01*
X112163084Y-102616364D01*
X112148312Y-102546921D01*
X112173428Y-102480516D01*
X112200780Y-102453909D01*
X112264441Y-102408500D01*
X112379860Y-102326173D01*
X112389432Y-102316635D01*
X112523786Y-102182749D01*
X112538096Y-102168489D01*
X112570984Y-102122721D01*
X112665435Y-101991277D01*
X112668453Y-101987077D01*
X112703268Y-101916635D01*
X112765136Y-101791453D01*
X112765137Y-101791451D01*
X112767430Y-101786811D01*
X112832370Y-101573069D01*
X112861529Y-101351590D01*
X112862095Y-101328444D01*
X112863074Y-101288365D01*
X112863074Y-101288361D01*
X112863156Y-101285000D01*
X112844852Y-101062361D01*
X112790431Y-100845702D01*
X112727078Y-100700000D01*
X136886496Y-100700000D01*
X136887186Y-100706565D01*
X136903955Y-100866109D01*
X136906458Y-100889928D01*
X136965473Y-101071556D01*
X136968776Y-101077278D01*
X136968777Y-101077279D01*
X136994638Y-101122071D01*
X137060960Y-101236944D01*
X137065378Y-101241851D01*
X137065379Y-101241852D01*
X137167175Y-101354908D01*
X137188747Y-101378866D01*
X137241579Y-101417251D01*
X137336003Y-101485854D01*
X137343248Y-101491118D01*
X137349276Y-101493802D01*
X137349278Y-101493803D01*
X137504824Y-101563056D01*
X137517712Y-101568794D01*
X137611112Y-101588647D01*
X137698056Y-101607128D01*
X137698061Y-101607128D01*
X137704513Y-101608500D01*
X137895487Y-101608500D01*
X137901939Y-101607128D01*
X137901944Y-101607128D01*
X137988887Y-101588647D01*
X138082288Y-101568794D01*
X138095176Y-101563056D01*
X138250722Y-101493803D01*
X138250724Y-101493802D01*
X138256752Y-101491118D01*
X138263998Y-101485854D01*
X138358421Y-101417251D01*
X138411253Y-101378866D01*
X138432825Y-101354908D01*
X138534621Y-101241852D01*
X138534622Y-101241851D01*
X138539040Y-101236944D01*
X138634527Y-101071556D01*
X138637176Y-101073085D01*
X138674650Y-101029086D01*
X138743671Y-101008500D01*
X140095761Y-101008500D01*
X140163882Y-101028502D01*
X140184856Y-101045405D01*
X140550281Y-101410830D01*
X140584307Y-101473142D01*
X140586841Y-101496716D01*
X140586496Y-101500000D01*
X140587186Y-101506565D01*
X140594066Y-101572020D01*
X140606458Y-101689928D01*
X140665473Y-101871556D01*
X140760960Y-102036944D01*
X140765378Y-102041851D01*
X140765379Y-102041852D01*
X140882688Y-102172137D01*
X140888747Y-102178866D01*
X140954326Y-102226512D01*
X141018208Y-102272925D01*
X141043248Y-102291118D01*
X141049276Y-102293802D01*
X141049278Y-102293803D01*
X141211681Y-102366109D01*
X141217712Y-102368794D01*
X141311113Y-102388647D01*
X141398056Y-102407128D01*
X141398061Y-102407128D01*
X141404513Y-102408500D01*
X141595487Y-102408500D01*
X141601939Y-102407128D01*
X141601944Y-102407128D01*
X141688887Y-102388647D01*
X141782288Y-102368794D01*
X141788319Y-102366109D01*
X141950722Y-102293803D01*
X141950724Y-102293802D01*
X141956752Y-102291118D01*
X141981793Y-102272925D01*
X142045674Y-102226512D01*
X142111253Y-102178866D01*
X142117312Y-102172137D01*
X142234621Y-102041852D01*
X142234622Y-102041851D01*
X142239040Y-102036944D01*
X142334527Y-101871556D01*
X142393542Y-101689928D01*
X142405935Y-101572020D01*
X142412814Y-101506565D01*
X142413504Y-101500000D01*
X142401181Y-101382749D01*
X142394232Y-101316635D01*
X142394232Y-101316633D01*
X142393542Y-101310072D01*
X142334527Y-101128444D01*
X142239040Y-100963056D01*
X142199738Y-100919406D01*
X142115675Y-100826045D01*
X142115674Y-100826044D01*
X142111253Y-100821134D01*
X141956752Y-100708882D01*
X141950724Y-100706198D01*
X141950722Y-100706197D01*
X141880310Y-100674848D01*
X141826214Y-100628868D01*
X141805565Y-100560941D01*
X141824917Y-100492633D01*
X141878128Y-100445631D01*
X141919701Y-100434300D01*
X141956826Y-100430791D01*
X141968682Y-100430232D01*
X142277998Y-100430232D01*
X142346119Y-100450234D01*
X142352056Y-100454294D01*
X142356630Y-100457617D01*
X142494762Y-100557976D01*
X142501470Y-100562850D01*
X142507498Y-100565534D01*
X142507500Y-100565535D01*
X142664571Y-100635467D01*
X142675934Y-100640526D01*
X142769335Y-100660379D01*
X142856278Y-100678860D01*
X142856283Y-100678860D01*
X142862735Y-100680232D01*
X143053709Y-100680232D01*
X143060161Y-100678860D01*
X143060166Y-100678860D01*
X143147109Y-100660379D01*
X143240510Y-100640526D01*
X143251873Y-100635467D01*
X143408944Y-100565535D01*
X143408946Y-100565534D01*
X143414974Y-100562850D01*
X143421683Y-100557976D01*
X143525223Y-100482749D01*
X143569475Y-100450598D01*
X143587813Y-100430232D01*
X143692843Y-100313584D01*
X143692844Y-100313583D01*
X143697262Y-100308676D01*
X143768115Y-100185956D01*
X143789445Y-100149011D01*
X143789446Y-100149010D01*
X143792749Y-100143288D01*
X143831933Y-100022693D01*
X143872007Y-99964088D01*
X143925567Y-99938384D01*
X143940802Y-99935145D01*
X143940804Y-99935144D01*
X143947265Y-99933771D01*
X143953296Y-99931086D01*
X144115699Y-99858780D01*
X144115701Y-99858779D01*
X144121729Y-99856095D01*
X144276230Y-99743843D01*
X144286506Y-99732430D01*
X144399598Y-99606829D01*
X144399599Y-99606828D01*
X144404017Y-99601921D01*
X144490992Y-99451277D01*
X144496200Y-99442256D01*
X144496201Y-99442255D01*
X144499504Y-99436533D01*
X144542335Y-99304714D01*
X144582409Y-99246109D01*
X144635971Y-99220405D01*
X144660824Y-99215122D01*
X144667288Y-99213748D01*
X144704494Y-99197183D01*
X144835722Y-99138757D01*
X144835724Y-99138756D01*
X144841752Y-99136072D01*
X144848450Y-99131206D01*
X144976704Y-99038023D01*
X144996253Y-99023820D01*
X145071935Y-98939767D01*
X145119621Y-98886806D01*
X145119622Y-98886805D01*
X145124040Y-98881898D01*
X145191349Y-98765316D01*
X145216223Y-98722233D01*
X145216224Y-98722232D01*
X145219527Y-98716510D01*
X145278542Y-98534882D01*
X145283305Y-98489570D01*
X145297814Y-98351519D01*
X145298504Y-98344954D01*
X145294906Y-98310720D01*
X145279232Y-98161589D01*
X145279232Y-98161587D01*
X145278542Y-98155026D01*
X145219527Y-97973398D01*
X145124040Y-97808010D01*
X145073492Y-97751870D01*
X145000675Y-97670999D01*
X145000674Y-97670998D01*
X144996253Y-97666088D01*
X144841752Y-97553836D01*
X144835724Y-97551152D01*
X144835722Y-97551151D01*
X144673319Y-97478845D01*
X144673318Y-97478845D01*
X144667288Y-97476160D01*
X144573888Y-97456307D01*
X144486944Y-97437826D01*
X144486939Y-97437826D01*
X144480487Y-97436454D01*
X144389239Y-97436454D01*
X144321118Y-97416452D01*
X144300144Y-97399549D01*
X144004361Y-97103766D01*
X143993494Y-97091375D01*
X143979059Y-97072563D01*
X143974033Y-97066013D01*
X143942121Y-97041526D01*
X143942118Y-97041523D01*
X143906237Y-97013990D01*
X143853475Y-96973504D01*
X143853473Y-96973503D01*
X143846922Y-96968476D01*
X143698897Y-96907162D01*
X143690710Y-96906084D01*
X143690709Y-96906084D01*
X143679504Y-96904609D01*
X143648308Y-96900502D01*
X143579931Y-96891500D01*
X143579928Y-96891500D01*
X143579920Y-96891499D01*
X143548235Y-96887328D01*
X143540046Y-96886250D01*
X143508353Y-96890422D01*
X143491910Y-96891500D01*
X143181210Y-96891500D01*
X143113089Y-96871498D01*
X143087574Y-96849811D01*
X143066168Y-96826037D01*
X143066166Y-96826036D01*
X143061753Y-96821134D01*
X142907252Y-96708882D01*
X142901224Y-96706198D01*
X142901222Y-96706197D01*
X142738819Y-96633891D01*
X142738818Y-96633891D01*
X142732788Y-96631206D01*
X142639388Y-96611353D01*
X142552444Y-96592872D01*
X142552439Y-96592872D01*
X142545987Y-96591500D01*
X142355013Y-96591500D01*
X142348561Y-96592872D01*
X142348556Y-96592872D01*
X142261612Y-96611353D01*
X142168212Y-96631206D01*
X142162182Y-96633891D01*
X142162181Y-96633891D01*
X141999778Y-96706197D01*
X141999776Y-96706198D01*
X141993748Y-96708882D01*
X141839247Y-96821134D01*
X141834826Y-96826044D01*
X141834825Y-96826045D01*
X141766041Y-96902438D01*
X141711460Y-96963056D01*
X141672039Y-97031335D01*
X141636511Y-97092872D01*
X141615973Y-97128444D01*
X141556958Y-97310072D01*
X141556268Y-97316633D01*
X141556268Y-97316635D01*
X141550040Y-97375896D01*
X141536996Y-97500000D01*
X141537686Y-97506565D01*
X141554969Y-97670999D01*
X141556958Y-97689928D01*
X141558997Y-97696203D01*
X141559598Y-97698052D01*
X141559630Y-97699182D01*
X141560371Y-97702666D01*
X141559734Y-97702801D01*
X141561629Y-97769020D01*
X141524969Y-97829820D01*
X141513835Y-97838925D01*
X141447475Y-97887138D01*
X141423680Y-97904426D01*
X141356812Y-97928285D01*
X141298371Y-97917597D01*
X141172666Y-97861630D01*
X141079266Y-97841777D01*
X140992322Y-97823296D01*
X140992317Y-97823296D01*
X140985865Y-97821924D01*
X140794891Y-97821924D01*
X140788439Y-97823296D01*
X140788434Y-97823296D01*
X140701490Y-97841777D01*
X140608090Y-97861630D01*
X140602060Y-97864315D01*
X140602059Y-97864315D01*
X140439656Y-97936621D01*
X140439654Y-97936622D01*
X140433626Y-97939306D01*
X140428285Y-97943186D01*
X140428284Y-97943187D01*
X140386703Y-97973398D01*
X140279125Y-98051558D01*
X140274704Y-98056468D01*
X140274703Y-98056469D01*
X140159306Y-98184631D01*
X140151338Y-98193480D01*
X140107384Y-98269610D01*
X140062454Y-98347432D01*
X140055851Y-98358868D01*
X139996836Y-98540496D01*
X139996146Y-98547057D01*
X139996146Y-98547059D01*
X139981078Y-98690422D01*
X139976874Y-98730424D01*
X139977564Y-98736989D01*
X139995079Y-98903632D01*
X139996836Y-98920352D01*
X140055851Y-99101980D01*
X140059154Y-99107702D01*
X140059155Y-99107703D01*
X140072725Y-99131206D01*
X140151338Y-99267368D01*
X140155756Y-99272275D01*
X140155757Y-99272276D01*
X140180355Y-99299595D01*
X140279125Y-99409290D01*
X140433626Y-99521542D01*
X140439654Y-99524226D01*
X140439656Y-99524227D01*
X140498024Y-99550214D01*
X140552120Y-99596194D01*
X140572769Y-99664122D01*
X140553416Y-99732430D01*
X140500206Y-99779431D01*
X140430330Y-99790243D01*
X140400000Y-99786250D01*
X140368307Y-99790422D01*
X140351864Y-99791500D01*
X138148136Y-99791500D01*
X138131693Y-99790422D01*
X138100000Y-99786250D01*
X138091811Y-99787328D01*
X138060126Y-99791499D01*
X138060117Y-99791500D01*
X138060115Y-99791500D01*
X138060109Y-99791501D01*
X138060107Y-99791501D01*
X138049686Y-99792873D01*
X137979920Y-99802058D01*
X137937276Y-99800382D01*
X137901951Y-99792873D01*
X137901942Y-99792872D01*
X137895487Y-99791500D01*
X137704513Y-99791500D01*
X137698061Y-99792872D01*
X137698056Y-99792872D01*
X137630829Y-99807162D01*
X137517712Y-99831206D01*
X137511682Y-99833891D01*
X137511681Y-99833891D01*
X137349278Y-99906197D01*
X137349276Y-99906198D01*
X137343248Y-99908882D01*
X137188747Y-100021134D01*
X137184326Y-100026044D01*
X137184325Y-100026045D01*
X137070195Y-100152800D01*
X137060960Y-100163056D01*
X136965473Y-100328444D01*
X136906458Y-100510072D01*
X136905768Y-100516633D01*
X136905768Y-100516635D01*
X136896228Y-100607401D01*
X136886496Y-100700000D01*
X112727078Y-100700000D01*
X112701354Y-100640840D01*
X112656495Y-100571498D01*
X112582822Y-100457617D01*
X112582820Y-100457614D01*
X112580014Y-100453277D01*
X112429670Y-100288051D01*
X112425619Y-100284852D01*
X112425615Y-100284848D01*
X112258414Y-100152800D01*
X112258410Y-100152798D01*
X112254359Y-100149598D01*
X112213053Y-100126796D01*
X112163084Y-100076364D01*
X112148312Y-100006921D01*
X112173428Y-99940516D01*
X112200780Y-99913909D01*
X112244603Y-99882650D01*
X112379860Y-99786173D01*
X112538096Y-99628489D01*
X112597594Y-99545689D01*
X112665435Y-99451277D01*
X112668453Y-99447077D01*
X112675748Y-99432318D01*
X112765136Y-99251453D01*
X112765137Y-99251451D01*
X112767430Y-99246811D01*
X112811994Y-99100135D01*
X112830865Y-99038023D01*
X112830865Y-99038021D01*
X112832370Y-99033069D01*
X112861529Y-98811590D01*
X112862058Y-98789928D01*
X112863074Y-98748365D01*
X112863074Y-98748361D01*
X112863156Y-98745000D01*
X112844852Y-98522361D01*
X112790431Y-98305702D01*
X112701354Y-98100840D01*
X112589723Y-97928285D01*
X112582822Y-97917617D01*
X112582820Y-97917614D01*
X112580014Y-97913277D01*
X112429670Y-97748051D01*
X112425619Y-97744852D01*
X112425615Y-97744848D01*
X112258414Y-97612800D01*
X112258410Y-97612798D01*
X112254359Y-97609598D01*
X112213053Y-97586796D01*
X112163084Y-97536364D01*
X112148312Y-97466921D01*
X112173428Y-97400516D01*
X112200780Y-97373909D01*
X112267883Y-97326045D01*
X112379860Y-97246173D01*
X112538096Y-97088489D01*
X112559418Y-97058817D01*
X112665435Y-96911277D01*
X112668453Y-96907077D01*
X112676685Y-96890422D01*
X112765136Y-96711453D01*
X112765137Y-96711451D01*
X112767430Y-96706811D01*
X112832370Y-96493069D01*
X112861529Y-96271590D01*
X112861611Y-96268240D01*
X112863074Y-96208365D01*
X112863074Y-96208361D01*
X112863156Y-96205000D01*
X112844852Y-95982361D01*
X112790431Y-95765702D01*
X112701354Y-95560840D01*
X112617503Y-95431226D01*
X112582822Y-95377617D01*
X112582820Y-95377614D01*
X112580014Y-95373277D01*
X112429670Y-95208051D01*
X112425619Y-95204852D01*
X112425615Y-95204848D01*
X112258414Y-95072800D01*
X112258410Y-95072798D01*
X112254359Y-95069598D01*
X112213053Y-95046796D01*
X112163084Y-94996364D01*
X112148312Y-94926921D01*
X112173428Y-94860516D01*
X112200780Y-94833909D01*
X112244603Y-94802650D01*
X112379860Y-94706173D01*
X112538096Y-94548489D01*
X112597594Y-94465689D01*
X112665435Y-94371277D01*
X112668453Y-94367077D01*
X112686622Y-94330316D01*
X112765136Y-94171453D01*
X112765137Y-94171451D01*
X112767430Y-94166811D01*
X112809047Y-94029834D01*
X112830865Y-93958023D01*
X112830865Y-93958021D01*
X112832370Y-93953069D01*
X112861529Y-93731590D01*
X112862394Y-93696206D01*
X112863074Y-93668365D01*
X112863074Y-93668361D01*
X112863156Y-93665000D01*
X112844852Y-93442361D01*
X112790431Y-93225702D01*
X112701354Y-93020840D01*
X112645104Y-92933891D01*
X112582822Y-92837617D01*
X112582820Y-92837614D01*
X112580014Y-92833277D01*
X112576532Y-92829450D01*
X112432798Y-92671488D01*
X112401746Y-92607642D01*
X112410141Y-92537143D01*
X112455317Y-92482375D01*
X112481761Y-92468706D01*
X112588297Y-92428767D01*
X112596705Y-92425615D01*
X112713261Y-92338261D01*
X112800615Y-92221705D01*
X112851745Y-92085316D01*
X112858500Y-92023134D01*
X112858500Y-90226866D01*
X112851745Y-90164684D01*
X112800615Y-90028295D01*
X112713261Y-89911739D01*
X112596705Y-89824385D01*
X112460316Y-89773255D01*
X112398134Y-89766500D01*
X110601866Y-89766500D01*
X110539684Y-89773255D01*
X110403295Y-89824385D01*
X110286739Y-89911739D01*
X110199385Y-90028295D01*
X110148255Y-90164684D01*
X110141500Y-90226866D01*
X110141500Y-92023134D01*
X110148255Y-92085316D01*
X110199385Y-92221705D01*
X110286739Y-92338261D01*
X110403295Y-92425615D01*
X110411704Y-92428767D01*
X110411705Y-92428768D01*
X110520451Y-92469535D01*
X110577216Y-92512176D01*
X110601916Y-92578738D01*
X110586709Y-92648087D01*
X110567316Y-92674568D01*
X110440629Y-92807138D01*
X110437715Y-92811410D01*
X110437714Y-92811411D01*
X110430681Y-92821721D01*
X110314743Y-92991680D01*
X110299003Y-93025590D01*
X110229823Y-93174626D01*
X110220688Y-93194305D01*
X110160989Y-93409570D01*
X110137251Y-93631695D01*
X110137548Y-93636848D01*
X110137548Y-93636851D01*
X110147334Y-93806565D01*
X110150110Y-93854715D01*
X110151247Y-93859761D01*
X110151248Y-93859767D01*
X110164597Y-93919000D01*
X110199222Y-94072639D01*
X110249966Y-94197608D01*
X110279802Y-94271084D01*
X110283266Y-94279616D01*
X110285965Y-94284020D01*
X110377806Y-94433891D01*
X110399987Y-94470088D01*
X110546250Y-94638938D01*
X110718126Y-94781632D01*
X110788595Y-94822811D01*
X110791445Y-94824476D01*
X110840169Y-94876114D01*
X110853240Y-94945897D01*
X110826509Y-95011669D01*
X110786055Y-95045027D01*
X110773607Y-95051507D01*
X110769474Y-95054610D01*
X110769471Y-95054612D01*
X110599100Y-95182530D01*
X110594965Y-95185635D01*
X110440629Y-95347138D01*
X110437715Y-95351410D01*
X110437714Y-95351411D01*
X110376019Y-95441852D01*
X110314743Y-95531680D01*
X110274938Y-95617432D01*
X110240735Y-95691118D01*
X110220688Y-95734305D01*
X110160989Y-95949570D01*
X110137251Y-96171695D01*
X110137548Y-96176848D01*
X110137548Y-96176851D01*
X110148601Y-96368539D01*
X110150110Y-96394715D01*
X110151247Y-96399761D01*
X110151248Y-96399767D01*
X110171119Y-96487939D01*
X110199222Y-96612639D01*
X110237212Y-96706197D01*
X110280619Y-96813096D01*
X110283266Y-96819616D01*
X110310959Y-96864807D01*
X110383266Y-96982801D01*
X110399987Y-97010088D01*
X110546250Y-97178938D01*
X110718126Y-97321632D01*
X110725678Y-97326045D01*
X110791445Y-97364476D01*
X110840169Y-97416114D01*
X110853240Y-97485897D01*
X110826509Y-97551669D01*
X110786055Y-97585027D01*
X110773607Y-97591507D01*
X110769474Y-97594610D01*
X110769471Y-97594612D01*
X110625377Y-97702801D01*
X110594965Y-97725635D01*
X110440629Y-97887138D01*
X110437715Y-97891410D01*
X110437714Y-97891411D01*
X110414088Y-97926045D01*
X110314743Y-98071680D01*
X110299003Y-98105590D01*
X110233801Y-98246056D01*
X110220688Y-98274305D01*
X110160989Y-98489570D01*
X110137251Y-98711695D01*
X110137548Y-98716848D01*
X110137548Y-98716851D01*
X110148519Y-98907128D01*
X110150110Y-98934715D01*
X110151247Y-98939761D01*
X110151248Y-98939767D01*
X110158279Y-98970965D01*
X110199222Y-99152639D01*
X110244102Y-99263165D01*
X110273880Y-99336500D01*
X110283266Y-99359616D01*
X110285965Y-99364020D01*
X110394740Y-99541525D01*
X110399987Y-99550088D01*
X110546250Y-99718938D01*
X110718126Y-99861632D01*
X110788595Y-99902811D01*
X110791445Y-99904476D01*
X110840169Y-99956114D01*
X110853240Y-100025897D01*
X110826509Y-100091669D01*
X110786055Y-100125027D01*
X110773607Y-100131507D01*
X110769474Y-100134610D01*
X110769471Y-100134612D01*
X110599100Y-100262530D01*
X110594965Y-100265635D01*
X110591393Y-100269373D01*
X110476365Y-100389743D01*
X110440629Y-100427138D01*
X110437715Y-100431410D01*
X110437714Y-100431411D01*
X110402694Y-100482749D01*
X110314743Y-100611680D01*
X110282922Y-100680232D01*
X110225114Y-100804771D01*
X110220688Y-100814305D01*
X110160989Y-101029570D01*
X110137251Y-101251695D01*
X110137548Y-101256848D01*
X110137548Y-101256851D01*
X110143529Y-101360584D01*
X110150110Y-101474715D01*
X110151247Y-101479761D01*
X110151248Y-101479767D01*
X110170019Y-101563056D01*
X110199222Y-101692639D01*
X110283266Y-101899616D01*
X110293695Y-101916635D01*
X110385534Y-102066502D01*
X110399987Y-102090088D01*
X110546250Y-102258938D01*
X110718126Y-102401632D01*
X110788595Y-102442811D01*
X110791445Y-102444476D01*
X110840169Y-102496114D01*
X110853240Y-102565897D01*
X110826509Y-102631669D01*
X110786055Y-102665027D01*
X110773607Y-102671507D01*
X110769474Y-102674610D01*
X110769471Y-102674612D01*
X110630618Y-102778866D01*
X110594965Y-102805635D01*
X110440629Y-102967138D01*
X110314743Y-103151680D01*
X110287819Y-103209684D01*
X110229932Y-103334391D01*
X110220688Y-103354305D01*
X110160989Y-103569570D01*
X110137251Y-103791695D01*
X110137548Y-103796848D01*
X110137548Y-103796851D01*
X110149509Y-104004294D01*
X110150110Y-104014715D01*
X110151247Y-104019761D01*
X110151248Y-104019767D01*
X110152663Y-104026045D01*
X110199222Y-104232639D01*
X110222380Y-104289670D01*
X110240013Y-104333096D01*
X110247109Y-104403737D01*
X110214887Y-104467001D01*
X110153577Y-104502801D01*
X110123270Y-104506500D01*
X97989950Y-104506500D01*
X97921829Y-104486498D01*
X97900855Y-104469595D01*
X91731209Y-98299949D01*
X91697183Y-98237637D01*
X91697785Y-98181440D01*
X91743380Y-97991524D01*
X91743381Y-97991518D01*
X91744535Y-97986711D01*
X91763165Y-97750000D01*
X91744535Y-97513289D01*
X91739769Y-97493435D01*
X91697729Y-97318327D01*
X91689105Y-97282406D01*
X91658651Y-97208882D01*
X91600135Y-97067611D01*
X91600133Y-97067607D01*
X91598240Y-97063037D01*
X91543374Y-96973504D01*
X91476759Y-96864798D01*
X91476755Y-96864792D01*
X91474176Y-96860584D01*
X91319969Y-96680031D01*
X91139416Y-96525824D01*
X91135208Y-96523245D01*
X91135202Y-96523241D01*
X90941183Y-96404346D01*
X90936963Y-96401760D01*
X90932393Y-96399867D01*
X90932389Y-96399865D01*
X90722167Y-96312789D01*
X90722165Y-96312788D01*
X90717594Y-96310895D01*
X90637391Y-96291640D01*
X90491524Y-96256620D01*
X90491518Y-96256619D01*
X90486711Y-96255465D01*
X90250000Y-96236835D01*
X90013289Y-96255465D01*
X90008482Y-96256619D01*
X90008476Y-96256620D01*
X89862609Y-96291640D01*
X89782406Y-96310895D01*
X89777835Y-96312788D01*
X89777833Y-96312789D01*
X89567611Y-96399865D01*
X89567607Y-96399867D01*
X89563037Y-96401760D01*
X89558817Y-96404346D01*
X89364798Y-96523241D01*
X89364792Y-96523245D01*
X89360584Y-96525824D01*
X89180031Y-96680031D01*
X89025824Y-96860584D01*
X89023242Y-96864797D01*
X89023235Y-96864807D01*
X88921186Y-97031335D01*
X88868539Y-97078966D01*
X88813754Y-97091500D01*
X85186246Y-97091500D01*
X85118125Y-97071498D01*
X85078814Y-97031335D01*
X84976765Y-96864807D01*
X84976758Y-96864797D01*
X84974176Y-96860584D01*
X84819969Y-96680031D01*
X84639416Y-96525824D01*
X84635201Y-96523241D01*
X84635193Y-96523235D01*
X84468665Y-96421186D01*
X84421034Y-96368539D01*
X84408500Y-96313754D01*
X84408500Y-91332056D01*
X84409059Y-91320200D01*
X84409059Y-91320197D01*
X84410788Y-91312463D01*
X84408562Y-91241631D01*
X84408500Y-91237673D01*
X84408500Y-91208568D01*
X84407944Y-91204168D01*
X84407012Y-91192330D01*
X84406211Y-91166812D01*
X84405562Y-91146169D01*
X84399580Y-91125579D01*
X84395570Y-91106216D01*
X84393875Y-91092796D01*
X84393875Y-91092795D01*
X84392882Y-91084936D01*
X84389966Y-91077571D01*
X84389965Y-91077567D01*
X84375876Y-91041982D01*
X84372031Y-91030753D01*
X84361356Y-90994010D01*
X84359145Y-90986399D01*
X84348230Y-90967943D01*
X84339531Y-90950187D01*
X84339182Y-90949307D01*
X84331635Y-90930244D01*
X84306161Y-90895182D01*
X84304480Y-90892868D01*
X84297965Y-90882949D01*
X84278492Y-90850023D01*
X84278489Y-90850019D01*
X84274452Y-90843193D01*
X84259291Y-90828032D01*
X84246449Y-90812997D01*
X84244083Y-90809740D01*
X84233841Y-90795643D01*
X84198241Y-90766192D01*
X84189462Y-90758203D01*
X81731209Y-88299949D01*
X81697183Y-88237637D01*
X81697785Y-88181440D01*
X81743380Y-87991524D01*
X81743381Y-87991518D01*
X81744535Y-87986711D01*
X81763165Y-87750000D01*
X81744535Y-87513289D01*
X81689105Y-87282406D01*
X81598240Y-87063037D01*
X81578813Y-87031335D01*
X81476759Y-86864798D01*
X81476755Y-86864792D01*
X81474176Y-86860584D01*
X81319969Y-86680031D01*
X81139416Y-86525824D01*
X81135208Y-86523245D01*
X81135202Y-86523241D01*
X80941183Y-86404346D01*
X80936963Y-86401760D01*
X80932393Y-86399867D01*
X80932389Y-86399865D01*
X80722167Y-86312789D01*
X80722165Y-86312788D01*
X80717594Y-86310895D01*
X80637391Y-86291640D01*
X80491524Y-86256620D01*
X80491518Y-86256619D01*
X80486711Y-86255465D01*
X80250000Y-86236835D01*
X80013289Y-86255465D01*
X80008482Y-86256619D01*
X80008476Y-86256620D01*
X79862609Y-86291640D01*
X79782406Y-86310895D01*
X79777835Y-86312788D01*
X79777833Y-86312789D01*
X79567611Y-86399865D01*
X79567607Y-86399867D01*
X79563037Y-86401760D01*
X79558817Y-86404346D01*
X79364798Y-86523241D01*
X79364792Y-86523245D01*
X79360584Y-86525824D01*
X79180031Y-86680031D01*
X79025824Y-86860584D01*
X79023242Y-86864797D01*
X79023235Y-86864807D01*
X78921186Y-87031335D01*
X78868539Y-87078966D01*
X78813754Y-87091500D01*
X75186246Y-87091500D01*
X75118125Y-87071498D01*
X75078814Y-87031335D01*
X74976765Y-86864807D01*
X74976758Y-86864797D01*
X74974176Y-86860584D01*
X74819969Y-86680031D01*
X74639416Y-86525824D01*
X74635208Y-86523245D01*
X74635202Y-86523241D01*
X74441183Y-86404346D01*
X74436963Y-86401760D01*
X74432393Y-86399867D01*
X74432389Y-86399865D01*
X74222167Y-86312789D01*
X74222165Y-86312788D01*
X74217594Y-86310895D01*
X74137391Y-86291640D01*
X73991524Y-86256620D01*
X73991518Y-86256619D01*
X73986711Y-86255465D01*
X73750000Y-86236835D01*
X73513289Y-86255465D01*
X73508482Y-86256619D01*
X73508476Y-86256620D01*
X73362609Y-86291640D01*
X73282406Y-86310895D01*
X73277835Y-86312788D01*
X73277833Y-86312789D01*
X73067611Y-86399865D01*
X73067607Y-86399867D01*
X73063037Y-86401760D01*
X73058817Y-86404346D01*
X72864798Y-86523241D01*
X72864792Y-86523245D01*
X72860584Y-86525824D01*
X72680031Y-86680031D01*
X72525824Y-86860584D01*
X72523245Y-86864792D01*
X72523241Y-86864798D01*
X72421187Y-87031335D01*
X72401760Y-87063037D01*
X72310895Y-87282406D01*
X72255465Y-87513289D01*
X72236835Y-87750000D01*
X72255465Y-87986711D01*
X72256619Y-87991518D01*
X72256620Y-87991524D01*
X72302215Y-88181440D01*
X72298668Y-88252348D01*
X72268791Y-88299949D01*
X69842395Y-90726345D01*
X69833615Y-90734335D01*
X69833613Y-90734337D01*
X69826920Y-90738584D01*
X69821494Y-90744362D01*
X69821493Y-90744363D01*
X69778396Y-90790257D01*
X69775641Y-90793099D01*
X69755073Y-90813667D01*
X69752356Y-90817170D01*
X69744648Y-90826195D01*
X69713028Y-90859867D01*
X69709207Y-90866818D01*
X69709206Y-90866819D01*
X69702697Y-90878658D01*
X69691843Y-90895182D01*
X69684018Y-90905271D01*
X69678696Y-90912132D01*
X69675549Y-90919404D01*
X69675548Y-90919406D01*
X69660346Y-90954535D01*
X69655124Y-90965195D01*
X69632876Y-91005663D01*
X69627541Y-91026441D01*
X69621142Y-91045131D01*
X69612620Y-91064824D01*
X69611380Y-91072655D01*
X69605394Y-91110448D01*
X69602987Y-91122071D01*
X69591500Y-91166812D01*
X69591500Y-91188258D01*
X69589949Y-91207968D01*
X69587834Y-91221322D01*
X69586594Y-91229152D01*
X69587400Y-91237673D01*
X69590941Y-91275138D01*
X69591500Y-91286996D01*
X69591500Y-96313754D01*
X69571498Y-96381875D01*
X69531335Y-96421186D01*
X69364807Y-96523235D01*
X69364799Y-96523241D01*
X69360584Y-96525824D01*
X69180031Y-96680031D01*
X69025824Y-96860584D01*
X69023242Y-96864797D01*
X69023235Y-96864807D01*
X68921186Y-97031335D01*
X68868539Y-97078966D01*
X68813754Y-97091500D01*
X65186246Y-97091500D01*
X65118125Y-97071498D01*
X65078814Y-97031335D01*
X64976765Y-96864807D01*
X64976758Y-96864797D01*
X64974176Y-96860584D01*
X64819969Y-96680031D01*
X64639416Y-96525824D01*
X64635208Y-96523245D01*
X64635202Y-96523241D01*
X64441183Y-96404346D01*
X64436963Y-96401760D01*
X64432393Y-96399867D01*
X64432389Y-96399865D01*
X64222167Y-96312789D01*
X64222165Y-96312788D01*
X64217594Y-96310895D01*
X64137391Y-96291640D01*
X63991524Y-96256620D01*
X63991518Y-96256619D01*
X63986711Y-96255465D01*
X63750000Y-96236835D01*
X63513289Y-96255465D01*
X63508482Y-96256619D01*
X63508476Y-96256620D01*
X63362609Y-96291640D01*
X63282406Y-96310895D01*
X63277835Y-96312788D01*
X63277833Y-96312789D01*
X63067611Y-96399865D01*
X63067607Y-96399867D01*
X63063037Y-96401760D01*
X63058817Y-96404346D01*
X62864798Y-96523241D01*
X62864792Y-96523245D01*
X62860584Y-96525824D01*
X62680031Y-96680031D01*
X62525824Y-96860584D01*
X62523245Y-96864792D01*
X62523241Y-96864798D01*
X62456626Y-96973504D01*
X62401760Y-97063037D01*
X62399867Y-97067607D01*
X62399865Y-97067611D01*
X62341349Y-97208882D01*
X62310895Y-97282406D01*
X62302271Y-97318327D01*
X62260232Y-97493435D01*
X62255465Y-97513289D01*
X62236835Y-97750000D01*
X47508500Y-97750000D01*
X47508500Y-70600498D01*
X146086496Y-70600498D01*
X146087186Y-70607063D01*
X146101787Y-70745980D01*
X146106458Y-70790426D01*
X146165473Y-70972054D01*
X146260960Y-71137442D01*
X146265378Y-71142349D01*
X146265379Y-71142350D01*
X146384325Y-71274453D01*
X146388747Y-71279364D01*
X146543248Y-71391616D01*
X146549276Y-71394300D01*
X146549278Y-71394301D01*
X146711681Y-71466607D01*
X146717712Y-71469292D01*
X146811113Y-71489145D01*
X146898056Y-71507626D01*
X146898061Y-71507626D01*
X146904513Y-71508998D01*
X147095487Y-71508998D01*
X147101939Y-71507626D01*
X147101944Y-71507626D01*
X147188887Y-71489145D01*
X147282288Y-71469292D01*
X147288319Y-71466607D01*
X147450722Y-71394301D01*
X147450724Y-71394300D01*
X147456752Y-71391616D01*
X147606163Y-71283062D01*
X147673031Y-71259204D01*
X147680224Y-71258998D01*
X147717446Y-71258998D01*
X147729302Y-71259557D01*
X147729305Y-71259557D01*
X147737039Y-71261286D01*
X147807871Y-71259060D01*
X147811829Y-71258998D01*
X147840934Y-71258998D01*
X147845334Y-71258442D01*
X147857166Y-71257510D01*
X147903333Y-71256060D01*
X147923923Y-71250078D01*
X147943284Y-71246068D01*
X147950272Y-71245186D01*
X147956706Y-71244373D01*
X147956707Y-71244373D01*
X147964566Y-71243380D01*
X147971931Y-71240464D01*
X147971935Y-71240463D01*
X148007523Y-71226372D01*
X148018733Y-71222533D01*
X148063102Y-71209643D01*
X148081567Y-71198723D01*
X148099307Y-71190032D01*
X148119258Y-71182133D01*
X148156631Y-71154980D01*
X148166550Y-71148465D01*
X148199479Y-71128991D01*
X148199483Y-71128988D01*
X148206309Y-71124951D01*
X148221473Y-71109787D01*
X148236507Y-71096946D01*
X148247445Y-71088999D01*
X148253859Y-71084339D01*
X148283305Y-71048745D01*
X148291294Y-71039966D01*
X149020573Y-70310687D01*
X149082885Y-70276661D01*
X149153700Y-70281726D01*
X149210536Y-70324273D01*
X149229501Y-70360845D01*
X149265473Y-70471556D01*
X149360960Y-70636944D01*
X149365378Y-70641851D01*
X149365379Y-70641852D01*
X149459136Y-70745980D01*
X149489854Y-70809987D01*
X149491500Y-70830290D01*
X149491500Y-72574529D01*
X149471498Y-72642650D01*
X149416749Y-72689636D01*
X149356382Y-72716513D01*
X149356380Y-72716514D01*
X149350352Y-72719198D01*
X149195851Y-72831450D01*
X149068064Y-72973372D01*
X148972577Y-73138760D01*
X148913562Y-73320388D01*
X148912872Y-73326949D01*
X148912872Y-73326951D01*
X148894290Y-73503751D01*
X148893600Y-73510316D01*
X148913562Y-73700244D01*
X148972577Y-73881872D01*
X149068064Y-74047260D01*
X149195851Y-74189182D01*
X149266576Y-74240567D01*
X149301732Y-74266109D01*
X149350352Y-74301434D01*
X149356380Y-74304118D01*
X149356382Y-74304119D01*
X149518785Y-74376425D01*
X149524816Y-74379110D01*
X149618216Y-74398963D01*
X149705160Y-74417444D01*
X149705165Y-74417444D01*
X149711617Y-74418816D01*
X149902591Y-74418816D01*
X149909043Y-74417444D01*
X149909048Y-74417444D01*
X149995992Y-74398963D01*
X150089392Y-74379110D01*
X150095423Y-74376425D01*
X150257826Y-74304119D01*
X150257828Y-74304118D01*
X150263856Y-74301434D01*
X150306891Y-74270167D01*
X150329504Y-74253738D01*
X150396372Y-74229879D01*
X150454811Y-74240567D01*
X150518212Y-74268794D01*
X150559840Y-74277642D01*
X150698556Y-74307128D01*
X150698561Y-74307128D01*
X150705013Y-74308500D01*
X150895987Y-74308500D01*
X150902439Y-74307128D01*
X150902444Y-74307128D01*
X150989387Y-74288647D01*
X151082788Y-74268794D01*
X151088821Y-74266108D01*
X151251222Y-74193803D01*
X151251224Y-74193802D01*
X151257252Y-74191118D01*
X151411753Y-74078866D01*
X151539540Y-73936944D01*
X151635027Y-73771556D01*
X151694042Y-73589928D01*
X151701720Y-73516881D01*
X151713314Y-73406565D01*
X151714004Y-73400000D01*
X151694042Y-73210072D01*
X151635027Y-73028444D01*
X151539540Y-72863056D01*
X151479197Y-72796038D01*
X151448479Y-72732031D01*
X151457244Y-72661577D01*
X151502707Y-72607046D01*
X151546638Y-72588481D01*
X151551675Y-72587410D01*
X151566910Y-72584172D01*
X151588569Y-72574529D01*
X151735344Y-72509181D01*
X151735346Y-72509180D01*
X151741374Y-72506496D01*
X151895875Y-72394244D01*
X152023662Y-72252322D01*
X152119149Y-72086934D01*
X152178164Y-71905306D01*
X152198126Y-71715378D01*
X152178164Y-71525450D01*
X152119149Y-71343822D01*
X152023662Y-71178434D01*
X151979144Y-71128991D01*
X151900297Y-71041423D01*
X151900296Y-71041422D01*
X151895875Y-71036512D01*
X151741374Y-70924260D01*
X151735346Y-70921576D01*
X151735344Y-70921575D01*
X151572941Y-70849269D01*
X151572940Y-70849269D01*
X151566910Y-70846584D01*
X151473510Y-70826731D01*
X151386566Y-70808250D01*
X151386561Y-70808250D01*
X151380109Y-70806878D01*
X151189135Y-70806878D01*
X151182683Y-70808250D01*
X151182678Y-70808250D01*
X151095734Y-70826731D01*
X151002334Y-70846584D01*
X150996304Y-70849269D01*
X150996303Y-70849269D01*
X150956243Y-70867105D01*
X150885876Y-70876539D01*
X150821579Y-70846433D01*
X150783765Y-70786344D01*
X150784441Y-70715350D01*
X150811358Y-70667688D01*
X150834621Y-70641852D01*
X150834622Y-70641851D01*
X150839040Y-70636944D01*
X150934527Y-70471556D01*
X150993542Y-70289928D01*
X150994937Y-70276661D01*
X151012814Y-70106565D01*
X151013504Y-70100000D01*
X150993542Y-69910072D01*
X150934527Y-69728444D01*
X150893098Y-69656686D01*
X150839040Y-69563056D01*
X150841176Y-69561823D01*
X150821062Y-69505470D01*
X150837737Y-69435265D01*
X150929149Y-69276934D01*
X150988164Y-69095306D01*
X150990077Y-69077110D01*
X150990150Y-69076418D01*
X244289122Y-69076418D01*
X244289171Y-69077110D01*
X244294617Y-69085274D01*
X244372268Y-69157812D01*
X244376507Y-69161433D01*
X244709802Y-69421363D01*
X244714359Y-69424602D01*
X245069448Y-69653880D01*
X245074250Y-69656686D01*
X245448316Y-69853491D01*
X245453374Y-69855871D01*
X245843435Y-70018638D01*
X245848690Y-70020561D01*
X246251676Y-70148008D01*
X246257075Y-70149455D01*
X246669796Y-70240575D01*
X246675307Y-70241537D01*
X247094501Y-70295610D01*
X247100064Y-70296077D01*
X247522405Y-70312670D01*
X247527997Y-70312641D01*
X247950125Y-70291626D01*
X247955708Y-70291098D01*
X248374305Y-70232640D01*
X248379792Y-70231623D01*
X248791543Y-70136185D01*
X248796929Y-70134681D01*
X249198567Y-70003018D01*
X249203784Y-70001046D01*
X249592126Y-69834202D01*
X249597169Y-69831764D01*
X249969131Y-69631063D01*
X249973935Y-69628188D01*
X250326563Y-69395231D01*
X250331126Y-69391916D01*
X250661658Y-69128529D01*
X250665873Y-69124852D01*
X250703823Y-69088649D01*
X250711763Y-69074890D01*
X250711713Y-69073843D01*
X250706822Y-69066032D01*
X250306507Y-68665717D01*
X249421210Y-67780419D01*
X248895122Y-67254332D01*
X247512812Y-65872022D01*
X247498868Y-65864408D01*
X247497035Y-65864539D01*
X247490420Y-65868790D01*
X246104879Y-67254331D01*
X245219581Y-68139628D01*
X244693494Y-68665716D01*
X244296736Y-69062474D01*
X244289122Y-69076418D01*
X150990150Y-69076418D01*
X151001377Y-68969592D01*
X151028390Y-68903936D01*
X151037592Y-68893668D01*
X153859770Y-66071489D01*
X239935227Y-66071489D01*
X239937096Y-66100000D01*
X239948263Y-66270380D01*
X239949684Y-66275976D01*
X239949685Y-66275981D01*
X239970955Y-66359730D01*
X239997326Y-66463564D01*
X239999743Y-66468807D01*
X240036265Y-66548029D01*
X240080772Y-66644573D01*
X240195807Y-66807344D01*
X240338578Y-66946425D01*
X240504304Y-67057160D01*
X240509607Y-67059438D01*
X240509610Y-67059440D01*
X240682128Y-67133559D01*
X240687435Y-67135839D01*
X240759516Y-67152149D01*
X240876201Y-67178553D01*
X240876207Y-67178554D01*
X240881838Y-67179828D01*
X240887609Y-67180055D01*
X240887611Y-67180055D01*
X240948556Y-67182449D01*
X241081001Y-67187653D01*
X241180959Y-67173160D01*
X241272535Y-67159883D01*
X241272540Y-67159882D01*
X241278256Y-67159053D01*
X241283728Y-67157195D01*
X241283730Y-67157195D01*
X241461532Y-67096839D01*
X241461534Y-67096838D01*
X241466996Y-67094984D01*
X241640899Y-66997594D01*
X241794143Y-66870143D01*
X241921594Y-66716899D01*
X242018984Y-66542996D01*
X242054927Y-66437114D01*
X242081195Y-66359730D01*
X242081195Y-66359728D01*
X242083053Y-66354256D01*
X242083882Y-66348540D01*
X242083883Y-66348535D01*
X242109212Y-66173834D01*
X242111653Y-66157001D01*
X242113146Y-66100000D01*
X242101843Y-65976987D01*
X242095437Y-65907273D01*
X242095436Y-65907270D01*
X242094908Y-65901519D01*
X242085678Y-65868790D01*
X242042373Y-65715244D01*
X242042372Y-65715242D01*
X242040805Y-65709685D01*
X242027746Y-65683202D01*
X241955205Y-65536104D01*
X241952650Y-65530923D01*
X241837579Y-65376825D01*
X242688855Y-65376825D01*
X242696600Y-65799410D01*
X242696950Y-65804976D01*
X242742231Y-66225208D01*
X242743078Y-66230746D01*
X242825535Y-66645286D01*
X242826864Y-66650698D01*
X242945852Y-67056289D01*
X242947658Y-67061564D01*
X243102219Y-67454948D01*
X243104501Y-67460072D01*
X243293416Y-67838150D01*
X243296140Y-67843043D01*
X243517917Y-68202833D01*
X243521068Y-68207469D01*
X243773955Y-68546127D01*
X243777488Y-68550444D01*
X243913222Y-68701988D01*
X243926717Y-68710351D01*
X243936128Y-68704662D01*
X244334283Y-68306507D01*
X245219581Y-67421210D01*
X245229378Y-67411413D01*
X245745668Y-66895122D01*
X247127978Y-65512812D01*
X247135592Y-65498868D01*
X247135461Y-65497035D01*
X247131210Y-65490420D01*
X245745669Y-64104879D01*
X244860372Y-63219581D01*
X244334284Y-62693494D01*
X243935561Y-62294771D01*
X243922253Y-62287504D01*
X243912214Y-62294626D01*
X243668223Y-62587994D01*
X243664828Y-62592467D01*
X243424528Y-62940152D01*
X243421549Y-62944902D01*
X243213106Y-63312575D01*
X243210562Y-63317568D01*
X243035629Y-63702312D01*
X243033538Y-63707511D01*
X242893498Y-64106290D01*
X242891877Y-64111659D01*
X242787840Y-64521303D01*
X242786706Y-64526776D01*
X242719496Y-64944054D01*
X242718851Y-64949632D01*
X242689002Y-65371204D01*
X242688855Y-65376825D01*
X241837579Y-65376825D01*
X241833393Y-65371219D01*
X241687030Y-65235922D01*
X241682147Y-65232841D01*
X241682143Y-65232838D01*
X241523346Y-65132645D01*
X241523341Y-65132643D01*
X241518462Y-65129564D01*
X241333334Y-65055705D01*
X241137847Y-65016820D01*
X241132072Y-65016744D01*
X241132068Y-65016744D01*
X241032588Y-65015442D01*
X240938547Y-65014211D01*
X240932850Y-65015190D01*
X240932849Y-65015190D01*
X240747805Y-65046987D01*
X240742108Y-65047966D01*
X240555111Y-65116953D01*
X240550149Y-65119905D01*
X240403296Y-65207273D01*
X240383816Y-65218862D01*
X240233961Y-65350281D01*
X240110565Y-65506809D01*
X240107876Y-65511920D01*
X240107874Y-65511923D01*
X240074172Y-65575981D01*
X240017760Y-65683202D01*
X240009537Y-65709685D01*
X239961494Y-65864408D01*
X239958654Y-65873554D01*
X239935227Y-66071489D01*
X153859770Y-66071489D01*
X155035854Y-64895405D01*
X155098166Y-64861379D01*
X155124949Y-64858500D01*
X160119776Y-64858500D01*
X160187897Y-64878502D01*
X160193834Y-64882562D01*
X160211511Y-64895405D01*
X160332353Y-64983202D01*
X160343248Y-64991118D01*
X160349276Y-64993802D01*
X160349278Y-64993803D01*
X160511681Y-65066109D01*
X160517712Y-65068794D01*
X160607151Y-65087805D01*
X160698056Y-65107128D01*
X160698061Y-65107128D01*
X160704513Y-65108500D01*
X160895487Y-65108500D01*
X160901939Y-65107128D01*
X160901944Y-65107128D01*
X160992849Y-65087805D01*
X161082288Y-65068794D01*
X161088319Y-65066109D01*
X161250722Y-64993803D01*
X161250724Y-64993802D01*
X161256752Y-64991118D01*
X161267648Y-64983202D01*
X161388489Y-64895405D01*
X161411253Y-64878866D01*
X161476133Y-64806809D01*
X161534621Y-64741852D01*
X161534622Y-64741851D01*
X161539040Y-64736944D01*
X161634527Y-64571556D01*
X161693542Y-64389928D01*
X161697258Y-64354578D01*
X161712814Y-64206565D01*
X161713504Y-64200000D01*
X161703655Y-64106290D01*
X161694232Y-64016635D01*
X161694232Y-64016633D01*
X161693542Y-64010072D01*
X161634527Y-63828444D01*
X161539040Y-63663056D01*
X161491692Y-63610470D01*
X161415675Y-63526045D01*
X161415674Y-63526044D01*
X161411253Y-63521134D01*
X161256752Y-63408882D01*
X161250724Y-63406198D01*
X161250722Y-63406197D01*
X161088319Y-63333891D01*
X161088318Y-63333891D01*
X161082288Y-63331206D01*
X160988887Y-63311353D01*
X160901944Y-63292872D01*
X160901939Y-63292872D01*
X160895487Y-63291500D01*
X160704513Y-63291500D01*
X160698061Y-63292872D01*
X160698056Y-63292872D01*
X160611113Y-63311353D01*
X160517712Y-63331206D01*
X160511682Y-63333891D01*
X160511681Y-63333891D01*
X160349278Y-63406197D01*
X160349276Y-63406198D01*
X160343248Y-63408882D01*
X160194092Y-63517251D01*
X160193837Y-63517436D01*
X160126969Y-63541294D01*
X160119776Y-63541500D01*
X154882056Y-63541500D01*
X154870200Y-63540941D01*
X154870197Y-63540941D01*
X154862463Y-63539212D01*
X154807446Y-63540941D01*
X154791631Y-63541438D01*
X154787673Y-63541500D01*
X154758568Y-63541500D01*
X154754168Y-63542056D01*
X154742336Y-63542988D01*
X154696169Y-63544438D01*
X154675579Y-63550420D01*
X154656218Y-63554430D01*
X154649230Y-63555312D01*
X154642796Y-63556125D01*
X154642795Y-63556125D01*
X154634936Y-63557118D01*
X154627571Y-63560034D01*
X154627567Y-63560035D01*
X154591979Y-63574126D01*
X154580769Y-63577965D01*
X154536400Y-63590855D01*
X154517943Y-63601771D01*
X154500193Y-63610466D01*
X154480244Y-63618365D01*
X154473833Y-63623023D01*
X154473831Y-63623024D01*
X154442864Y-63645523D01*
X154432946Y-63652038D01*
X154393193Y-63675548D01*
X154378032Y-63690709D01*
X154363000Y-63703548D01*
X154345643Y-63716159D01*
X154321231Y-63745668D01*
X154316193Y-63751758D01*
X154308203Y-63760538D01*
X150108767Y-67959973D01*
X150046455Y-67993999D01*
X150019672Y-67996878D01*
X149999135Y-67996878D01*
X149992683Y-67998250D01*
X149992678Y-67998250D01*
X149905734Y-68016731D01*
X149812334Y-68036584D01*
X149806304Y-68039269D01*
X149806303Y-68039269D01*
X149643900Y-68111575D01*
X149643898Y-68111576D01*
X149637870Y-68114260D01*
X149632529Y-68118140D01*
X149632528Y-68118141D01*
X149485389Y-68225044D01*
X149415287Y-68249046D01*
X149399476Y-68249543D01*
X149390791Y-68249816D01*
X149370201Y-68255798D01*
X149350840Y-68259808D01*
X149343852Y-68260690D01*
X149337418Y-68261503D01*
X149337417Y-68261503D01*
X149329558Y-68262496D01*
X149322193Y-68265412D01*
X149322189Y-68265413D01*
X149286601Y-68279504D01*
X149275391Y-68283343D01*
X149231022Y-68296233D01*
X149212557Y-68307153D01*
X149194817Y-68315844D01*
X149174866Y-68323743D01*
X149137496Y-68350894D01*
X149127574Y-68357411D01*
X149094645Y-68376885D01*
X149094641Y-68376888D01*
X149087815Y-68380925D01*
X149072651Y-68396089D01*
X149057618Y-68408929D01*
X149040265Y-68421537D01*
X149010820Y-68457130D01*
X149002830Y-68465910D01*
X147650196Y-69818544D01*
X147587884Y-69852570D01*
X147517069Y-69847505D01*
X147487041Y-69831386D01*
X147462093Y-69813260D01*
X147462090Y-69813258D01*
X147456752Y-69809380D01*
X147450724Y-69806696D01*
X147450722Y-69806695D01*
X147288319Y-69734389D01*
X147288318Y-69734389D01*
X147282288Y-69731704D01*
X147188887Y-69711851D01*
X147101944Y-69693370D01*
X147101939Y-69693370D01*
X147095487Y-69691998D01*
X146904513Y-69691998D01*
X146898061Y-69693370D01*
X146898056Y-69693370D01*
X146811113Y-69711851D01*
X146717712Y-69731704D01*
X146711682Y-69734389D01*
X146711681Y-69734389D01*
X146549278Y-69806695D01*
X146549276Y-69806696D01*
X146543248Y-69809380D01*
X146537907Y-69813260D01*
X146537906Y-69813261D01*
X146490774Y-69847505D01*
X146388747Y-69921632D01*
X146384326Y-69926542D01*
X146384325Y-69926543D01*
X146301403Y-70018638D01*
X146260960Y-70063554D01*
X146165473Y-70228942D01*
X146106458Y-70410570D01*
X146086496Y-70600498D01*
X47508500Y-70600498D01*
X47508500Y-69076418D01*
X49289122Y-69076418D01*
X49289171Y-69077110D01*
X49294617Y-69085274D01*
X49372268Y-69157812D01*
X49376507Y-69161433D01*
X49709802Y-69421363D01*
X49714359Y-69424602D01*
X50069448Y-69653880D01*
X50074250Y-69656686D01*
X50448316Y-69853491D01*
X50453374Y-69855871D01*
X50843435Y-70018638D01*
X50848690Y-70020561D01*
X51251676Y-70148008D01*
X51257075Y-70149455D01*
X51669796Y-70240575D01*
X51675307Y-70241537D01*
X52094501Y-70295610D01*
X52100064Y-70296077D01*
X52522405Y-70312670D01*
X52527997Y-70312641D01*
X52950125Y-70291626D01*
X52955708Y-70291098D01*
X53374305Y-70232640D01*
X53379792Y-70231623D01*
X53791543Y-70136185D01*
X53796929Y-70134681D01*
X54198567Y-70003018D01*
X54203784Y-70001046D01*
X54592126Y-69834202D01*
X54597169Y-69831764D01*
X54969131Y-69631063D01*
X54973935Y-69628188D01*
X55326563Y-69395231D01*
X55331126Y-69391916D01*
X55661658Y-69128529D01*
X55665873Y-69124852D01*
X55703823Y-69088649D01*
X55711763Y-69074890D01*
X55711713Y-69073843D01*
X55706822Y-69066032D01*
X55306507Y-68665717D01*
X54421210Y-67780419D01*
X53895122Y-67254332D01*
X52512812Y-65872022D01*
X52498868Y-65864408D01*
X52497035Y-65864539D01*
X52490420Y-65868790D01*
X51104879Y-67254331D01*
X50219581Y-68139628D01*
X49693494Y-68665716D01*
X49296736Y-69062474D01*
X49289122Y-69076418D01*
X47508500Y-69076418D01*
X47508500Y-66330741D01*
X47528502Y-66262620D01*
X47582158Y-66216127D01*
X47652432Y-66206023D01*
X47717012Y-66235517D01*
X47755396Y-66295243D01*
X47758079Y-66306160D01*
X47825535Y-66645286D01*
X47826864Y-66650698D01*
X47945852Y-67056289D01*
X47947658Y-67061564D01*
X48102219Y-67454948D01*
X48104501Y-67460072D01*
X48293416Y-67838150D01*
X48296140Y-67843043D01*
X48517917Y-68202833D01*
X48521068Y-68207469D01*
X48773955Y-68546127D01*
X48777488Y-68550444D01*
X48913222Y-68701988D01*
X48926717Y-68710351D01*
X48936128Y-68704662D01*
X49334283Y-68306507D01*
X50219581Y-67421210D01*
X50229378Y-67411413D01*
X50745668Y-66895122D01*
X52139658Y-65501132D01*
X52864408Y-65501132D01*
X52864539Y-65502965D01*
X52868790Y-65509580D01*
X54254331Y-66895121D01*
X54770621Y-67411412D01*
X54780418Y-67421209D01*
X55665716Y-68306506D01*
X56062142Y-68702932D01*
X56075903Y-68710446D01*
X56085263Y-68703989D01*
X56254244Y-68511303D01*
X56257744Y-68506935D01*
X56507073Y-68165645D01*
X56510168Y-68160987D01*
X56728160Y-67798903D01*
X56730841Y-67793964D01*
X56915779Y-67413946D01*
X56918014Y-67408780D01*
X57068442Y-67013815D01*
X57070201Y-67008496D01*
X57184920Y-66601730D01*
X57186204Y-66596259D01*
X57264315Y-66180883D01*
X57265102Y-66175346D01*
X57306035Y-65754102D01*
X57306308Y-65749665D01*
X57312788Y-65502233D01*
X57312746Y-65497762D01*
X57307122Y-65371489D01*
X58035227Y-65371489D01*
X58035605Y-65377255D01*
X58037096Y-65399999D01*
X58037096Y-65400000D01*
X58043845Y-65502965D01*
X58048263Y-65570380D01*
X58049684Y-65575976D01*
X58049685Y-65575981D01*
X58082327Y-65704505D01*
X58097326Y-65763564D01*
X58099743Y-65768807D01*
X58178354Y-65939328D01*
X58180772Y-65944573D01*
X58184105Y-65949289D01*
X58256885Y-66052270D01*
X58295807Y-66107344D01*
X58438578Y-66246425D01*
X58443382Y-66249635D01*
X58509634Y-66293903D01*
X58604304Y-66357160D01*
X58609607Y-66359438D01*
X58609610Y-66359440D01*
X58782128Y-66433559D01*
X58787435Y-66435839D01*
X58859516Y-66452149D01*
X58976201Y-66478553D01*
X58976207Y-66478554D01*
X58981838Y-66479828D01*
X58987609Y-66480055D01*
X58987611Y-66480055D01*
X59048556Y-66482449D01*
X59181001Y-66487653D01*
X59280959Y-66473160D01*
X59372535Y-66459883D01*
X59372540Y-66459882D01*
X59378256Y-66459053D01*
X59383728Y-66457195D01*
X59383730Y-66457195D01*
X59561532Y-66396839D01*
X59561534Y-66396838D01*
X59566996Y-66394984D01*
X59740899Y-66297594D01*
X59894143Y-66170143D01*
X60021594Y-66016899D01*
X60118984Y-65842996D01*
X60174965Y-65678084D01*
X60181195Y-65659730D01*
X60181195Y-65659728D01*
X60183053Y-65654256D01*
X60183882Y-65648540D01*
X60183883Y-65648535D01*
X60203690Y-65511923D01*
X60211653Y-65457001D01*
X60213146Y-65400000D01*
X60194908Y-65201519D01*
X60175484Y-65132645D01*
X60142373Y-65015244D01*
X60142372Y-65015242D01*
X60140805Y-65009685D01*
X60127746Y-64983202D01*
X60055205Y-64836104D01*
X60052650Y-64830923D01*
X59933393Y-64671219D01*
X59825579Y-64571556D01*
X59791275Y-64539846D01*
X59787030Y-64535922D01*
X59782147Y-64532841D01*
X59782143Y-64532838D01*
X59623346Y-64432645D01*
X59623341Y-64432643D01*
X59618462Y-64429564D01*
X59433334Y-64355705D01*
X59237847Y-64316820D01*
X59232072Y-64316744D01*
X59232068Y-64316744D01*
X59132588Y-64315442D01*
X59038547Y-64314211D01*
X59032850Y-64315190D01*
X59032849Y-64315190D01*
X59016805Y-64317947D01*
X58842108Y-64347966D01*
X58655111Y-64416953D01*
X58483816Y-64518862D01*
X58333961Y-64650281D01*
X58210565Y-64806809D01*
X58117760Y-64983202D01*
X58103783Y-65028215D01*
X58071357Y-65132645D01*
X58058654Y-65173554D01*
X58035227Y-65371489D01*
X57307122Y-65371489D01*
X57293917Y-65074973D01*
X57293419Y-65069386D01*
X57237155Y-64650499D01*
X57236162Y-64644976D01*
X57142883Y-64232748D01*
X57141410Y-64227361D01*
X57011847Y-63825025D01*
X57009910Y-63819815D01*
X56845098Y-63430599D01*
X56842683Y-63425536D01*
X56643936Y-63052535D01*
X56641085Y-63047713D01*
X56409974Y-62693865D01*
X56406692Y-62689297D01*
X56145030Y-62357380D01*
X56141382Y-62353155D01*
X56088103Y-62296715D01*
X56074389Y-62288705D01*
X56073517Y-62288742D01*
X56065438Y-62293772D01*
X55665717Y-62693493D01*
X54780419Y-63578790D01*
X54254332Y-64104878D01*
X52872022Y-65487188D01*
X52864408Y-65501132D01*
X52139658Y-65501132D01*
X53895121Y-63745669D01*
X54780419Y-62860372D01*
X55306506Y-62334284D01*
X55702754Y-61938036D01*
X55710316Y-61924187D01*
X55703987Y-61914962D01*
X55530928Y-61761582D01*
X55526561Y-61758046D01*
X55186600Y-61506948D01*
X55181947Y-61503821D01*
X54820995Y-61283926D01*
X54816094Y-61281232D01*
X54437027Y-61094297D01*
X54431904Y-61092048D01*
X54037707Y-60939545D01*
X54032417Y-60937765D01*
X53626218Y-60820904D01*
X53620794Y-60819602D01*
X53303456Y-60758206D01*
X53240375Y-60725629D01*
X53204921Y-60664118D01*
X53208349Y-60593205D01*
X53249573Y-60535402D01*
X53315502Y-60509062D01*
X53327390Y-60508500D01*
X246680151Y-60508500D01*
X246748272Y-60528502D01*
G37*
%TD.AperFunction*%
%TA.AperFunction,Conductor*%
G36*
X249298365Y-135955257D02*
G01*
X249343428Y-135984217D01*
X249780419Y-136421209D01*
X250576622Y-137217411D01*
X250610647Y-137279723D01*
X250605582Y-137350539D01*
X250576622Y-137395601D01*
X250486112Y-137486112D01*
X250486111Y-137486113D01*
X250395601Y-137576622D01*
X250333289Y-137610647D01*
X250262473Y-137605581D01*
X250217410Y-137576621D01*
X249421209Y-136780419D01*
X248984216Y-136343427D01*
X248950191Y-136281115D01*
X248955256Y-136210299D01*
X248984216Y-136165237D01*
X249074726Y-136074726D01*
X249074727Y-136074725D01*
X249165237Y-135984216D01*
X249227549Y-135950191D01*
X249298365Y-135955257D01*
G37*
%TD.AperFunction*%
%TA.AperFunction,Conductor*%
G36*
X50789701Y-135955256D02*
G01*
X50834763Y-135984216D01*
X50925274Y-136074726D01*
X50925275Y-136074727D01*
X51015784Y-136165237D01*
X51049809Y-136227549D01*
X51044743Y-136298365D01*
X51015783Y-136343428D01*
X50219581Y-137139629D01*
X49782589Y-137576622D01*
X49720277Y-137610647D01*
X49649461Y-137605582D01*
X49604399Y-137576622D01*
X49513888Y-137486112D01*
X49513887Y-137486111D01*
X49423378Y-137395601D01*
X49389353Y-137333289D01*
X49394419Y-137262473D01*
X49423379Y-137217410D01*
X50219581Y-136421209D01*
X50656573Y-135984216D01*
X50718885Y-135950191D01*
X50789701Y-135955256D01*
G37*
%TD.AperFunction*%
%TA.AperFunction,Conductor*%
G36*
X49737527Y-62394419D02*
G01*
X49782590Y-62423379D01*
X50219581Y-62860371D01*
X51015784Y-63656573D01*
X51049809Y-63718885D01*
X51044744Y-63789701D01*
X51015784Y-63834763D01*
X50925274Y-63925274D01*
X50925273Y-63925275D01*
X50834763Y-64015784D01*
X50772451Y-64049809D01*
X50701635Y-64044743D01*
X50656572Y-64015783D01*
X49860371Y-63219581D01*
X49423378Y-62782589D01*
X49389353Y-62720277D01*
X49394418Y-62649461D01*
X49423378Y-62604399D01*
X49513888Y-62513888D01*
X49513889Y-62513887D01*
X49604399Y-62423378D01*
X49666711Y-62389353D01*
X49737527Y-62394419D01*
G37*
%TD.AperFunction*%
%TA.AperFunction,Conductor*%
G36*
X250350539Y-62394418D02*
G01*
X250395601Y-62423378D01*
X250486112Y-62513888D01*
X250486113Y-62513889D01*
X250576622Y-62604399D01*
X250610647Y-62666711D01*
X250605581Y-62737527D01*
X250576621Y-62782590D01*
X249780419Y-63578791D01*
X249343427Y-64015784D01*
X249281115Y-64049809D01*
X249210299Y-64044744D01*
X249165237Y-64015784D01*
X249074726Y-63925274D01*
X249074725Y-63925273D01*
X248984216Y-63834763D01*
X248950191Y-63772451D01*
X248955257Y-63701635D01*
X248984217Y-63656572D01*
X249780419Y-62860371D01*
X250217411Y-62423378D01*
X250279723Y-62389353D01*
X250350539Y-62394418D01*
G37*
%TD.AperFunction*%
%TD*%
M02*
