%TF.GenerationSoftware,KiCad,Pcbnew,(6.0.10)*%
%TF.CreationDate,2023-04-18T09:59:35+03:00*%
%TF.ProjectId,Console,436f6e73-6f6c-4652-9e6b-696361645f70,rev?*%
%TF.SameCoordinates,Original*%
%TF.FileFunction,Soldermask,Top*%
%TF.FilePolarity,Negative*%
%FSLAX46Y46*%
G04 Gerber Fmt 4.6, Leading zero omitted, Abs format (unit mm)*
G04 Created by KiCad (PCBNEW (6.0.10)) date 2023-04-18 09:59:35*
%MOMM*%
%LPD*%
G01*
G04 APERTURE LIST*
G04 Aperture macros list*
%AMRoundRect*
0 Rectangle with rounded corners*
0 $1 Rounding radius*
0 $2 $3 $4 $5 $6 $7 $8 $9 X,Y pos of 4 corners*
0 Add a 4 corners polygon primitive as box body*
4,1,4,$2,$3,$4,$5,$6,$7,$8,$9,$2,$3,0*
0 Add four circle primitives for the rounded corners*
1,1,$1+$1,$2,$3*
1,1,$1+$1,$4,$5*
1,1,$1+$1,$6,$7*
1,1,$1+$1,$8,$9*
0 Add four rect primitives between the rounded corners*
20,1,$1+$1,$2,$3,$4,$5,0*
20,1,$1+$1,$4,$5,$6,$7,0*
20,1,$1+$1,$6,$7,$8,$9,0*
20,1,$1+$1,$8,$9,$2,$3,0*%
G04 Aperture macros list end*
%ADD10RoundRect,0.140000X0.170000X-0.140000X0.170000X0.140000X-0.170000X0.140000X-0.170000X-0.140000X0*%
%ADD11RoundRect,0.250000X0.262500X0.450000X-0.262500X0.450000X-0.262500X-0.450000X0.262500X-0.450000X0*%
%ADD12RoundRect,0.250000X0.475000X-0.250000X0.475000X0.250000X-0.475000X0.250000X-0.475000X-0.250000X0*%
%ADD13R,2.000000X2.000000*%
%ADD14C,2.000000*%
%ADD15RoundRect,0.062500X0.475000X0.062500X-0.475000X0.062500X-0.475000X-0.062500X0.475000X-0.062500X0*%
%ADD16RoundRect,0.062500X0.062500X0.475000X-0.062500X0.475000X-0.062500X-0.475000X0.062500X-0.475000X0*%
%ADD17R,4.100000X4.100000*%
%ADD18R,0.740000X2.400000*%
%ADD19R,0.450000X0.600000*%
%ADD20R,0.450000X1.500000*%
%ADD21O,1.800000X1.100000*%
%ADD22O,2.200000X1.100000*%
%ADD23C,0.900000*%
%ADD24C,8.600000*%
%ADD25RoundRect,0.140000X-0.170000X0.140000X-0.170000X-0.140000X0.170000X-0.140000X0.170000X0.140000X0*%
%ADD26R,1.700000X1.700000*%
%ADD27O,1.700000X1.700000*%
%ADD28RoundRect,0.250000X-0.262500X-0.450000X0.262500X-0.450000X0.262500X0.450000X-0.262500X0.450000X0*%
%ADD29R,0.850000X1.100000*%
%ADD30R,0.750000X1.100000*%
%ADD31R,1.200000X1.000000*%
%ADD32R,1.900000X1.350000*%
%ADD33R,1.550000X1.350000*%
%ADD34R,1.170000X1.800000*%
%ADD35RoundRect,0.140000X-0.140000X-0.170000X0.140000X-0.170000X0.140000X0.170000X-0.140000X0.170000X0*%
%ADD36RoundRect,0.250000X-0.325000X-0.650000X0.325000X-0.650000X0.325000X0.650000X-0.325000X0.650000X0*%
%ADD37R,2.200000X1.500000*%
%ADD38R,2.200000X3.800000*%
%ADD39RoundRect,0.250000X0.250000X0.475000X-0.250000X0.475000X-0.250000X-0.475000X0.250000X-0.475000X0*%
%ADD40RoundRect,0.250000X0.325000X0.650000X-0.325000X0.650000X-0.325000X-0.650000X0.325000X-0.650000X0*%
G04 APERTURE END LIST*
D10*
%TO.C,C7*%
X144370000Y-103110000D03*
X144370000Y-102150000D03*
%TD*%
D11*
%TO.C,R2*%
X207412500Y-99700000D03*
X205587500Y-99700000D03*
%TD*%
%TO.C,R6*%
X223712500Y-83700000D03*
X221887500Y-83700000D03*
%TD*%
D12*
%TO.C,C2*%
X192500000Y-92950000D03*
X192500000Y-91050000D03*
%TD*%
D13*
%TO.C,S8*%
X90250000Y-102250000D03*
D14*
X83750000Y-102250000D03*
X90250000Y-97750000D03*
X83750000Y-97750000D03*
%TD*%
D11*
%TO.C,R5*%
X61512500Y-100100000D03*
X59687500Y-100100000D03*
%TD*%
D15*
%TO.C,U2*%
X152837500Y-102000000D03*
X152837500Y-101500000D03*
X152837500Y-101000000D03*
X152837500Y-100500000D03*
X152837500Y-100000000D03*
X152837500Y-99500000D03*
X152837500Y-99000000D03*
X152837500Y-98500000D03*
X152837500Y-98000000D03*
D16*
X152000000Y-97162500D03*
X151500000Y-97162500D03*
X151000000Y-97162500D03*
X150500000Y-97162500D03*
X150000000Y-97162500D03*
X149500000Y-97162500D03*
X149000000Y-97162500D03*
X148500000Y-97162500D03*
X148000000Y-97162500D03*
D15*
X147162500Y-98000000D03*
X147162500Y-98500000D03*
X147162500Y-99000000D03*
X147162500Y-99500000D03*
X147162500Y-100000000D03*
X147162500Y-100500000D03*
X147162500Y-101000000D03*
X147162500Y-101500000D03*
X147162500Y-102000000D03*
D16*
X148000000Y-102837500D03*
X148500000Y-102837500D03*
X149000000Y-102837500D03*
X149500000Y-102837500D03*
X150000000Y-102837500D03*
X150500000Y-102837500D03*
X151000000Y-102837500D03*
X151500000Y-102837500D03*
X152000000Y-102837500D03*
D17*
X150000000Y-100000000D03*
%TD*%
D18*
%TO.C,J1*%
X129690000Y-137170000D03*
X129690000Y-133270000D03*
X130960000Y-137170000D03*
X130960000Y-133270000D03*
X132230000Y-137170000D03*
X132230000Y-133270000D03*
X133500000Y-137170000D03*
X133500000Y-133270000D03*
X134770000Y-137170000D03*
X134770000Y-133270000D03*
%TD*%
D11*
%TO.C,R9*%
X94600000Y-100000000D03*
X92775000Y-100000000D03*
%TD*%
D13*
%TO.C,S3*%
X80250000Y-92250000D03*
D14*
X73750000Y-92250000D03*
X80250000Y-87750000D03*
X73750000Y-87750000D03*
%TD*%
D19*
%TO.C,D1*%
X148500000Y-130850000D03*
X148500000Y-132950000D03*
%TD*%
D11*
%TO.C,R8*%
X78012500Y-116100000D03*
X76187500Y-116100000D03*
%TD*%
D20*
%TO.C,J4*%
X148700000Y-136800000D03*
X149350000Y-136800000D03*
X150000000Y-136800000D03*
X150650000Y-136800000D03*
X151300000Y-136800000D03*
D21*
X147200000Y-136550000D03*
D22*
X150000000Y-138700000D03*
D21*
X152800000Y-136550000D03*
%TD*%
D23*
%TO.C,H4*%
X54780419Y-136780419D03*
X52500000Y-131275000D03*
X49275000Y-134500000D03*
X54780419Y-132219581D03*
X52500000Y-137725000D03*
X50219581Y-136780419D03*
X50219581Y-132219581D03*
X55725000Y-134500000D03*
D24*
X52500000Y-134500000D03*
%TD*%
D25*
%TO.C,C6*%
X154620000Y-102150000D03*
X154620000Y-103110000D03*
%TD*%
D26*
%TO.C,J5*%
X111500000Y-91125000D03*
D27*
X111500000Y-93665000D03*
X111500000Y-96205000D03*
X111500000Y-98745000D03*
X111500000Y-101285000D03*
X111500000Y-103825000D03*
X111500000Y-106365000D03*
X111500000Y-108905000D03*
%TD*%
D28*
%TO.C,R1*%
X149987500Y-106600000D03*
X151812500Y-106600000D03*
%TD*%
D13*
%TO.C,S2*%
X226250000Y-112250000D03*
D14*
X219750000Y-112250000D03*
X226250000Y-107750000D03*
X219750000Y-107750000D03*
%TD*%
D26*
%TO.C,J2*%
X188500000Y-91125000D03*
D27*
X188500000Y-93665000D03*
X188500000Y-96205000D03*
X188500000Y-98745000D03*
X188500000Y-101285000D03*
X188500000Y-103825000D03*
X188500000Y-106365000D03*
X188500000Y-108905000D03*
%TD*%
D13*
%TO.C,S7*%
X80250000Y-112250000D03*
D14*
X73750000Y-112250000D03*
X80250000Y-107750000D03*
X73750000Y-107750000D03*
%TD*%
D13*
%TO.C,S1*%
X216250000Y-102250000D03*
D14*
X209750000Y-102250000D03*
X216250000Y-97750000D03*
X209750000Y-97750000D03*
%TD*%
D29*
%TO.C,J3*%
X146895000Y-61050000D03*
X147995000Y-61050000D03*
X149095000Y-61050000D03*
X150195000Y-61050000D03*
X151295000Y-61050000D03*
X152395000Y-61050000D03*
X153495000Y-61050000D03*
D30*
X154545000Y-61050000D03*
D31*
X144260000Y-67200000D03*
X144260000Y-70900000D03*
D32*
X147760000Y-71875000D03*
X153730000Y-71875000D03*
D33*
X144435000Y-61175000D03*
D34*
X155755000Y-61400000D03*
%TD*%
D13*
%TO.C,S4*%
X70250000Y-102250000D03*
D14*
X63750000Y-102250000D03*
X70250000Y-97750000D03*
X63750000Y-97750000D03*
%TD*%
D28*
%TO.C,R3*%
X222087500Y-115900000D03*
X223912500Y-115900000D03*
%TD*%
D13*
%TO.C,S6*%
X236250000Y-102250000D03*
D14*
X229750000Y-102250000D03*
X236250000Y-97750000D03*
X229750000Y-97750000D03*
%TD*%
D28*
%TO.C,R4*%
X75887500Y-83400000D03*
X77712500Y-83400000D03*
%TD*%
D35*
%TO.C,C8*%
X144670000Y-97000000D03*
X145630000Y-97000000D03*
%TD*%
D36*
%TO.C,C3*%
X150025000Y-128500000D03*
X152975000Y-128500000D03*
%TD*%
D23*
%TO.C,H1*%
X55725000Y-65500000D03*
X50219581Y-67780419D03*
X54780419Y-67780419D03*
X52500000Y-68725000D03*
X50219581Y-63219581D03*
X49275000Y-65500000D03*
X52500000Y-62275000D03*
X54780419Y-63219581D03*
D24*
X52500000Y-65500000D03*
%TD*%
D37*
%TO.C,U1*%
X150850000Y-121200000D03*
X150850000Y-123500000D03*
X150850000Y-125800000D03*
D38*
X157150000Y-123500000D03*
%TD*%
D23*
%TO.C,H3*%
X247500000Y-137725000D03*
X245219581Y-136780419D03*
X245219581Y-132219581D03*
X249780419Y-132219581D03*
X250725000Y-134500000D03*
X249780419Y-136780419D03*
X244275000Y-134500000D03*
X247500000Y-131275000D03*
D24*
X247500000Y-134500000D03*
%TD*%
D39*
%TO.C,C4*%
X152150000Y-111000000D03*
X150250000Y-111000000D03*
%TD*%
D12*
%TO.C,C1*%
X158000000Y-62950000D03*
X158000000Y-61050000D03*
%TD*%
D11*
%TO.C,R7*%
X240312500Y-100300000D03*
X238487500Y-100300000D03*
%TD*%
D13*
%TO.C,S5*%
X226250000Y-92250000D03*
D14*
X219750000Y-92250000D03*
X226250000Y-87750000D03*
X219750000Y-87750000D03*
%TD*%
D23*
%TO.C,H2*%
X249780419Y-67780419D03*
X247500000Y-62275000D03*
X245219581Y-63219581D03*
X244275000Y-65500000D03*
X247500000Y-68725000D03*
X250725000Y-65500000D03*
X245219581Y-67780419D03*
D24*
X247500000Y-65500000D03*
D23*
X249780419Y-63219581D03*
%TD*%
D40*
%TO.C,C5*%
X152975000Y-118500000D03*
X150025000Y-118500000D03*
%TD*%
M02*
